SplineFontDB: 3.2
FontName: Yas-Italic
FullName: Yas Italic
FamilyName: Yas
Weight: Book
Copyright: Copyright (c) IRMUG (Iranian Mac User Group), 2007. All rights reserved.
Version: 4.00 April 9, 2010
ItalicAngle: 0
UnderlinePosition: -600
UnderlineWidth: 60
Ascent: 1638
Descent: 410
InvalidEm: 0
sfntRevision: 0x00040000
LayerCount: 2
Layer: 0 1 "Back" 1
Layer: 1 1 "Fore" 0
XUID: [1021 420 722297922 15889752]
StyleMap: 0x0001
FSType: 0
OS2Version: 2
OS2_WeightWidthSlopeOnly: 0
OS2_UseTypoMetrics: 0
CreationTime: 1194658560
ModificationTime: 1662231280
PfmFamily: 17
TTFWeight: 400
TTFWidth: 5
LineGap: 0
VLineGap: 0
Panose: 2 0 5 3 8 0 0 2 0 3
OS2TypoAscent: 2100
OS2TypoAOffset: 0
OS2TypoDescent: -1000
OS2TypoDOffset: 0
OS2TypoLinegap: 0
OS2WinAscent: 2100
OS2WinAOffset: 0
OS2WinDescent: 1000
OS2WinDOffset: 0
HheadAscent: 2100
HheadAOffset: 0
HheadDescent: -1000
HheadDOffset: 0
OS2SubXSize: 1434
OS2SubYSize: 1331
OS2SubXOff: 0
OS2SubYOff: 293
OS2SupXSize: 1434
OS2SupYSize: 1331
OS2SupXOff: 0
OS2SupYOff: 928
OS2StrikeYSize: 102
OS2StrikeYPos: 512
OS2CapHeight: 1355
OS2XHeight: 930
OS2Vendor: 'pars'
OS2CodePages: 20000051.41000000
OS2UnicodeRanges: 00002003.80000000.00000008.00000000
Lookup: 6 0 0 "'ccmp' Glyph Composition/Decomposition in Arabic lookup 0" { "'ccmp' Glyph Composition/Decomposition in Arabic lookup 0 contextual 0"  "'ccmp' Glyph Composition/Decomposition in Arabic lookup 0 contextual 1"  "'ccmp' Glyph Composition/Decomposition in Arabic lookup 0 contextual 2"  "'ccmp' Glyph Composition/Decomposition in Arabic lookup 0 contextual 3"  "'ccmp' Glyph Composition/Decomposition in Arabic lookup 0 contextual 4"  "'ccmp' Glyph Composition/Decomposition in Arabic lookup 0 contextual 5"  } ['ccmp' ('arab' <'ARA ' 'DRI ' 'FAR ' 'KUR ' 'PAS ' 'URD ' 'UYG ' 'UZB ' 'dflt' > ) ]

StartChar: .notdef
Encoding: 65536 -1 0
Width: 1122
GlyphClass: 2
Flags: W
LayerCount: 2
Fore
SplineSet
624 299 m 0,0,1
 624 269 624 269 602 246.5 c 128,-1,2
 580 224 580 224 548 224 c 0,3,4
 518 224 518 224 496.5 246.5 c 128,-1,5
 475 269 475 269 475 299 c 0,6,7
 475 331 475 331 496.5 352.5 c 128,-1,8
 518 374 518 374 551 374 c 0,9,10
 581 374 581 374 602.5 352.5 c 128,-1,11
 624 331 624 331 624 299 c 0,0,1
732 780 m 0,12,13
 732 737 732 737 708.5 710 c 128,-1,14
 685 683 685 683 648 683 c 0,15,16
 616 683 616 683 597 701.5 c 128,-1,17
 578 720 578 720 578 749 c 0,18,19
 578 770 578 770 588 785 c 128,-1,20
 598 800 598 800 610.5 810.5 c 128,-1,21
 623 821 623 821 633 829 c 128,-1,22
 643 837 643 837 643 843 c 0,23,24
 643 863 643 863 623.5 875 c 128,-1,25
 604 887 604 887 574 887 c 0,26,27
 536 887 536 887 512 866 c 128,-1,28
 488 845 488 845 488 813 c 0,29,30
 488 795 488 795 498.5 769 c 128,-1,31
 509 743 509 743 521.5 718 c 128,-1,32
 534 693 534 693 545.5 673 c 128,-1,33
 557 653 557 653 559 648 c 0,34,35
 570 619 570 619 576.5 583.5 c 128,-1,36
 583 548 583 548 583 513 c 0,37,38
 583 492 583 492 581.5 470.5 c 128,-1,39
 580 449 580 449 578 424 c 1,40,-1
 539 424 l 1,41,-1
 539 442 l 1,42,-1
 543 472 l 1,43,44
 543 505 543 505 498 544 c 0,45,46
 425 609 425 609 416 620 c 0,47,48
 371 673 371 673 371 740 c 0,49,50
 371 781 371 781 386 815.5 c 128,-1,51
 401 850 401 850 426.5 875.5 c 128,-1,52
 452 901 452 901 486.5 915 c 128,-1,53
 521 929 521 929 560 929 c 0,54,55
 595 929 595 929 626.5 918.5 c 128,-1,56
 658 908 658 908 681.5 888.5 c 128,-1,57
 705 869 705 869 718.5 841.5 c 128,-1,58
 732 814 732 814 732 780 c 0,12,13
132 31 m 1,59,-1
 992 31 l 1,60,-1
 992 1122 l 1,61,-1
 132 1122 l 1,62,-1
 132 31 l 1,59,-1
100 0 m 1,63,-1
 100 1154 l 1,64,-1
 1022 1154 l 1,65,-1
 1022 0 l 1,66,-1
 100 0 l 1,63,-1
EndSplineSet
PairPos2: "'kern' Horizontal Kerning in Arabic lookup 0 subtable" afii57509 dx=0 dy=0 dh=0 dv=0 dx=0 dy=0 dh=260 dv=0
PairPos2: "'kern' Horizontal Kerning in Arabic lookup 0 subtable" uni06AB dx=0 dy=0 dh=0 dv=0 dx=0 dy=0 dh=260 dv=0
PairPos2: "'kern' Horizontal Kerning in Arabic lookup 0 subtable" uni06A9 dx=0 dy=0 dh=0 dv=0 dx=0 dy=0 dh=260 dv=0
PairPos2: "'kern' Horizontal Kerning in Arabic lookup 0 subtable" uniFB94 dx=0 dy=0 dh=0 dv=0 dx=0 dy=0 dh=260 dv=0
PairPos2: "'kern' Horizontal Kerning in Arabic lookup 0 subtable" uniFBD5 dx=0 dy=0 dh=0 dv=0 dx=0 dy=0 dh=260 dv=0
PairPos2: "'kern' Horizontal Kerning in Arabic lookup 0 subtable" uni06AB.ini dx=0 dy=0 dh=0 dv=0 dx=0 dy=0 dh=260 dv=0
PairPos2: "'kern' Horizontal Kerning in Arabic lookup 0 subtable" uniFB90 dx=0 dy=0 dh=0 dv=0 dx=0 dy=0 dh=260 dv=0
PairPos2: "'kern' Horizontal Kerning in Arabic lookup 0 subtable" uniFEDB dx=0 dy=0 dh=0 dv=0 dx=0 dy=0 dh=260 dv=0
PairPos2: "'kern' Horizontal Kerning in Arabic lookup 0 subtable" uni0671 dx=0 dy=0 dh=0 dv=0 dx=0 dy=0 dh=208 dv=0
PairPos2: "'kern' Horizontal Kerning in Arabic lookup 0 subtable" afii57410 dx=0 dy=0 dh=0 dv=0 dx=0 dy=0 dh=208 dv=0
PairPos2: "'kern' Horizontal Kerning in Arabic lookup 0 subtable" afii57415 dx=0 dy=0 dh=0 dv=0 dx=0 dy=0 dh=52 dv=0
EndChar

StartChar: exclam
Encoding: 33 33 4
Width: 541
GlyphClass: 2
Flags: W
LayerCount: 2
Fore
SplineSet
297 210 m 0,0,1
 301 186 301 186 296.5 163 c 128,-1,2
 292 140 292 140 279.5 122 c 128,-1,3
 267 104 267 104 247 93 c 128,-1,4
 227 82 227 82 201 82 c 0,5,6
 179 82 179 82 155.5 92.5 c 128,-1,7
 132 103 132 103 111.5 120.5 c 128,-1,8
 91 138 91 138 76 161 c 128,-1,9
 61 184 61 184 55 209 c 0,10,11
 50 233 50 233 55.5 255.5 c 128,-1,12
 61 278 61 278 73 295 c 128,-1,13
 85 312 85 312 103.5 322 c 128,-1,14
 122 332 122 332 144 332 c 0,15,16
 170 332 170 332 195 322 c 128,-1,17
 220 312 220 312 240.5 295.5 c 128,-1,18
 261 279 261 279 276 257 c 128,-1,19
 291 235 291 235 297 210 c 0,0,1
73 1260 m 0,20,21
 97 1145 97 1145 107 888 c 0,22,23
 112 746 112 746 121 634.5 c 128,-1,24
 130 523 130 523 145 435 c 1,25,-1
 108 435 l 1,26,27
 87 529 87 529 50.5 642 c 128,-1,28
 14 755 14 755 -42 895 c 0,29,30
 -93 1031 -93 1031 -123.5 1121.5 c 128,-1,31
 -154 1212 -154 1212 -165 1261 c 0,32,33
 -173 1298 -173 1298 -171.5 1330 c 128,-1,34
 -170 1362 -170 1362 -159.5 1385 c 128,-1,35
 -149 1408 -149 1408 -129.5 1421.5 c 128,-1,36
 -110 1435 -110 1435 -84 1435 c 0,37,38
 -28 1435 -28 1435 14 1388 c 128,-1,39
 56 1341 56 1341 73 1260 c 0,20,21
EndSplineSet
PairPos2: "'kern' Horizontal Kerning in Arabic lookup 0 subtable" afii57509 dx=0 dy=0 dh=0 dv=0 dx=0 dy=0 dh=260 dv=0
PairPos2: "'kern' Horizontal Kerning in Arabic lookup 0 subtable" uni06AB dx=0 dy=0 dh=0 dv=0 dx=0 dy=0 dh=260 dv=0
PairPos2: "'kern' Horizontal Kerning in Arabic lookup 0 subtable" uni06A9 dx=0 dy=0 dh=0 dv=0 dx=0 dy=0 dh=260 dv=0
PairPos2: "'kern' Horizontal Kerning in Arabic lookup 0 subtable" uniFB94 dx=0 dy=0 dh=0 dv=0 dx=0 dy=0 dh=260 dv=0
PairPos2: "'kern' Horizontal Kerning in Arabic lookup 0 subtable" uniFBD5 dx=0 dy=0 dh=0 dv=0 dx=0 dy=0 dh=260 dv=0
PairPos2: "'kern' Horizontal Kerning in Arabic lookup 0 subtable" uni06AB.ini dx=0 dy=0 dh=0 dv=0 dx=0 dy=0 dh=260 dv=0
PairPos2: "'kern' Horizontal Kerning in Arabic lookup 0 subtable" uniFB90 dx=0 dy=0 dh=0 dv=0 dx=0 dy=0 dh=260 dv=0
PairPos2: "'kern' Horizontal Kerning in Arabic lookup 0 subtable" uniFEDB dx=0 dy=0 dh=0 dv=0 dx=0 dy=0 dh=260 dv=0
PairPos2: "'kern' Horizontal Kerning in Arabic lookup 0 subtable" uni0671 dx=0 dy=0 dh=0 dv=0 dx=0 dy=0 dh=208 dv=0
PairPos2: "'kern' Horizontal Kerning in Arabic lookup 0 subtable" afii57410 dx=0 dy=0 dh=0 dv=0 dx=0 dy=0 dh=208 dv=0
PairPos2: "'kern' Horizontal Kerning in Arabic lookup 0 subtable" afii57415 dx=0 dy=0 dh=0 dv=0 dx=0 dy=0 dh=52 dv=0
EndChar

StartChar: quotedbl
Encoding: 34 34 5
Width: 836
GlyphClass: 2
Flags: W
LayerCount: 2
Fore
SplineSet
126 793 m 1,0,-1
 79 793 l 1,1,-1
 -59 1200 l 2,2,3
 -68 1227 -68 1227 -76 1252.5 c 128,-1,4
 -84 1278 -84 1278 -88 1298 c 0,5,6
 -96 1337 -96 1337 -78.5 1360.5 c 128,-1,7
 -61 1384 -61 1384 -26 1384 c 0,8,9
 21 1384 21 1384 44 1357.5 c 128,-1,10
 67 1331 67 1331 77 1283 c 0,11,12
 79 1277 79 1277 80.5 1267 c 128,-1,13
 82 1257 82 1257 83.5 1245.5 c 128,-1,14
 85 1234 85 1234 86 1222.5 c 128,-1,15
 87 1211 87 1211 87 1203 c 2,16,-1
 126 793 l 1,0,-1
376 793 m 1,17,-1
 242 1191 l 2,18,19
 231 1224 231 1224 225.5 1240.5 c 128,-1,20
 220 1257 220 1257 217.5 1264.5 c 128,-1,21
 215 1272 215 1272 214.5 1274.5 c 128,-1,22
 214 1277 214 1277 212 1283 c 0,23,24
 201 1338 201 1338 217.5 1361 c 128,-1,25
 234 1384 234 1384 273 1384 c 0,26,27
 322 1384 322 1384 344 1356.5 c 128,-1,28
 366 1329 366 1329 376 1282 c 0,29,30
 378 1277 378 1277 378 1273.5 c 128,-1,31
 378 1270 378 1270 379 1262.5 c 128,-1,32
 380 1255 380 1255 381.5 1240.5 c 128,-1,33
 383 1226 383 1226 386 1200 c 0,34,35
 395 1103 395 1103 405.5 997 c 128,-1,36
 416 891 416 891 425 793 c 1,37,-1
 376 793 l 1,17,-1
EndSplineSet
PairPos2: "'kern' Horizontal Kerning in Arabic lookup 0 subtable" afii57509 dx=0 dy=0 dh=0 dv=0 dx=0 dy=0 dh=260 dv=0
PairPos2: "'kern' Horizontal Kerning in Arabic lookup 0 subtable" uni06AB dx=0 dy=0 dh=0 dv=0 dx=0 dy=0 dh=260 dv=0
PairPos2: "'kern' Horizontal Kerning in Arabic lookup 0 subtable" uni06A9 dx=0 dy=0 dh=0 dv=0 dx=0 dy=0 dh=260 dv=0
PairPos2: "'kern' Horizontal Kerning in Arabic lookup 0 subtable" uniFB94 dx=0 dy=0 dh=0 dv=0 dx=0 dy=0 dh=260 dv=0
PairPos2: "'kern' Horizontal Kerning in Arabic lookup 0 subtable" uniFBD5 dx=0 dy=0 dh=0 dv=0 dx=0 dy=0 dh=260 dv=0
PairPos2: "'kern' Horizontal Kerning in Arabic lookup 0 subtable" uni06AB.ini dx=0 dy=0 dh=0 dv=0 dx=0 dy=0 dh=260 dv=0
PairPos2: "'kern' Horizontal Kerning in Arabic lookup 0 subtable" uniFB90 dx=0 dy=0 dh=0 dv=0 dx=0 dy=0 dh=260 dv=0
PairPos2: "'kern' Horizontal Kerning in Arabic lookup 0 subtable" uniFEDB dx=0 dy=0 dh=0 dv=0 dx=0 dy=0 dh=260 dv=0
PairPos2: "'kern' Horizontal Kerning in Arabic lookup 0 subtable" uni0671 dx=0 dy=0 dh=0 dv=0 dx=0 dy=0 dh=208 dv=0
PairPos2: "'kern' Horizontal Kerning in Arabic lookup 0 subtable" afii57410 dx=0 dy=0 dh=0 dv=0 dx=0 dy=0 dh=208 dv=0
PairPos2: "'kern' Horizontal Kerning in Arabic lookup 0 subtable" afii57415 dx=0 dy=0 dh=0 dv=0 dx=0 dy=0 dh=52 dv=0
EndChar

StartChar: numbersign
Encoding: 35 35 6
Width: 1024
GlyphClass: 2
Flags: W
LayerCount: 2
Fore
SplineSet
464 505 m 1,0,1
 469 590 469 590 474 676 c 128,-1,2
 479 762 479 762 484 847 c 1,3,-1
 270 847 l 1,4,5
 265 762 265 762 260 676 c 128,-1,6
 255 590 255 590 250 505 c 1,7,-1
 464 505 l 1,0,1
-90 505 m 1,8,-1
 127 505 l 1,9,10
 132 591 132 591 138 677 c 128,-1,11
 144 763 144 763 149 849 c 1,12,-1
 -68 849 l 1,13,-1
 -68 925 l 1,14,-1
 150 925 l 1,15,16
 153 973 153 973 156 1028 c 128,-1,17
 159 1083 159 1083 163.5 1139 c 128,-1,18
 168 1195 168 1195 171 1250 c 128,-1,19
 174 1305 174 1305 178 1353 c 1,20,-1
 303 1353 l 1,21,-1
 275 925 l 1,22,-1
 489 925 l 1,23,24
 495 1028 495 1028 502 1139 c 128,-1,25
 509 1250 509 1250 515 1353 c 1,26,-1
 637 1353 l 1,27,-1
 609 925 l 1,28,-1
 826 925 l 1,29,-1
 823 849 l 1,30,-1
 606 849 l 1,31,32
 601 763 601 763 596.5 677 c 128,-1,33
 592 591 592 591 587 505 c 1,34,-1
 804 505 l 1,35,-1
 799 428 l 1,36,-1
 585 428 l 1,37,38
 579 326 579 326 572 214.5 c 128,-1,39
 565 103 565 103 560 0 c 1,40,-1
 434 0 l 1,41,-1
 462 428 l 1,42,-1
 248 428 l 1,43,44
 242 326 242 326 235 214.5 c 128,-1,45
 228 103 228 103 223 0 c 1,46,-1
 101 0 l 1,47,-1
 125 428 l 1,48,-1
 -89 428 l 1,49,-1
 -90 505 l 1,8,-1
EndSplineSet
PairPos2: "'kern' Horizontal Kerning in Arabic lookup 0 subtable" afii57509 dx=0 dy=0 dh=0 dv=0 dx=0 dy=0 dh=260 dv=0
PairPos2: "'kern' Horizontal Kerning in Arabic lookup 0 subtable" uni06AB dx=0 dy=0 dh=0 dv=0 dx=0 dy=0 dh=260 dv=0
PairPos2: "'kern' Horizontal Kerning in Arabic lookup 0 subtable" uni06A9 dx=0 dy=0 dh=0 dv=0 dx=0 dy=0 dh=260 dv=0
PairPos2: "'kern' Horizontal Kerning in Arabic lookup 0 subtable" uniFB94 dx=0 dy=0 dh=0 dv=0 dx=0 dy=0 dh=260 dv=0
PairPos2: "'kern' Horizontal Kerning in Arabic lookup 0 subtable" uniFBD5 dx=0 dy=0 dh=0 dv=0 dx=0 dy=0 dh=260 dv=0
PairPos2: "'kern' Horizontal Kerning in Arabic lookup 0 subtable" uni06AB.ini dx=0 dy=0 dh=0 dv=0 dx=0 dy=0 dh=260 dv=0
PairPos2: "'kern' Horizontal Kerning in Arabic lookup 0 subtable" uniFB90 dx=0 dy=0 dh=0 dv=0 dx=0 dy=0 dh=260 dv=0
PairPos2: "'kern' Horizontal Kerning in Arabic lookup 0 subtable" uniFEDB dx=0 dy=0 dh=0 dv=0 dx=0 dy=0 dh=260 dv=0
PairPos2: "'kern' Horizontal Kerning in Arabic lookup 0 subtable" uni0671 dx=0 dy=0 dh=0 dv=0 dx=0 dy=0 dh=208 dv=0
PairPos2: "'kern' Horizontal Kerning in Arabic lookup 0 subtable" afii57410 dx=0 dy=0 dh=0 dv=0 dx=0 dy=0 dh=208 dv=0
PairPos2: "'kern' Horizontal Kerning in Arabic lookup 0 subtable" afii57415 dx=0 dy=0 dh=0 dv=0 dx=0 dy=0 dh=52 dv=0
EndChar

StartChar: dollar
Encoding: 36 36 7
Width: 1024
GlyphClass: 2
Flags: W
LayerCount: 2
Fore
SplineSet
191 1301 m 1,0,1
 148 1295 148 1295 113 1277 c 128,-1,2
 78 1259 78 1259 56.5 1232 c 128,-1,3
 35 1205 35 1205 27.5 1169 c 128,-1,4
 20 1133 20 1133 28 1090 c 0,5,6
 42 1027 42 1027 109 961.5 c 128,-1,7
 176 896 176 896 290 836 c 1,8,-1
 191 1301 l 1,0,1
654 110 m 0,9,10
 736 177 736 177 707 314 c 0,11,12
 687 408 687 408 601 481 c 0,13,14
 576 503 576 503 529 531.5 c 128,-1,15
 482 560 482 560 415 597 c 1,16,-1
 529 58 l 1,17,18
 567 66 567 66 599 79 c 128,-1,19
 631 92 631 92 654 110 c 0,9,10
43 370 m 1,20,21
 70 311 70 311 101 262 c 128,-1,22
 132 213 132 213 161 181 c 0,23,24
 219 124 219 124 294.5 92 c 128,-1,25
 370 60 370 60 458 58 c 1,26,-1
 335 634 l 1,27,28
 229 690 229 690 150 737 c 128,-1,29
 71 784 71 784 34 814 c 0,30,31
 -90 915 -90 915 -118 1050 c 0,32,33
 -142 1163 -142 1163 -64 1258 c 0,34,35
 -25 1306 -25 1306 37.5 1330.5 c 128,-1,36
 100 1355 100 1355 181 1360 c 1,37,-1
 154 1488 l 1,38,-1
 225 1488 l 1,39,-1
 252 1360 l 1,40,41
 334 1355 334 1355 441 1328 c 0,42,43
 491 1315 491 1315 532 1294.5 c 128,-1,44
 573 1274 573 1274 605 1251 c 1,45,-1
 653 1022 l 1,46,-1
 621 1022 l 1,47,48
 596 1087 596 1087 557 1138 c 128,-1,49
 518 1189 518 1189 471 1224.5 c 128,-1,50
 424 1260 424 1260 371 1279.5 c 128,-1,51
 318 1299 318 1299 264 1301 c 1,52,-1
 370 802 l 1,53,54
 489 748 489 748 580 695.5 c 128,-1,55
 671 643 671 643 723 598 c 0,56,57
 773 554 773 554 807.5 492.5 c 128,-1,58
 842 431 842 431 859 358 c 0,59,60
 875 284 875 284 860 221.5 c 128,-1,61
 845 159 845 159 803 111.5 c 128,-1,62
 761 64 761 64 695 35 c 128,-1,63
 629 6 629 6 541 0 c 1,64,-1
 579 -181 l 1,65,-1
 508 -181 l 1,66,-1
 470 0 l 1,67,68
 407 2 407 2 350 9 c 128,-1,69
 293 16 293 16 248 30 c 0,70,71
 187 48 187 48 68 105 c 1,72,-1
 11 370 l 1,73,-1
 43 370 l 1,20,21
EndSplineSet
PairPos2: "'kern' Horizontal Kerning in Arabic lookup 0 subtable" afii57509 dx=0 dy=0 dh=0 dv=0 dx=0 dy=0 dh=260 dv=0
PairPos2: "'kern' Horizontal Kerning in Arabic lookup 0 subtable" uni06AB dx=0 dy=0 dh=0 dv=0 dx=0 dy=0 dh=260 dv=0
PairPos2: "'kern' Horizontal Kerning in Arabic lookup 0 subtable" uni06A9 dx=0 dy=0 dh=0 dv=0 dx=0 dy=0 dh=260 dv=0
PairPos2: "'kern' Horizontal Kerning in Arabic lookup 0 subtable" uniFB94 dx=0 dy=0 dh=0 dv=0 dx=0 dy=0 dh=260 dv=0
PairPos2: "'kern' Horizontal Kerning in Arabic lookup 0 subtable" uniFBD5 dx=0 dy=0 dh=0 dv=0 dx=0 dy=0 dh=260 dv=0
PairPos2: "'kern' Horizontal Kerning in Arabic lookup 0 subtable" uni06AB.ini dx=0 dy=0 dh=0 dv=0 dx=0 dy=0 dh=260 dv=0
PairPos2: "'kern' Horizontal Kerning in Arabic lookup 0 subtable" uniFB90 dx=0 dy=0 dh=0 dv=0 dx=0 dy=0 dh=260 dv=0
PairPos2: "'kern' Horizontal Kerning in Arabic lookup 0 subtable" uniFEDB dx=0 dy=0 dh=0 dv=0 dx=0 dy=0 dh=260 dv=0
PairPos2: "'kern' Horizontal Kerning in Arabic lookup 0 subtable" uni0671 dx=0 dy=0 dh=0 dv=0 dx=0 dy=0 dh=208 dv=0
PairPos2: "'kern' Horizontal Kerning in Arabic lookup 0 subtable" afii57410 dx=0 dy=0 dh=0 dv=0 dx=0 dy=0 dh=208 dv=0
PairPos2: "'kern' Horizontal Kerning in Arabic lookup 0 subtable" afii57415 dx=0 dy=0 dh=0 dv=0 dx=0 dy=0 dh=52 dv=0
EndChar

StartChar: percent
Encoding: 37 37 8
Width: 1706
GlyphClass: 2
Flags: W
LayerCount: 2
Fore
SplineSet
492 1134 m 0,0,1
 481 1180 481 1180 471 1198.5 c 128,-1,2
 461 1217 461 1217 445 1225.5 c 128,-1,3
 429 1234 429 1234 405.5 1241 c 128,-1,4
 382 1248 382 1248 345 1269 c 0,5,6
 326 1280 326 1280 316 1286.5 c 128,-1,7
 306 1293 306 1293 301 1293 c 0,8,9
 206 1293 206 1293 142 1119 c 0,10,11
 80 946 80 946 110 802 c 0,12,13
 124 736 124 736 163 699 c 128,-1,14
 202 662 202 662 267 662 c 0,15,16
 388 662 388 662 458 811 c 0,17,18
 529 960 529 960 492 1134 c 0,0,1
1415 516 m 0,19,20
 1397 600 1397 600 1347 646.5 c 128,-1,21
 1297 693 1297 693 1231 693 c 0,22,23
 1174 693 1174 693 1130 645.5 c 128,-1,24
 1086 598 1086 598 1058 512 c 0,25,26
 1032 423 1032 423 1026 343.5 c 128,-1,27
 1020 264 1020 264 1033 198 c 0,28,29
 1047 132 1047 132 1091.5 97.5 c 128,-1,30
 1136 63 1136 63 1196 63 c 0,31,32
 1316 63 1316 63 1380 222 c 0,33,34
 1443 383 1443 383 1415 516 c 0,19,20
1198 760 m 0,35,36
 1286 760 1286 760 1364 708 c 256,37,38
 1442 656 1442 656 1473 514 c 0,39,40
 1505 363 1505 363 1430 180 c 0,41,42
 1354 -3 1354 -3 1167 -3 c 0,43,44
 1117 -3 1117 -3 1068 13.5 c 128,-1,45
 1019 30 1019 30 978 64.5 c 128,-1,46
 937 99 937 99 905.5 152.5 c 128,-1,47
 874 206 874 206 858 280 c 0,48,49
 822 452 822 452 926 606 c 0,50,51
 1031 760 1031 760 1198 760 c 0,35,36
382 1339 m 0,52,53
 407 1331 407 1331 429.5 1313.5 c 128,-1,54
 452 1296 452 1296 474 1279 c 0,55,56
 502 1259 502 1259 545.5 1251 c 128,-1,57
 589 1243 589 1243 633 1243 c 0,58,59
 747 1243 747 1243 833 1299 c 0,60,61
 855 1313 855 1313 877 1334 c 128,-1,62
 899 1355 899 1355 922 1384 c 1,63,-1
 1005 1384 l 1,64,-1
 514 -29 l 1,65,-1
 416 -29 l 1,66,-1
 858 1248 l 1,67,68
 822 1230 822 1230 799.5 1219 c 128,-1,69
 777 1208 777 1208 757.5 1202 c 128,-1,70
 738 1196 738 1196 716 1194 c 128,-1,71
 694 1192 694 1192 661 1192 c 0,72,73
 617 1192 617 1192 584 1196 c 128,-1,74
 551 1200 551 1200 517 1210 c 1,75,76
 523 1197 523 1197 528 1187 c 128,-1,77
 533 1177 533 1177 536.5 1167.5 c 128,-1,78
 540 1158 540 1158 542.5 1145.5 c 128,-1,79
 545 1133 545 1133 550 1113 c 0,80,81
 589 933 589 933 504 761 c 0,82,83
 420 590 420 590 245 590 c 0,84,85
 152 590 152 590 60 661 c 0,86,87
 -31 731 -31 731 -60 870 c 0,88,89
 -78 953 -78 953 -61 1034 c 128,-1,90
 -44 1115 -44 1115 5 1195 c 0,91,92
 53 1273 53 1273 123.5 1313.5 c 128,-1,93
 194 1354 194 1354 278 1355 c 0,94,95
 341 1355 341 1355 382 1339 c 0,52,53
EndSplineSet
Ligature2: "<17013,16013> Roman in Arabic lookup 72 subtable" zero fraction zero
Ligature2: "<17013,16013> Roman in Arabic lookup 72 subtable" zero slash zero
Ligature2: "Ligature Substitution lookup 42 subtable" zero fraction zero
Ligature2: "Ligature Substitution lookup 42 subtable" zero slash zero
PairPos2: "'kern' Horizontal Kerning in Arabic lookup 0 subtable" afii57509 dx=0 dy=0 dh=0 dv=0 dx=0 dy=0 dh=260 dv=0
PairPos2: "'kern' Horizontal Kerning in Arabic lookup 0 subtable" uni06AB dx=0 dy=0 dh=0 dv=0 dx=0 dy=0 dh=260 dv=0
PairPos2: "'kern' Horizontal Kerning in Arabic lookup 0 subtable" uni06A9 dx=0 dy=0 dh=0 dv=0 dx=0 dy=0 dh=260 dv=0
PairPos2: "'kern' Horizontal Kerning in Arabic lookup 0 subtable" uniFB94 dx=0 dy=0 dh=0 dv=0 dx=0 dy=0 dh=260 dv=0
PairPos2: "'kern' Horizontal Kerning in Arabic lookup 0 subtable" uniFBD5 dx=0 dy=0 dh=0 dv=0 dx=0 dy=0 dh=260 dv=0
PairPos2: "'kern' Horizontal Kerning in Arabic lookup 0 subtable" uni06AB.ini dx=0 dy=0 dh=0 dv=0 dx=0 dy=0 dh=260 dv=0
PairPos2: "'kern' Horizontal Kerning in Arabic lookup 0 subtable" uniFB90 dx=0 dy=0 dh=0 dv=0 dx=0 dy=0 dh=260 dv=0
PairPos2: "'kern' Horizontal Kerning in Arabic lookup 0 subtable" uniFEDB dx=0 dy=0 dh=0 dv=0 dx=0 dy=0 dh=260 dv=0
PairPos2: "'kern' Horizontal Kerning in Arabic lookup 0 subtable" uni0671 dx=0 dy=0 dh=0 dv=0 dx=0 dy=0 dh=208 dv=0
PairPos2: "'kern' Horizontal Kerning in Arabic lookup 0 subtable" afii57410 dx=0 dy=0 dh=0 dv=0 dx=0 dy=0 dh=208 dv=0
PairPos2: "'kern' Horizontal Kerning in Arabic lookup 0 subtable" afii57415 dx=0 dy=0 dh=0 dv=0 dx=0 dy=0 dh=52 dv=0
EndChar

StartChar: ampersand
Encoding: 38 38 9
Width: 1593
GlyphClass: 2
Flags: W
LayerCount: 2
Fore
SplineSet
601 954 m 0,0,1
 673 1040 673 1040 651 1142 c 0,2,3
 643 1180 643 1180 624 1211.5 c 128,-1,4
 605 1243 605 1243 579.5 1266 c 128,-1,5
 554 1289 554 1289 522 1302 c 128,-1,6
 490 1315 490 1315 455 1315 c 0,7,8
 380 1315 380 1315 348.5 1266.5 c 128,-1,9
 317 1218 317 1218 334 1137 c 0,10,11
 348 1075 348 1075 386 1002 c 128,-1,12
 424 929 424 929 475 851 c 1,13,14
 515 877 515 877 548 904 c 128,-1,15
 581 931 581 931 601 954 c 0,0,1
649 114 m 0,16,17
 685 129 685 129 718 154 c 128,-1,18
 751 179 751 179 780 214 c 1,19,20
 722 271 722 271 673.5 322 c 128,-1,21
 625 373 625 373 591 414 c 0,22,23
 556 456 556 456 500.5 527 c 128,-1,24
 445 598 445 598 368 699 c 1,25,26
 262 626 262 626 219.5 546 c 128,-1,27
 177 466 177 466 199 361 c 0,28,29
 210 307 210 307 240.5 256.5 c 128,-1,30
 271 206 271 206 314 167.5 c 128,-1,31
 357 129 357 129 410.5 105.5 c 128,-1,32
 464 82 464 82 521 82 c 0,33,34
 549 82 549 82 581.5 90.5 c 128,-1,35
 614 99 614 99 649 114 c 0,16,17
320 772 m 1,36,37
 311 785 311 785 298.5 805 c 128,-1,38
 286 825 286 825 274.5 846.5 c 128,-1,39
 263 868 263 868 251.5 888.5 c 128,-1,40
 240 909 240 909 235 922 c 0,41,42
 220 954 220 954 208.5 986.5 c 128,-1,43
 197 1019 197 1019 189 1050 c 0,44,45
 175 1122 175 1122 185.5 1183 c 128,-1,46
 196 1244 196 1244 227.5 1289 c 128,-1,47
 259 1334 259 1334 310.5 1359 c 128,-1,48
 362 1384 362 1384 429 1384 c 0,49,50
 491 1384 491 1384 546.5 1366.5 c 128,-1,51
 602 1349 602 1349 646.5 1316.5 c 128,-1,52
 691 1284 691 1284 722 1238.5 c 128,-1,53
 753 1193 753 1193 765 1136 c 0,54,55
 792 1004 792 1004 710 920 c 0,56,57
 670 879 670 879 621.5 845.5 c 128,-1,58
 573 812 573 812 521 786 c 1,59,60
 529 776 529 776 544 756.5 c 128,-1,61
 559 737 559 737 577.5 713.5 c 128,-1,62
 596 690 596 690 616 664.5 c 128,-1,63
 636 639 636 639 653 617.5 c 128,-1,64
 670 596 670 596 682 580.5 c 128,-1,65
 694 565 694 565 697 561 c 0,66,67
 726 529 726 529 772 479 c 128,-1,68
 818 429 818 429 879 367 c 1,69,70
 913 427 913 427 936 482.5 c 128,-1,71
 959 538 959 538 972.5 585 c 128,-1,72
 986 632 986 632 989.5 670.5 c 128,-1,73
 993 709 993 709 988 734 c 0,74,75
 983 757 983 757 974 773.5 c 128,-1,76
 965 790 965 790 947.5 801.5 c 128,-1,77
 930 813 930 813 903 819 c 128,-1,78
 876 825 876 825 837 828 c 1,79,-1
 828 873 l 1,80,-1
 1270 873 l 1,81,-1
 1279 828 l 1,82,83
 1238 824 1238 824 1211 816 c 128,-1,84
 1184 808 1184 808 1165.5 794 c 128,-1,85
 1147 780 1147 780 1135 759 c 128,-1,86
 1123 738 1123 738 1113 708 c 2,87,-1
 1080 613 l 2,88,89
 1064 563 1064 563 1048.5 521.5 c 128,-1,90
 1033 480 1033 480 1021 456 c 0,91,92
 1007 429 1007 429 988 392.5 c 128,-1,93
 969 356 969 356 941 309 c 1,94,95
 966 286 966 286 994.5 262 c 128,-1,96
 1023 238 1023 238 1051 215 c 0,97,98
 1115 169 1115 169 1176.5 144.5 c 128,-1,99
 1238 120 1238 120 1292 120 c 0,100,101
 1324 120 1324 120 1350 128.5 c 128,-1,102
 1376 137 1376 137 1395 152 c 0,103,104
 1419 171 1419 171 1455 230 c 1,105,-1
 1492 205 l 1,106,107
 1491 192 1491 192 1483.5 171 c 128,-1,108
 1476 150 1476 150 1464.5 127 c 128,-1,109
 1453 104 1453 104 1439.5 82.5 c 128,-1,110
 1426 61 1426 61 1414 47 c 0,111,112
 1381 12 1381 12 1331 -9 c 128,-1,113
 1281 -30 1281 -30 1229 -30 c 0,114,115
 1131 -30 1131 -30 1024 31 c 0,116,117
 992 49 992 49 946.5 80.5 c 128,-1,118
 901 112 901 112 845 157 c 1,119,120
 811 118 811 118 771 86 c 128,-1,121
 731 54 731 54 691 31 c 0,122,123
 638 2 638 2 573.5 -13.5 c 128,-1,124
 509 -29 509 -29 440 -29 c 0,125,126
 360 -29 360 -29 290.5 -7.5 c 128,-1,127
 221 14 221 14 166.5 55.5 c 128,-1,128
 112 97 112 97 74 156.5 c 128,-1,129
 36 216 36 216 20 291 c 0,130,131
 6 357 6 357 17 418 c 128,-1,132
 28 479 28 479 59 534 c 128,-1,133
 90 589 90 589 140 637.5 c 128,-1,134
 190 686 190 686 253 728 c 2,135,-1
 320 772 l 1,36,37
EndSplineSet
PairPos2: "'kern' Horizontal Kerning in Arabic lookup 0 subtable" afii57509 dx=0 dy=0 dh=0 dv=0 dx=0 dy=0 dh=260 dv=0
PairPos2: "'kern' Horizontal Kerning in Arabic lookup 0 subtable" uni06AB dx=0 dy=0 dh=0 dv=0 dx=0 dy=0 dh=260 dv=0
PairPos2: "'kern' Horizontal Kerning in Arabic lookup 0 subtable" uni06A9 dx=0 dy=0 dh=0 dv=0 dx=0 dy=0 dh=260 dv=0
PairPos2: "'kern' Horizontal Kerning in Arabic lookup 0 subtable" uniFB94 dx=0 dy=0 dh=0 dv=0 dx=0 dy=0 dh=260 dv=0
PairPos2: "'kern' Horizontal Kerning in Arabic lookup 0 subtable" uniFBD5 dx=0 dy=0 dh=0 dv=0 dx=0 dy=0 dh=260 dv=0
PairPos2: "'kern' Horizontal Kerning in Arabic lookup 0 subtable" uni06AB.ini dx=0 dy=0 dh=0 dv=0 dx=0 dy=0 dh=260 dv=0
PairPos2: "'kern' Horizontal Kerning in Arabic lookup 0 subtable" uniFB90 dx=0 dy=0 dh=0 dv=0 dx=0 dy=0 dh=260 dv=0
PairPos2: "'kern' Horizontal Kerning in Arabic lookup 0 subtable" uniFEDB dx=0 dy=0 dh=0 dv=0 dx=0 dy=0 dh=260 dv=0
PairPos2: "'kern' Horizontal Kerning in Arabic lookup 0 subtable" uni0671 dx=0 dy=0 dh=0 dv=0 dx=0 dy=0 dh=208 dv=0
PairPos2: "'kern' Horizontal Kerning in Arabic lookup 0 subtable" afii57410 dx=0 dy=0 dh=0 dv=0 dx=0 dy=0 dh=208 dv=0
PairPos2: "'kern' Horizontal Kerning in Arabic lookup 0 subtable" afii57415 dx=0 dy=0 dh=0 dv=0 dx=0 dy=0 dh=52 dv=0
EndChar

StartChar: quotesingle
Encoding: 39 39 10
Width: 369
GlyphClass: 2
Flags: W
LayerCount: 2
Fore
SplineSet
-19 1288 m 0,0,1
 -17 1280 -17 1280 -16 1268 c 128,-1,2
 -15 1256 -15 1256 -12 1233 c 0,3,4
 -1 1126 -1 1126 10.5 1013 c 128,-1,5
 22 900 22 900 32 793 c 1,6,-1
 -6 793 l 1,7,-1
 -144 1200 l 2,8,9
 -152 1225 -152 1225 -160 1249 c 128,-1,10
 -168 1273 -168 1273 -173 1298 c 0,11,12
 -176 1313 -176 1313 -177 1328.5 c 128,-1,13
 -178 1344 -178 1344 -173 1356.5 c 128,-1,14
 -168 1369 -168 1369 -154 1376.5 c 128,-1,15
 -140 1384 -140 1384 -116 1384 c 0,16,17
 -68 1384 -68 1384 -48 1358.5 c 128,-1,18
 -28 1333 -28 1333 -19 1288 c 0,0,1
EndSplineSet
PairPos2: "'kern' Horizontal Kerning in Arabic lookup 0 subtable" afii57509 dx=0 dy=0 dh=0 dv=0 dx=0 dy=0 dh=260 dv=0
PairPos2: "'kern' Horizontal Kerning in Arabic lookup 0 subtable" uni06AB dx=0 dy=0 dh=0 dv=0 dx=0 dy=0 dh=260 dv=0
PairPos2: "'kern' Horizontal Kerning in Arabic lookup 0 subtable" uni06A9 dx=0 dy=0 dh=0 dv=0 dx=0 dy=0 dh=260 dv=0
PairPos2: "'kern' Horizontal Kerning in Arabic lookup 0 subtable" uniFB94 dx=0 dy=0 dh=0 dv=0 dx=0 dy=0 dh=260 dv=0
PairPos2: "'kern' Horizontal Kerning in Arabic lookup 0 subtable" uniFBD5 dx=0 dy=0 dh=0 dv=0 dx=0 dy=0 dh=260 dv=0
PairPos2: "'kern' Horizontal Kerning in Arabic lookup 0 subtable" uni06AB.ini dx=0 dy=0 dh=0 dv=0 dx=0 dy=0 dh=260 dv=0
PairPos2: "'kern' Horizontal Kerning in Arabic lookup 0 subtable" uniFB90 dx=0 dy=0 dh=0 dv=0 dx=0 dy=0 dh=260 dv=0
PairPos2: "'kern' Horizontal Kerning in Arabic lookup 0 subtable" uniFEDB dx=0 dy=0 dh=0 dv=0 dx=0 dy=0 dh=260 dv=0
PairPos2: "'kern' Horizontal Kerning in Arabic lookup 0 subtable" uni0671 dx=0 dy=0 dh=0 dv=0 dx=0 dy=0 dh=208 dv=0
PairPos2: "'kern' Horizontal Kerning in Arabic lookup 0 subtable" afii57410 dx=0 dy=0 dh=0 dv=0 dx=0 dy=0 dh=208 dv=0
PairPos2: "'kern' Horizontal Kerning in Arabic lookup 0 subtable" afii57415 dx=0 dy=0 dh=0 dv=0 dx=0 dy=0 dh=52 dv=0
EndChar

StartChar: parenleft
Encoding: 40 40 11
Width: 694
GlyphClass: 2
Flags: W
LayerCount: 2
Fore
SplineSet
688 -529 m 0,0,1
 711 -549 711 -549 715 -568 c 0,2,3
 718 -584 718 -584 703 -584 c 0,4,5
 690 -584 690 -584 674 -571 c 0,6,7
 625 -538 625 -538 573.5 -495.5 c 128,-1,8
 522 -453 522 -453 472 -402.5 c 128,-1,9
 422 -352 422 -352 374 -295.5 c 128,-1,10
 326 -239 326 -239 283 -178 c 0,11,12
 235 -107 235 -107 192 -29.5 c 128,-1,13
 149 48 149 48 112.5 128.5 c 128,-1,14
 76 209 76 209 48.5 290.5 c 128,-1,15
 21 372 21 372 4 451 c 0,16,17
 -28 603 -28 603 -23.5 757.5 c 128,-1,18
 -19 912 -19 912 21 1064 c 0,19,20
 56 1198 56 1198 112.5 1302.5 c 128,-1,21
 169 1407 169 1407 240 1473 c 0,22,23
 259 1490 259 1490 266 1490 c 0,24,25
 277 1490 277 1490 280 1479 c 0,26,27
 283 1465 283 1465 271 1433 c 0,28,29
 171 1171 171 1171 144 927 c 128,-1,30
 117 683 117 683 166 451 c 0,31,32
 196 309 196 309 251.5 165.5 c 128,-1,33
 307 22 307 22 386 -121 c 0,34,35
 457 -246 457 -246 533 -349 c 128,-1,36
 609 -452 609 -452 688 -529 c 0,0,1
EndSplineSet
Substitution2: "Single Substitution lookup 34 subtable" zerowidthspace
PairPos2: "'kern' Horizontal Kerning in Arabic lookup 0 subtable" afii57509 dx=0 dy=0 dh=0 dv=0 dx=0 dy=0 dh=260 dv=0
PairPos2: "'kern' Horizontal Kerning in Arabic lookup 0 subtable" uni06AB dx=0 dy=0 dh=0 dv=0 dx=0 dy=0 dh=260 dv=0
PairPos2: "'kern' Horizontal Kerning in Arabic lookup 0 subtable" uni06A9 dx=0 dy=0 dh=0 dv=0 dx=0 dy=0 dh=260 dv=0
PairPos2: "'kern' Horizontal Kerning in Arabic lookup 0 subtable" uniFB94 dx=0 dy=0 dh=0 dv=0 dx=0 dy=0 dh=260 dv=0
PairPos2: "'kern' Horizontal Kerning in Arabic lookup 0 subtable" uniFBD5 dx=0 dy=0 dh=0 dv=0 dx=0 dy=0 dh=260 dv=0
PairPos2: "'kern' Horizontal Kerning in Arabic lookup 0 subtable" uni06AB.ini dx=0 dy=0 dh=0 dv=0 dx=0 dy=0 dh=260 dv=0
PairPos2: "'kern' Horizontal Kerning in Arabic lookup 0 subtable" uniFB90 dx=0 dy=0 dh=0 dv=0 dx=0 dy=0 dh=260 dv=0
PairPos2: "'kern' Horizontal Kerning in Arabic lookup 0 subtable" uniFEDB dx=0 dy=0 dh=0 dv=0 dx=0 dy=0 dh=260 dv=0
PairPos2: "'kern' Horizontal Kerning in Arabic lookup 0 subtable" uni0671 dx=0 dy=0 dh=0 dv=0 dx=0 dy=0 dh=208 dv=0
PairPos2: "'kern' Horizontal Kerning in Arabic lookup 0 subtable" afii57410 dx=0 dy=0 dh=0 dv=0 dx=0 dy=0 dh=208 dv=0
PairPos2: "'kern' Horizontal Kerning in Arabic lookup 0 subtable" afii57415 dx=0 dy=0 dh=0 dv=0 dx=0 dy=0 dh=52 dv=0
EndChar

StartChar: parenright
Encoding: 41 41 12
Width: 793
GlyphClass: 2
Flags: W
LayerCount: 2
Fore
SplineSet
-190 1437 m 0,0,1
 -211 1460 -211 1460 -214 1476 c 0,2,3
 -217 1491 -217 1491 -206 1491 c 0,4,5
 -192 1491 -192 1491 -173 1479 c 0,6,7
 -70 1413 -70 1413 28.5 1313.5 c 128,-1,8
 127 1214 127 1214 218 1083 c 0,9,10
 316 940 316 940 389 778 c 128,-1,11
 462 616 462 616 497 454 c 0,12,13
 562 148 562 148 480 -158 c 0,14,15
 442 -295 442 -295 387 -397 c 128,-1,16
 332 -499 332 -499 261 -565 c 0,17,18
 252 -574 252 -574 246 -579.5 c 128,-1,19
 240 -585 240 -585 231 -584 c 0,20,21
 224 -584 224 -584 222 -571 c 0,22,23
 220 -564 220 -564 221 -552.5 c 128,-1,24
 222 -541 222 -541 227 -527 c 0,25,26
 329 -264 329 -264 356 -21 c 128,-1,27
 383 222 383 222 335 454 c 0,28,29
 274 738 274 738 111 1027 c 0,30,31
 40 1154 40 1154 -33.5 1256 c 128,-1,32
 -107 1358 -107 1358 -190 1437 c 0,0,1
EndSplineSet
Substitution2: "Single Substitution lookup 34 subtable" zerowidthspace
PairPos2: "'kern' Horizontal Kerning in Arabic lookup 0 subtable" afii57509 dx=0 dy=0 dh=0 dv=0 dx=0 dy=0 dh=260 dv=0
PairPos2: "'kern' Horizontal Kerning in Arabic lookup 0 subtable" uni06AB dx=0 dy=0 dh=0 dv=0 dx=0 dy=0 dh=260 dv=0
PairPos2: "'kern' Horizontal Kerning in Arabic lookup 0 subtable" uni06A9 dx=0 dy=0 dh=0 dv=0 dx=0 dy=0 dh=260 dv=0
PairPos2: "'kern' Horizontal Kerning in Arabic lookup 0 subtable" uniFB94 dx=0 dy=0 dh=0 dv=0 dx=0 dy=0 dh=260 dv=0
PairPos2: "'kern' Horizontal Kerning in Arabic lookup 0 subtable" uniFBD5 dx=0 dy=0 dh=0 dv=0 dx=0 dy=0 dh=260 dv=0
PairPos2: "'kern' Horizontal Kerning in Arabic lookup 0 subtable" uni06AB.ini dx=0 dy=0 dh=0 dv=0 dx=0 dy=0 dh=260 dv=0
PairPos2: "'kern' Horizontal Kerning in Arabic lookup 0 subtable" uniFB90 dx=0 dy=0 dh=0 dv=0 dx=0 dy=0 dh=260 dv=0
PairPos2: "'kern' Horizontal Kerning in Arabic lookup 0 subtable" uniFEDB dx=0 dy=0 dh=0 dv=0 dx=0 dy=0 dh=260 dv=0
PairPos2: "'kern' Horizontal Kerning in Arabic lookup 0 subtable" uni0671 dx=0 dy=0 dh=0 dv=0 dx=0 dy=0 dh=208 dv=0
PairPos2: "'kern' Horizontal Kerning in Arabic lookup 0 subtable" afii57410 dx=0 dy=0 dh=0 dv=0 dx=0 dy=0 dh=208 dv=0
PairPos2: "'kern' Horizontal Kerning in Arabic lookup 0 subtable" afii57415 dx=0 dy=0 dh=0 dv=0 dx=0 dy=0 dh=52 dv=0
EndChar

StartChar: asterisk
Encoding: 42 42 13
Width: 1024
GlyphClass: 2
Flags: W
LayerCount: 2
Fore
SplineSet
49 879 m 0,0,1
 125 896 125 896 178.5 917.5 c 128,-1,2
 232 939 232 939 267 964 c 1,3,4
 222 987 222 987 157 1009.5 c 128,-1,5
 92 1032 92 1032 9 1052 c 0,6,7
 -94 1077 -94 1077 -107 1138 c 0,8,9
 -114 1173 -114 1173 -97.5 1192 c 128,-1,10
 -81 1211 -81 1211 -52 1211 c 0,11,12
 -9 1211 -9 1211 71 1135 c 0,13,14
 151 1061 151 1061 275 997 c 1,15,-1
 270 1021 l 2,16,17
 252 1104 252 1104 208 1186 c 0,18,19
 164 1270 164 1270 157 1303 c 0,20,21
 149 1343 149 1343 166 1363.5 c 128,-1,22
 183 1384 183 1384 214 1384 c 0,23,24
 250 1384 250 1384 273.5 1361 c 128,-1,25
 297 1338 297 1338 304 1302 c 0,26,27
 310 1277 310 1277 299 1193 c 0,28,29
 295 1150 295 1150 299 1101 c 128,-1,30
 303 1052 303 1052 316 992 c 1,31,32
 354 1025 354 1025 372.5 1041 c 128,-1,33
 391 1057 391 1057 401 1066 c 128,-1,34
 411 1075 411 1075 416 1082.5 c 128,-1,35
 421 1090 421 1090 433 1107 c 0,36,37
 487 1185 487 1185 503 1200 c 0,38,39
 519 1214 519 1214 550 1214 c 256,40,41
 581 1214 581 1214 605 1192 c 128,-1,42
 629 1170 629 1170 636 1138 c 0,43,44
 650 1075 650 1075 564 1056 c 0,45,46
 494 1040 494 1040 439 1016.5 c 128,-1,47
 384 993 384 993 341 962 c 1,48,-1
 358 953 l 2,49,50
 379 943 379 943 407 932 c 128,-1,51
 435 921 435 921 467.5 910.5 c 128,-1,52
 500 900 500 900 535 891 c 128,-1,53
 570 882 570 882 605 875 c 0,54,55
 697 856 697 856 712 787 c 0,56,57
 716 768 716 768 712 754 c 128,-1,58
 708 740 708 740 698.5 731 c 128,-1,59
 689 722 689 722 676 718 c 128,-1,60
 663 714 663 714 650 714 c 0,61,62
 607 714 607 714 518 800 c 0,63,64
 470 845 470 845 427.5 876 c 128,-1,65
 385 907 385 907 343 925 c 2,66,-1
 329 932 l 1,67,-1
 332 919 l 2,68,69
 358 800 358 800 402 722 c 0,70,71
 447 643 447 643 452 626 c 0,72,73
 458 592 458 592 441 566.5 c 128,-1,74
 424 541 424 541 387 541 c 0,75,76
 353 541 353 541 329 565 c 128,-1,77
 305 589 305 589 297 624 c 0,78,79
 296 629 296 629 298 660.5 c 128,-1,80
 300 692 300 692 305 749 c 0,81,82
 308 791 308 791 307.5 827 c 128,-1,83
 307 863 307 863 301 889 c 0,84,85
 296 912 296 912 287 932 c 1,86,87
 214 887 214 887 157 801 c 0,88,89
 102 717 102 717 54 717 c 0,90,91
 17 717 17 717 -4.5 738.5 c 128,-1,92
 -26 760 -26 760 -32 784 c 0,93,94
 -47 857 -47 857 49 879 c 0,0,1
EndSplineSet
PairPos2: "'kern' Horizontal Kerning in Arabic lookup 0 subtable" afii57509 dx=0 dy=0 dh=0 dv=0 dx=0 dy=0 dh=260 dv=0
PairPos2: "'kern' Horizontal Kerning in Arabic lookup 0 subtable" uni06AB dx=0 dy=0 dh=0 dv=0 dx=0 dy=0 dh=260 dv=0
PairPos2: "'kern' Horizontal Kerning in Arabic lookup 0 subtable" uni06A9 dx=0 dy=0 dh=0 dv=0 dx=0 dy=0 dh=260 dv=0
PairPos2: "'kern' Horizontal Kerning in Arabic lookup 0 subtable" uniFB94 dx=0 dy=0 dh=0 dv=0 dx=0 dy=0 dh=260 dv=0
PairPos2: "'kern' Horizontal Kerning in Arabic lookup 0 subtable" uniFBD5 dx=0 dy=0 dh=0 dv=0 dx=0 dy=0 dh=260 dv=0
PairPos2: "'kern' Horizontal Kerning in Arabic lookup 0 subtable" uni06AB.ini dx=0 dy=0 dh=0 dv=0 dx=0 dy=0 dh=260 dv=0
PairPos2: "'kern' Horizontal Kerning in Arabic lookup 0 subtable" uniFB90 dx=0 dy=0 dh=0 dv=0 dx=0 dy=0 dh=260 dv=0
PairPos2: "'kern' Horizontal Kerning in Arabic lookup 0 subtable" uniFEDB dx=0 dy=0 dh=0 dv=0 dx=0 dy=0 dh=260 dv=0
PairPos2: "'kern' Horizontal Kerning in Arabic lookup 0 subtable" uni0671 dx=0 dy=0 dh=0 dv=0 dx=0 dy=0 dh=208 dv=0
PairPos2: "'kern' Horizontal Kerning in Arabic lookup 0 subtable" afii57410 dx=0 dy=0 dh=0 dv=0 dx=0 dy=0 dh=208 dv=0
PairPos2: "'kern' Horizontal Kerning in Arabic lookup 0 subtable" afii57415 dx=0 dy=0 dh=0 dv=0 dx=0 dy=0 dh=52 dv=0
EndChar

StartChar: plus
Encoding: 43 43 14
Width: 1050
GlyphClass: 2
Flags: W
LayerCount: 2
Fore
SplineSet
235 1036 m 1,0,-1
 377 1036 l 1,1,-1
 472 588 l 1,2,-1
 917 588 l 1,3,-1
 947 446 l 1,4,-1
 502 446 l 1,5,-1
 597 0 l 1,6,-1
 455 0 l 1,7,-1
 360 446 l 1,8,-1
 -87 446 l 1,9,-1
 -117 588 l 1,10,-1
 330 588 l 1,11,-1
 235 1036 l 1,0,-1
EndSplineSet
PairPos2: "'kern' Horizontal Kerning in Arabic lookup 0 subtable" afii57509 dx=0 dy=0 dh=0 dv=0 dx=0 dy=0 dh=260 dv=0
PairPos2: "'kern' Horizontal Kerning in Arabic lookup 0 subtable" uni06AB dx=0 dy=0 dh=0 dv=0 dx=0 dy=0 dh=260 dv=0
PairPos2: "'kern' Horizontal Kerning in Arabic lookup 0 subtable" uni06A9 dx=0 dy=0 dh=0 dv=0 dx=0 dy=0 dh=260 dv=0
PairPos2: "'kern' Horizontal Kerning in Arabic lookup 0 subtable" uniFB94 dx=0 dy=0 dh=0 dv=0 dx=0 dy=0 dh=260 dv=0
PairPos2: "'kern' Horizontal Kerning in Arabic lookup 0 subtable" uniFBD5 dx=0 dy=0 dh=0 dv=0 dx=0 dy=0 dh=260 dv=0
PairPos2: "'kern' Horizontal Kerning in Arabic lookup 0 subtable" uni06AB.ini dx=0 dy=0 dh=0 dv=0 dx=0 dy=0 dh=260 dv=0
PairPos2: "'kern' Horizontal Kerning in Arabic lookup 0 subtable" uniFB90 dx=0 dy=0 dh=0 dv=0 dx=0 dy=0 dh=260 dv=0
PairPos2: "'kern' Horizontal Kerning in Arabic lookup 0 subtable" uniFEDB dx=0 dy=0 dh=0 dv=0 dx=0 dy=0 dh=260 dv=0
PairPos2: "'kern' Horizontal Kerning in Arabic lookup 0 subtable" uni0671 dx=0 dy=0 dh=0 dv=0 dx=0 dy=0 dh=208 dv=0
PairPos2: "'kern' Horizontal Kerning in Arabic lookup 0 subtable" afii57410 dx=0 dy=0 dh=0 dv=0 dx=0 dy=0 dh=208 dv=0
PairPos2: "'kern' Horizontal Kerning in Arabic lookup 0 subtable" afii57415 dx=0 dy=0 dh=0 dv=0 dx=0 dy=0 dh=52 dv=0
EndChar

StartChar: comma
Encoding: 44 44 15
Width: 512
GlyphClass: 2
Flags: W
LayerCount: 2
Fore
SplineSet
221 -251 m 1,0,1
 263 -224 263 -224 289 -193.5 c 128,-1,2
 315 -163 315 -163 328 -133 c 128,-1,3
 341 -103 341 -103 344 -76 c 128,-1,4
 347 -49 347 -49 342 -29 c 0,5,6
 339 -15 339 -15 330 -11.5 c 128,-1,7
 321 -8 321 -8 311 -8 c 0,8,9
 294 -8 294 -8 278 -11.5 c 128,-1,10
 262 -15 262 -15 245 -15 c 0,11,12
 224 -15 224 -15 202 -8 c 128,-1,13
 180 -1 180 -1 161.5 12.5 c 128,-1,14
 143 26 143 26 129 46 c 128,-1,15
 115 66 115 66 110 93 c 0,16,17
 105 113 105 113 107.5 133.5 c 128,-1,18
 110 154 110 154 121 171 c 128,-1,19
 132 188 132 188 154 199 c 128,-1,20
 176 210 176 210 210 210 c 0,21,22
 242 210 242 210 274 197.5 c 128,-1,23
 306 185 306 185 333.5 161 c 128,-1,24
 361 137 361 137 383 102 c 128,-1,25
 405 67 405 67 414 22 c 0,26,27
 435 -81 435 -81 381 -167 c 0,28,29
 324 -254 324 -254 249 -292 c 1,30,-1
 221 -251 l 1,0,1
EndSplineSet
PairPos2: "'kern' Horizontal Kerning in Arabic lookup 0 subtable" afii57509 dx=0 dy=0 dh=0 dv=0 dx=0 dy=0 dh=260 dv=0
PairPos2: "'kern' Horizontal Kerning in Arabic lookup 0 subtable" uni06AB dx=0 dy=0 dh=0 dv=0 dx=0 dy=0 dh=260 dv=0
PairPos2: "'kern' Horizontal Kerning in Arabic lookup 0 subtable" uni06A9 dx=0 dy=0 dh=0 dv=0 dx=0 dy=0 dh=260 dv=0
PairPos2: "'kern' Horizontal Kerning in Arabic lookup 0 subtable" uniFB94 dx=0 dy=0 dh=0 dv=0 dx=0 dy=0 dh=260 dv=0
PairPos2: "'kern' Horizontal Kerning in Arabic lookup 0 subtable" uniFBD5 dx=0 dy=0 dh=0 dv=0 dx=0 dy=0 dh=260 dv=0
PairPos2: "'kern' Horizontal Kerning in Arabic lookup 0 subtable" uni06AB.ini dx=0 dy=0 dh=0 dv=0 dx=0 dy=0 dh=260 dv=0
PairPos2: "'kern' Horizontal Kerning in Arabic lookup 0 subtable" uniFB90 dx=0 dy=0 dh=0 dv=0 dx=0 dy=0 dh=260 dv=0
PairPos2: "'kern' Horizontal Kerning in Arabic lookup 0 subtable" uniFEDB dx=0 dy=0 dh=0 dv=0 dx=0 dy=0 dh=260 dv=0
PairPos2: "'kern' Horizontal Kerning in Arabic lookup 0 subtable" uni0671 dx=0 dy=0 dh=0 dv=0 dx=0 dy=0 dh=208 dv=0
PairPos2: "'kern' Horizontal Kerning in Arabic lookup 0 subtable" afii57410 dx=0 dy=0 dh=0 dv=0 dx=0 dy=0 dh=208 dv=0
PairPos2: "'kern' Horizontal Kerning in Arabic lookup 0 subtable" afii57415 dx=0 dy=0 dh=0 dv=0 dx=0 dy=0 dh=52 dv=0
EndChar

StartChar: hyphen
Encoding: 45 45 16
AltUni2: 002212.ffffffff.0 0000ad.ffffffff.0
Width: 1050
GlyphClass: 2
Flags: W
LayerCount: 2
Fore
SplineSet
805 588 m 1,0,-1
 835 446 l 1,1,-1
 25 446 l 1,2,-1
 -5 588 l 1,3,-1
 805 588 l 1,0,-1
EndSplineSet
Substitution2: "<17011,16011>  in Arabic lookup 68 nested-substitutions 0 subtable" hyphenlow
Substitution2: "<17010,16010>  in Arabic lookup 66 nested-substitutions 0 subtable" hyphenlow
Substitution2: "Single Substitution lookup 34 subtable" hyphenlow
PairPos2: "'kern' Horizontal Kerning in Arabic lookup 0 subtable" afii57509 dx=0 dy=0 dh=0 dv=0 dx=0 dy=0 dh=260 dv=0
PairPos2: "'kern' Horizontal Kerning in Arabic lookup 0 subtable" uni06AB dx=0 dy=0 dh=0 dv=0 dx=0 dy=0 dh=260 dv=0
PairPos2: "'kern' Horizontal Kerning in Arabic lookup 0 subtable" uni06A9 dx=0 dy=0 dh=0 dv=0 dx=0 dy=0 dh=260 dv=0
PairPos2: "'kern' Horizontal Kerning in Arabic lookup 0 subtable" uniFB94 dx=0 dy=0 dh=0 dv=0 dx=0 dy=0 dh=260 dv=0
PairPos2: "'kern' Horizontal Kerning in Arabic lookup 0 subtable" uniFBD5 dx=0 dy=0 dh=0 dv=0 dx=0 dy=0 dh=260 dv=0
PairPos2: "'kern' Horizontal Kerning in Arabic lookup 0 subtable" uni06AB.ini dx=0 dy=0 dh=0 dv=0 dx=0 dy=0 dh=260 dv=0
PairPos2: "'kern' Horizontal Kerning in Arabic lookup 0 subtable" uniFB90 dx=0 dy=0 dh=0 dv=0 dx=0 dy=0 dh=260 dv=0
PairPos2: "'kern' Horizontal Kerning in Arabic lookup 0 subtable" uniFEDB dx=0 dy=0 dh=0 dv=0 dx=0 dy=0 dh=260 dv=0
PairPos2: "'kern' Horizontal Kerning in Arabic lookup 0 subtable" uni0671 dx=0 dy=0 dh=0 dv=0 dx=0 dy=0 dh=208 dv=0
PairPos2: "'kern' Horizontal Kerning in Arabic lookup 0 subtable" afii57410 dx=0 dy=0 dh=0 dv=0 dx=0 dy=0 dh=208 dv=0
PairPos2: "'kern' Horizontal Kerning in Arabic lookup 0 subtable" afii57415 dx=0 dy=0 dh=0 dv=0 dx=0 dy=0 dh=52 dv=0
EndChar

StartChar: period
Encoding: 46 46 17
Width: 529
GlyphClass: 2
Flags: W
LayerCount: 2
Fore
SplineSet
276 251 m 0,0,1
 280 230 280 230 276 209 c 128,-1,2
 272 188 272 188 260.5 172 c 128,-1,3
 249 156 249 156 230.5 146 c 128,-1,4
 212 136 212 136 188 136 c 0,5,6
 166 136 166 136 143 145 c 128,-1,7
 120 154 120 154 100.5 169 c 128,-1,8
 81 184 81 184 66.5 204.5 c 128,-1,9
 52 225 52 225 48 248 c 0,10,11
 42 273 42 273 47.5 294.5 c 128,-1,12
 53 316 53 316 65.5 332 c 128,-1,13
 78 348 78 348 97.5 357 c 128,-1,14
 117 366 117 366 139 366 c 0,15,16
 162 366 162 366 184.5 357 c 128,-1,17
 207 348 207 348 225.5 332.5 c 128,-1,18
 244 317 244 317 257.5 296 c 128,-1,19
 271 275 271 275 276 251 c 0,0,1
EndSplineSet
Substitution2: "<17016,16016> Urdu Swash lookup 75 subtable" uni06D4
Substitution2: "<17012,16012> Period to Comma in Arabic lookup 70 nested-substitutions 0 subtable" uni066C
Substitution2: "Single Substitution lookup 34 subtable" uni066C
Substitution2: "'salt' Stylistic Alternatives in Arabic lookup 28 subtable" uni06D4
PairPos2: "'kern' Horizontal Kerning in Arabic lookup 0 subtable" afii57509 dx=0 dy=0 dh=0 dv=0 dx=0 dy=0 dh=260 dv=0
PairPos2: "'kern' Horizontal Kerning in Arabic lookup 0 subtable" uni06AB dx=0 dy=0 dh=0 dv=0 dx=0 dy=0 dh=260 dv=0
PairPos2: "'kern' Horizontal Kerning in Arabic lookup 0 subtable" uni06A9 dx=0 dy=0 dh=0 dv=0 dx=0 dy=0 dh=260 dv=0
PairPos2: "'kern' Horizontal Kerning in Arabic lookup 0 subtable" uniFB94 dx=0 dy=0 dh=0 dv=0 dx=0 dy=0 dh=260 dv=0
PairPos2: "'kern' Horizontal Kerning in Arabic lookup 0 subtable" uniFBD5 dx=0 dy=0 dh=0 dv=0 dx=0 dy=0 dh=260 dv=0
PairPos2: "'kern' Horizontal Kerning in Arabic lookup 0 subtable" uni06AB.ini dx=0 dy=0 dh=0 dv=0 dx=0 dy=0 dh=260 dv=0
PairPos2: "'kern' Horizontal Kerning in Arabic lookup 0 subtable" uniFB90 dx=0 dy=0 dh=0 dv=0 dx=0 dy=0 dh=260 dv=0
PairPos2: "'kern' Horizontal Kerning in Arabic lookup 0 subtable" uniFEDB dx=0 dy=0 dh=0 dv=0 dx=0 dy=0 dh=260 dv=0
PairPos2: "'kern' Horizontal Kerning in Arabic lookup 0 subtable" uni0671 dx=0 dy=0 dh=0 dv=0 dx=0 dy=0 dh=208 dv=0
PairPos2: "'kern' Horizontal Kerning in Arabic lookup 0 subtable" afii57410 dx=0 dy=0 dh=0 dv=0 dx=0 dy=0 dh=208 dv=0
PairPos2: "'kern' Horizontal Kerning in Arabic lookup 0 subtable" afii57415 dx=0 dy=0 dh=0 dv=0 dx=0 dy=0 dh=52 dv=0
EndChar

StartChar: slash
Encoding: 47 47 18
Width: 569
GlyphClass: 2
Flags: W
LayerCount: 2
Fore
SplineSet
163 1384 m 1,0,-1
 265 1384 l 1,1,-1
 114 -34 l 1,2,-1
 10 -34 l 1,3,-1
 163 1384 l 1,0,-1
EndSplineSet
Substitution2: "<17016,16016> Urdu Swash lookup 75 subtable" slash
PairPos2: "'kern' Horizontal Kerning in Arabic lookup 0 subtable" afii57509 dx=0 dy=0 dh=0 dv=0 dx=0 dy=0 dh=260 dv=0
PairPos2: "'kern' Horizontal Kerning in Arabic lookup 0 subtable" uni06AB dx=0 dy=0 dh=0 dv=0 dx=0 dy=0 dh=260 dv=0
PairPos2: "'kern' Horizontal Kerning in Arabic lookup 0 subtable" uni06A9 dx=0 dy=0 dh=0 dv=0 dx=0 dy=0 dh=260 dv=0
PairPos2: "'kern' Horizontal Kerning in Arabic lookup 0 subtable" uniFB94 dx=0 dy=0 dh=0 dv=0 dx=0 dy=0 dh=260 dv=0
PairPos2: "'kern' Horizontal Kerning in Arabic lookup 0 subtable" uniFBD5 dx=0 dy=0 dh=0 dv=0 dx=0 dy=0 dh=260 dv=0
PairPos2: "'kern' Horizontal Kerning in Arabic lookup 0 subtable" uni06AB.ini dx=0 dy=0 dh=0 dv=0 dx=0 dy=0 dh=260 dv=0
PairPos2: "'kern' Horizontal Kerning in Arabic lookup 0 subtable" uniFB90 dx=0 dy=0 dh=0 dv=0 dx=0 dy=0 dh=260 dv=0
PairPos2: "'kern' Horizontal Kerning in Arabic lookup 0 subtable" uniFEDB dx=0 dy=0 dh=0 dv=0 dx=0 dy=0 dh=260 dv=0
PairPos2: "'kern' Horizontal Kerning in Arabic lookup 0 subtable" uni0671 dx=0 dy=0 dh=0 dv=0 dx=0 dy=0 dh=208 dv=0
PairPos2: "'kern' Horizontal Kerning in Arabic lookup 0 subtable" afii57410 dx=0 dy=0 dh=0 dv=0 dx=0 dy=0 dh=208 dv=0
PairPos2: "'kern' Horizontal Kerning in Arabic lookup 0 subtable" afii57415 dx=0 dy=0 dh=0 dv=0 dx=0 dy=0 dh=52 dv=0
EndChar

StartChar: zero
Encoding: 48 48 19
Width: 1024
GlyphClass: 2
Flags: W
LayerCount: 2
Fore
SplineSet
605 664 m 0,0,1
 579 785 579 785 550 882 c 128,-1,2
 521 979 521 979 489 1052 c 0,3,4
 430 1180 430 1180 357 1250 c 128,-1,5
 284 1320 284 1320 201 1320 c 0,6,7
 68 1320 68 1320 38 1150 c 128,-1,8
 8 980 8 980 78 654 c 0,9,10
 143 347 143 347 243 193 c 128,-1,11
 343 39 343 39 481 39 c 0,12,13
 555 39 555 39 596 80.5 c 128,-1,14
 637 122 637 122 649.5 201.5 c 128,-1,15
 662 281 662 281 649 397.5 c 128,-1,16
 636 514 636 514 605 664 c 0,0,1
603 1134 m 0,17,18
 745 940 745 940 799 687 c 0,19,20
 841 488 841 488 816 313 c 0,21,22
 772 -19 772 -19 482 -19 c 0,23,24
 380 -19 380 -19 284 31.5 c 128,-1,25
 188 82 188 82 108 173.5 c 128,-1,26
 28 265 28 265 -32.5 394 c 128,-1,27
 -93 523 -93 523 -127 679 c 0,28,29
 -154 807 -154 807 -154.5 918.5 c 128,-1,30
 -155 1030 -155 1030 -130 1122 c 0,31,32
 -95 1247 -95 1247 -14.5 1311.5 c 128,-1,33
 66 1376 66 1376 194 1376 c 0,34,35
 424 1376 424 1376 603 1134 c 0,17,18
EndSplineSet
Substitution2: "<17016,16016> Urdu Swash lookup 75 subtable" zero
PairPos2: "'kern' Horizontal Kerning in Arabic lookup 0 subtable" afii57509 dx=0 dy=0 dh=0 dv=0 dx=0 dy=0 dh=260 dv=0
PairPos2: "'kern' Horizontal Kerning in Arabic lookup 0 subtable" uni06AB dx=0 dy=0 dh=0 dv=0 dx=0 dy=0 dh=260 dv=0
PairPos2: "'kern' Horizontal Kerning in Arabic lookup 0 subtable" uni06A9 dx=0 dy=0 dh=0 dv=0 dx=0 dy=0 dh=260 dv=0
PairPos2: "'kern' Horizontal Kerning in Arabic lookup 0 subtable" uniFB94 dx=0 dy=0 dh=0 dv=0 dx=0 dy=0 dh=260 dv=0
PairPos2: "'kern' Horizontal Kerning in Arabic lookup 0 subtable" uniFBD5 dx=0 dy=0 dh=0 dv=0 dx=0 dy=0 dh=260 dv=0
PairPos2: "'kern' Horizontal Kerning in Arabic lookup 0 subtable" uni06AB.ini dx=0 dy=0 dh=0 dv=0 dx=0 dy=0 dh=260 dv=0
PairPos2: "'kern' Horizontal Kerning in Arabic lookup 0 subtable" uniFB90 dx=0 dy=0 dh=0 dv=0 dx=0 dy=0 dh=260 dv=0
PairPos2: "'kern' Horizontal Kerning in Arabic lookup 0 subtable" uniFEDB dx=0 dy=0 dh=0 dv=0 dx=0 dy=0 dh=260 dv=0
PairPos2: "'kern' Horizontal Kerning in Arabic lookup 0 subtable" uni0671 dx=0 dy=0 dh=0 dv=0 dx=0 dy=0 dh=208 dv=0
PairPos2: "'kern' Horizontal Kerning in Arabic lookup 0 subtable" afii57410 dx=0 dy=0 dh=0 dv=0 dx=0 dy=0 dh=208 dv=0
PairPos2: "'kern' Horizontal Kerning in Arabic lookup 0 subtable" afii57415 dx=0 dy=0 dh=0 dv=0 dx=0 dy=0 dh=52 dv=0
EndChar

StartChar: one
Encoding: 49 49 20
Width: 1024
GlyphClass: 2
Flags: W
LayerCount: 2
Fore
SplineSet
580 152 m 2,0,1
 588 114 588 114 601.5 91 c 128,-1,2
 615 68 615 68 640 55 c 128,-1,3
 665 42 665 42 704 37 c 128,-1,4
 743 32 743 32 799 30 c 1,5,-1
 806 0 l 1,6,-1
 240 0 l 1,7,-1
 234 32 l 1,8,9
 294 35 294 35 330.5 42 c 128,-1,10
 367 49 367 49 385 65 c 128,-1,11
 403 81 403 81 404.5 108.5 c 128,-1,12
 406 136 406 136 396 181 c 2,13,-1
 200 1105 l 2,14,15
 190 1153 190 1153 172.5 1177.5 c 128,-1,16
 155 1202 155 1202 116 1202 c 0,17,18
 103 1202 103 1202 86.5 1198 c 128,-1,19
 70 1194 70 1194 51.5 1187.5 c 128,-1,20
 33 1181 33 1181 15 1173 c 128,-1,21
 -3 1165 -3 1165 -20 1157 c 1,22,-1
 -26 1186 l 1,23,-1
 302 1374 l 1,24,-1
 315 1374 l 1,25,26
 320 1369 320 1369 321 1366.5 c 128,-1,27
 322 1364 322 1364 325 1354 c 2,28,-1
 580 152 l 2,0,1
EndSplineSet
Substitution2: "<17016,16016> Urdu Swash lookup 75 subtable" one
PairPos2: "'kern' Horizontal Kerning in Arabic lookup 0 subtable" afii57509 dx=0 dy=0 dh=0 dv=0 dx=0 dy=0 dh=260 dv=0
PairPos2: "'kern' Horizontal Kerning in Arabic lookup 0 subtable" uni06AB dx=0 dy=0 dh=0 dv=0 dx=0 dy=0 dh=260 dv=0
PairPos2: "'kern' Horizontal Kerning in Arabic lookup 0 subtable" uni06A9 dx=0 dy=0 dh=0 dv=0 dx=0 dy=0 dh=260 dv=0
PairPos2: "'kern' Horizontal Kerning in Arabic lookup 0 subtable" uniFB94 dx=0 dy=0 dh=0 dv=0 dx=0 dy=0 dh=260 dv=0
PairPos2: "'kern' Horizontal Kerning in Arabic lookup 0 subtable" uniFBD5 dx=0 dy=0 dh=0 dv=0 dx=0 dy=0 dh=260 dv=0
PairPos2: "'kern' Horizontal Kerning in Arabic lookup 0 subtable" uni06AB.ini dx=0 dy=0 dh=0 dv=0 dx=0 dy=0 dh=260 dv=0
PairPos2: "'kern' Horizontal Kerning in Arabic lookup 0 subtable" uniFB90 dx=0 dy=0 dh=0 dv=0 dx=0 dy=0 dh=260 dv=0
PairPos2: "'kern' Horizontal Kerning in Arabic lookup 0 subtable" uniFEDB dx=0 dy=0 dh=0 dv=0 dx=0 dy=0 dh=260 dv=0
PairPos2: "'kern' Horizontal Kerning in Arabic lookup 0 subtable" uni0671 dx=0 dy=0 dh=0 dv=0 dx=0 dy=0 dh=208 dv=0
PairPos2: "'kern' Horizontal Kerning in Arabic lookup 0 subtable" afii57410 dx=0 dy=0 dh=0 dv=0 dx=0 dy=0 dh=208 dv=0
PairPos2: "'kern' Horizontal Kerning in Arabic lookup 0 subtable" afii57415 dx=0 dy=0 dh=0 dv=0 dx=0 dy=0 dh=52 dv=0
EndChar

StartChar: two
Encoding: 50 50 21
Width: 1024
GlyphClass: 2
Flags: W
LayerCount: 2
Fore
SplineSet
56 25 m 1,0,1
 199 216 199 216 293 354 c 128,-1,2
 387 492 387 492 434 582 c 0,3,4
 527 761 527 761 491 928 c 0,5,6
 475 1002 475 1002 441 1058.5 c 128,-1,7
 407 1115 407 1115 361.5 1153 c 128,-1,8
 316 1191 316 1191 263 1210 c 128,-1,9
 210 1229 210 1229 157 1229 c 0,10,11
 90 1229 90 1229 40 1203.5 c 128,-1,12
 -10 1178 -10 1178 -43 1129 c 0,13,14
 -60 1102 -60 1102 -73 1059.5 c 128,-1,15
 -86 1017 -86 1017 -96 961 c 1,16,-1
 -143 970 l 1,17,18
 -142 1201 -142 1201 -43 1290 c 0,19,20
 58 1380 58 1380 196 1380 c 0,21,22
 281 1380 281 1380 357 1351 c 128,-1,23
 433 1322 433 1322 493.5 1272 c 128,-1,24
 554 1222 554 1222 595 1155.5 c 128,-1,25
 636 1089 636 1089 653 1013 c 0,26,27
 688 848 688 848 607 696 c 0,28,29
 567 620 567 620 474 486 c 128,-1,30
 381 352 381 352 233 158 c 1,31,-1
 689 158 l 2,32,33
 784 158 784 158 818 181 c 0,34,35
 851 203 851 203 882 293 c 1,36,-1
 912 280 l 1,37,-1
 861 0 l 1,38,-1
 61 0 l 1,39,-1
 56 25 l 1,0,1
EndSplineSet
Substitution2: "<17016,16016> Urdu Swash lookup 75 subtable" two
PairPos2: "'kern' Horizontal Kerning in Arabic lookup 0 subtable" afii57509 dx=0 dy=0 dh=0 dv=0 dx=0 dy=0 dh=260 dv=0
PairPos2: "'kern' Horizontal Kerning in Arabic lookup 0 subtable" uni06AB dx=0 dy=0 dh=0 dv=0 dx=0 dy=0 dh=260 dv=0
PairPos2: "'kern' Horizontal Kerning in Arabic lookup 0 subtable" uni06A9 dx=0 dy=0 dh=0 dv=0 dx=0 dy=0 dh=260 dv=0
PairPos2: "'kern' Horizontal Kerning in Arabic lookup 0 subtable" uniFB94 dx=0 dy=0 dh=0 dv=0 dx=0 dy=0 dh=260 dv=0
PairPos2: "'kern' Horizontal Kerning in Arabic lookup 0 subtable" uniFBD5 dx=0 dy=0 dh=0 dv=0 dx=0 dy=0 dh=260 dv=0
PairPos2: "'kern' Horizontal Kerning in Arabic lookup 0 subtable" uni06AB.ini dx=0 dy=0 dh=0 dv=0 dx=0 dy=0 dh=260 dv=0
PairPos2: "'kern' Horizontal Kerning in Arabic lookup 0 subtable" uniFB90 dx=0 dy=0 dh=0 dv=0 dx=0 dy=0 dh=260 dv=0
PairPos2: "'kern' Horizontal Kerning in Arabic lookup 0 subtable" uniFEDB dx=0 dy=0 dh=0 dv=0 dx=0 dy=0 dh=260 dv=0
PairPos2: "'kern' Horizontal Kerning in Arabic lookup 0 subtable" uni0671 dx=0 dy=0 dh=0 dv=0 dx=0 dy=0 dh=208 dv=0
PairPos2: "'kern' Horizontal Kerning in Arabic lookup 0 subtable" afii57410 dx=0 dy=0 dh=0 dv=0 dx=0 dy=0 dh=208 dv=0
PairPos2: "'kern' Horizontal Kerning in Arabic lookup 0 subtable" afii57415 dx=0 dy=0 dh=0 dv=0 dx=0 dy=0 dh=52 dv=0
EndChar

StartChar: three
Encoding: 51 51 22
Width: 1024
GlyphClass: 2
Flags: W
LayerCount: 2
Fore
SplineSet
444 62 m 0,0,1
 513 62 513 62 560 86 c 128,-1,2
 607 110 607 110 631 156 c 256,3,4
 655 202 655 202 660.5 255 c 128,-1,5
 666 308 666 308 657 360 c 0,6,7
 640 435 640 435 602 495 c 128,-1,8
 564 555 564 555 507.5 597 c 128,-1,9
 451 639 451 639 378 661.5 c 128,-1,10
 305 684 305 684 219 684 c 0,11,12
 205 684 205 684 193 683.5 c 128,-1,13
 181 683 181 683 166 681 c 1,14,-1
 158 709 l 1,15,16
 307 768 307 768 382 842 c 0,17,18
 458 917 458 917 432 1039 c 0,19,20
 420 1093 420 1093 391.5 1134 c 128,-1,21
 363 1175 363 1175 323.5 1203 c 128,-1,22
 284 1231 284 1231 238.5 1245.5 c 128,-1,23
 193 1260 193 1260 148 1260 c 0,24,25
 61 1260 61 1260 2 1210 c 128,-1,26
 -57 1160 -57 1160 -98 1044 c 1,27,-1
 -132 1051 l 1,28,29
 -127 1127 -127 1127 -102.5 1188.5 c 128,-1,30
 -78 1250 -78 1250 -35.5 1294 c 128,-1,31
 7 1338 7 1338 67 1362 c 128,-1,32
 127 1386 127 1386 199 1386 c 0,33,34
 277 1386 277 1386 342 1362.5 c 128,-1,35
 407 1339 407 1339 455 1300.5 c 128,-1,36
 503 1262 503 1262 535 1211.5 c 128,-1,37
 567 1161 567 1161 578 1107 c 0,38,39
 587 1067 587 1067 584 1031.5 c 128,-1,40
 581 996 581 996 565.5 962.5 c 128,-1,41
 550 929 550 929 521.5 895.5 c 128,-1,42
 493 862 493 862 450 827 c 1,43,44
 557 784 557 784 623 732 c 0,45,46
 752 627 752 627 787 465 c 0,47,48
 806 373 806 373 785 287 c 128,-1,49
 764 201 764 201 710 130 c 1,50,51
 649 61 649 61 549.5 23 c 128,-1,52
 450 -15 450 -15 314 -15 c 0,53,54
 251 -15 251 -15 205.5 -4.5 c 128,-1,55
 160 6 160 6 131 22.5 c 128,-1,56
 102 39 102 39 87 59.5 c 128,-1,57
 72 80 72 80 67 101 c 0,58,59
 64 114 64 114 65.5 127.5 c 128,-1,60
 67 141 67 141 73 151.5 c 128,-1,61
 79 162 79 162 91 169 c 128,-1,62
 103 176 103 176 121 176 c 0,63,64
 150 176 150 176 189 161.5 c 128,-1,65
 228 147 228 147 279 119 c 0,66,67
 331 92 331 92 372.5 77 c 128,-1,68
 414 62 414 62 444 62 c 0,0,1
EndSplineSet
Substitution2: "<17016,16016> Urdu Swash lookup 75 subtable" three
PairPos2: "'kern' Horizontal Kerning in Arabic lookup 0 subtable" afii57509 dx=0 dy=0 dh=0 dv=0 dx=0 dy=0 dh=260 dv=0
PairPos2: "'kern' Horizontal Kerning in Arabic lookup 0 subtable" uni06AB dx=0 dy=0 dh=0 dv=0 dx=0 dy=0 dh=260 dv=0
PairPos2: "'kern' Horizontal Kerning in Arabic lookup 0 subtable" uni06A9 dx=0 dy=0 dh=0 dv=0 dx=0 dy=0 dh=260 dv=0
PairPos2: "'kern' Horizontal Kerning in Arabic lookup 0 subtable" uniFB94 dx=0 dy=0 dh=0 dv=0 dx=0 dy=0 dh=260 dv=0
PairPos2: "'kern' Horizontal Kerning in Arabic lookup 0 subtable" uniFBD5 dx=0 dy=0 dh=0 dv=0 dx=0 dy=0 dh=260 dv=0
PairPos2: "'kern' Horizontal Kerning in Arabic lookup 0 subtable" uni06AB.ini dx=0 dy=0 dh=0 dv=0 dx=0 dy=0 dh=260 dv=0
PairPos2: "'kern' Horizontal Kerning in Arabic lookup 0 subtable" uniFB90 dx=0 dy=0 dh=0 dv=0 dx=0 dy=0 dh=260 dv=0
PairPos2: "'kern' Horizontal Kerning in Arabic lookup 0 subtable" uniFEDB dx=0 dy=0 dh=0 dv=0 dx=0 dy=0 dh=260 dv=0
PairPos2: "'kern' Horizontal Kerning in Arabic lookup 0 subtable" uni0671 dx=0 dy=0 dh=0 dv=0 dx=0 dy=0 dh=208 dv=0
PairPos2: "'kern' Horizontal Kerning in Arabic lookup 0 subtable" afii57410 dx=0 dy=0 dh=0 dv=0 dx=0 dy=0 dh=208 dv=0
PairPos2: "'kern' Horizontal Kerning in Arabic lookup 0 subtable" afii57415 dx=0 dy=0 dh=0 dv=0 dx=0 dy=0 dh=52 dv=0
EndChar

StartChar: four
Encoding: 52 52 23
Width: 1024
GlyphClass: 2
Flags: W
LayerCount: 2
Fore
SplineSet
349 1163 m 1,0,1
 263 990 263 990 177 819.5 c 128,-1,2
 91 649 91 649 7 475 c 1,3,-1
 494 475 l 1,4,-1
 349 1163 l 1,0,1
370 1374 m 1,5,-1
 467 1374 l 1,6,-1
 657 475 l 1,7,-1
 865 475 l 1,8,-1
 894 341 l 1,9,-1
 686 341 l 1,10,-1
 759 0 l 1,11,-1
 598 0 l 1,12,-1
 525 341 l 1,13,-1
 -50 341 l 1,14,-1
 -79 475 l 1,15,-1
 370 1374 l 1,5,-1
EndSplineSet
Substitution2: "<17016,16016> Urdu Swash lookup 75 subtable" four
PairPos2: "'kern' Horizontal Kerning in Arabic lookup 0 subtable" afii57509 dx=0 dy=0 dh=0 dv=0 dx=0 dy=0 dh=260 dv=0
PairPos2: "'kern' Horizontal Kerning in Arabic lookup 0 subtable" uni06AB dx=0 dy=0 dh=0 dv=0 dx=0 dy=0 dh=260 dv=0
PairPos2: "'kern' Horizontal Kerning in Arabic lookup 0 subtable" uni06A9 dx=0 dy=0 dh=0 dv=0 dx=0 dy=0 dh=260 dv=0
PairPos2: "'kern' Horizontal Kerning in Arabic lookup 0 subtable" uniFB94 dx=0 dy=0 dh=0 dv=0 dx=0 dy=0 dh=260 dv=0
PairPos2: "'kern' Horizontal Kerning in Arabic lookup 0 subtable" uniFBD5 dx=0 dy=0 dh=0 dv=0 dx=0 dy=0 dh=260 dv=0
PairPos2: "'kern' Horizontal Kerning in Arabic lookup 0 subtable" uni06AB.ini dx=0 dy=0 dh=0 dv=0 dx=0 dy=0 dh=260 dv=0
PairPos2: "'kern' Horizontal Kerning in Arabic lookup 0 subtable" uniFB90 dx=0 dy=0 dh=0 dv=0 dx=0 dy=0 dh=260 dv=0
PairPos2: "'kern' Horizontal Kerning in Arabic lookup 0 subtable" uniFEDB dx=0 dy=0 dh=0 dv=0 dx=0 dy=0 dh=260 dv=0
PairPos2: "'kern' Horizontal Kerning in Arabic lookup 0 subtable" uni0671 dx=0 dy=0 dh=0 dv=0 dx=0 dy=0 dh=208 dv=0
PairPos2: "'kern' Horizontal Kerning in Arabic lookup 0 subtable" afii57410 dx=0 dy=0 dh=0 dv=0 dx=0 dy=0 dh=208 dv=0
PairPos2: "'kern' Horizontal Kerning in Arabic lookup 0 subtable" afii57415 dx=0 dy=0 dh=0 dv=0 dx=0 dy=0 dh=52 dv=0
EndChar

StartChar: five
Encoding: 53 53 24
Width: 1024
GlyphClass: 2
Flags: W
LayerCount: 2
Fore
SplineSet
433 56 m 0,0,1
 490 56 490 56 536 83.5 c 128,-1,2
 582 111 582 111 612 158.5 c 128,-1,3
 642 206 642 206 651.5 269.5 c 128,-1,4
 661 333 661 333 645 405 c 0,5,6
 618 533 618 533 527.5 626.5 c 128,-1,7
 437 720 437 720 291 777 c 0,8,9
 209 807 209 807 133 823.5 c 128,-1,10
 57 840 57 840 -8 840 c 0,11,12
 -30 840 -30 840 -36 841.5 c 128,-1,13
 -42 843 -42 843 -52 852 c 1,14,15
 -52 859 -52 859 -52 865.5 c 128,-1,16
 -52 872 -52 872 -51 877 c 2,17,-1
 66 1355 l 1,18,-1
 496 1355 l 2,19,20
 512 1355 512 1355 522.5 1357 c 128,-1,21
 533 1359 533 1359 541.5 1365 c 128,-1,22
 550 1371 550 1371 558.5 1381.5 c 128,-1,23
 567 1392 567 1392 579 1408 c 1,24,-1
 599 1393 l 1,25,-1
 561 1207 l 2,26,27
 560 1198 560 1198 541 1195 c 128,-1,28
 522 1192 522 1192 502 1192 c 2,29,-1
 116 1192 l 1,30,31
 106 1149 106 1149 93 1105.5 c 128,-1,32
 80 1062 80 1062 69 1020 c 1,33,34
 153 1006 153 1006 215.5 993 c 128,-1,35
 278 980 278 980 318 967 c 0,36,37
 386 946 386 946 445 915.5 c 128,-1,38
 504 885 504 885 555 843 c 0,39,40
 642 771 642 771 697 683 c 128,-1,41
 752 595 752 595 774 495 c 0,42,43
 821 274 821 274 696 126 c 0,44,45
 570 -22 570 -22 328 -22 c 0,46,47
 203 -22 203 -22 129.5 10.5 c 128,-1,48
 56 43 56 43 42 109 c 0,49,50
 36 140 36 140 52.5 162.5 c 128,-1,51
 69 185 69 185 114 185 c 0,52,53
 172 185 172 185 277 120 c 0,54,55
 383 56 383 56 433 56 c 0,0,1
EndSplineSet
Substitution2: "<17016,16016> Urdu Swash lookup 75 subtable" five
PairPos2: "'kern' Horizontal Kerning in Arabic lookup 0 subtable" afii57509 dx=0 dy=0 dh=0 dv=0 dx=0 dy=0 dh=260 dv=0
PairPos2: "'kern' Horizontal Kerning in Arabic lookup 0 subtable" uni06AB dx=0 dy=0 dh=0 dv=0 dx=0 dy=0 dh=260 dv=0
PairPos2: "'kern' Horizontal Kerning in Arabic lookup 0 subtable" uni06A9 dx=0 dy=0 dh=0 dv=0 dx=0 dy=0 dh=260 dv=0
PairPos2: "'kern' Horizontal Kerning in Arabic lookup 0 subtable" uniFB94 dx=0 dy=0 dh=0 dv=0 dx=0 dy=0 dh=260 dv=0
PairPos2: "'kern' Horizontal Kerning in Arabic lookup 0 subtable" uniFBD5 dx=0 dy=0 dh=0 dv=0 dx=0 dy=0 dh=260 dv=0
PairPos2: "'kern' Horizontal Kerning in Arabic lookup 0 subtable" uni06AB.ini dx=0 dy=0 dh=0 dv=0 dx=0 dy=0 dh=260 dv=0
PairPos2: "'kern' Horizontal Kerning in Arabic lookup 0 subtable" uniFB90 dx=0 dy=0 dh=0 dv=0 dx=0 dy=0 dh=260 dv=0
PairPos2: "'kern' Horizontal Kerning in Arabic lookup 0 subtable" uniFEDB dx=0 dy=0 dh=0 dv=0 dx=0 dy=0 dh=260 dv=0
PairPos2: "'kern' Horizontal Kerning in Arabic lookup 0 subtable" uni0671 dx=0 dy=0 dh=0 dv=0 dx=0 dy=0 dh=208 dv=0
PairPos2: "'kern' Horizontal Kerning in Arabic lookup 0 subtable" afii57410 dx=0 dy=0 dh=0 dv=0 dx=0 dy=0 dh=208 dv=0
PairPos2: "'kern' Horizontal Kerning in Arabic lookup 0 subtable" afii57415 dx=0 dy=0 dh=0 dv=0 dx=0 dy=0 dh=52 dv=0
EndChar

StartChar: six
Encoding: 54 54 25
Width: 1024
GlyphClass: 2
Flags: W
LayerCount: 2
Fore
SplineSet
602 614 m 0,0,1
 496 785 496 785 329 785 c 0,2,3
 254 785 254 785 207 761 c 128,-1,4
 160 737 160 737 143 694 c 0,5,6
 135 667 135 667 136.5 621.5 c 128,-1,7
 138 576 138 576 152 514 c 0,8,9
 169 434 169 434 204 353 c 128,-1,10
 239 272 239 272 288 196 c 0,11,12
 338 122 338 122 402.5 81.5 c 128,-1,13
 467 41 467 41 540 41 c 0,14,15
 600 41 600 41 636.5 70 c 128,-1,16
 673 99 673 99 690.5 146 c 128,-1,17
 708 193 708 193 708 253.5 c 128,-1,18
 708 314 708 314 695 378 c 0,19,20
 666 511 666 511 602 614 c 0,0,1
541 -22 m 0,21,22
 365 -22 365 -22 184 143 c 0,23,24
 93 226 93 226 35.5 335.5 c 128,-1,25
 -22 445 -22 445 -53 582 c 0,26,27
 -128 937 -128 937 97 1188 c 1,28,29
 303 1400 303 1400 615 1400 c 1,30,-1
 628 1365 l 1,31,32
 509 1342 509 1342 426.5 1302.5 c 128,-1,33
 344 1263 344 1263 289 1192 c 0,34,35
 259 1157 259 1157 235 1110.5 c 128,-1,36
 211 1064 211 1064 190 1010 c 0,37,38
 171 956 171 956 160.5 901 c 128,-1,39
 150 846 150 846 148 794 c 1,40,41
 212 840 212 840 270.5 860 c 128,-1,42
 329 880 329 880 396 880 c 0,43,44
 475 880 475 880 550 852.5 c 128,-1,45
 625 825 625 825 687 771 c 128,-1,46
 749 717 749 717 794.5 638 c 128,-1,47
 840 559 840 559 862 455 c 0,48,49
 901 272 901 272 815 125 c 0,50,51
 730 -22 730 -22 541 -22 c 0,21,22
EndSplineSet
Substitution2: "<17016,16016> Urdu Swash lookup 75 subtable" six
PairPos2: "'kern' Horizontal Kerning in Arabic lookup 0 subtable" afii57509 dx=0 dy=0 dh=0 dv=0 dx=0 dy=0 dh=260 dv=0
PairPos2: "'kern' Horizontal Kerning in Arabic lookup 0 subtable" uni06AB dx=0 dy=0 dh=0 dv=0 dx=0 dy=0 dh=260 dv=0
PairPos2: "'kern' Horizontal Kerning in Arabic lookup 0 subtable" uni06A9 dx=0 dy=0 dh=0 dv=0 dx=0 dy=0 dh=260 dv=0
PairPos2: "'kern' Horizontal Kerning in Arabic lookup 0 subtable" uniFB94 dx=0 dy=0 dh=0 dv=0 dx=0 dy=0 dh=260 dv=0
PairPos2: "'kern' Horizontal Kerning in Arabic lookup 0 subtable" uniFBD5 dx=0 dy=0 dh=0 dv=0 dx=0 dy=0 dh=260 dv=0
PairPos2: "'kern' Horizontal Kerning in Arabic lookup 0 subtable" uni06AB.ini dx=0 dy=0 dh=0 dv=0 dx=0 dy=0 dh=260 dv=0
PairPos2: "'kern' Horizontal Kerning in Arabic lookup 0 subtable" uniFB90 dx=0 dy=0 dh=0 dv=0 dx=0 dy=0 dh=260 dv=0
PairPos2: "'kern' Horizontal Kerning in Arabic lookup 0 subtable" uniFEDB dx=0 dy=0 dh=0 dv=0 dx=0 dy=0 dh=260 dv=0
PairPos2: "'kern' Horizontal Kerning in Arabic lookup 0 subtable" uni0671 dx=0 dy=0 dh=0 dv=0 dx=0 dy=0 dh=208 dv=0
PairPos2: "'kern' Horizontal Kerning in Arabic lookup 0 subtable" afii57410 dx=0 dy=0 dh=0 dv=0 dx=0 dy=0 dh=208 dv=0
PairPos2: "'kern' Horizontal Kerning in Arabic lookup 0 subtable" afii57415 dx=0 dy=0 dh=0 dv=0 dx=0 dy=0 dh=52 dv=0
EndChar

StartChar: seven
Encoding: 55 55 26
Width: 1024
GlyphClass: 2
Flags: W
LayerCount: 2
Fore
SplineSet
631 1355 m 1,0,-1
 638 1321 l 1,1,-1
 490 -19 l 1,2,-1
 356 -19 l 1,3,-1
 501 1202 l 1,4,-1
 66 1202 l 2,5,6
 17 1202 17 1202 -14 1195 c 128,-1,7
 -45 1188 -45 1188 -66.5 1170 c 128,-1,8
 -88 1152 -88 1152 -104.5 1120 c 128,-1,9
 -121 1088 -121 1088 -144 1037 c 1,10,-1
 -184 1054 l 1,11,12
 -181 1068 -181 1068 -176.5 1091.5 c 128,-1,13
 -172 1115 -172 1115 -167 1143 c 128,-1,14
 -162 1171 -162 1171 -156 1200 c 128,-1,15
 -150 1229 -150 1229 -145.5 1254.5 c 128,-1,16
 -141 1280 -141 1280 -137.5 1299 c 128,-1,17
 -134 1318 -134 1318 -132 1325 c 0,18,19
 -131 1332 -131 1332 -130.5 1339.5 c 128,-1,20
 -130 1347 -130 1347 -128 1355 c 1,21,-1
 631 1355 l 1,0,-1
EndSplineSet
Substitution2: "<17016,16016> Urdu Swash lookup 75 subtable" seven
PairPos2: "'kern' Horizontal Kerning in Arabic lookup 0 subtable" afii57509 dx=0 dy=0 dh=0 dv=0 dx=0 dy=0 dh=260 dv=0
PairPos2: "'kern' Horizontal Kerning in Arabic lookup 0 subtable" uni06AB dx=0 dy=0 dh=0 dv=0 dx=0 dy=0 dh=260 dv=0
PairPos2: "'kern' Horizontal Kerning in Arabic lookup 0 subtable" uni06A9 dx=0 dy=0 dh=0 dv=0 dx=0 dy=0 dh=260 dv=0
PairPos2: "'kern' Horizontal Kerning in Arabic lookup 0 subtable" uniFB94 dx=0 dy=0 dh=0 dv=0 dx=0 dy=0 dh=260 dv=0
PairPos2: "'kern' Horizontal Kerning in Arabic lookup 0 subtable" uniFBD5 dx=0 dy=0 dh=0 dv=0 dx=0 dy=0 dh=260 dv=0
PairPos2: "'kern' Horizontal Kerning in Arabic lookup 0 subtable" uni06AB.ini dx=0 dy=0 dh=0 dv=0 dx=0 dy=0 dh=260 dv=0
PairPos2: "'kern' Horizontal Kerning in Arabic lookup 0 subtable" uniFB90 dx=0 dy=0 dh=0 dv=0 dx=0 dy=0 dh=260 dv=0
PairPos2: "'kern' Horizontal Kerning in Arabic lookup 0 subtable" uniFEDB dx=0 dy=0 dh=0 dv=0 dx=0 dy=0 dh=260 dv=0
PairPos2: "'kern' Horizontal Kerning in Arabic lookup 0 subtable" uni0671 dx=0 dy=0 dh=0 dv=0 dx=0 dy=0 dh=208 dv=0
PairPos2: "'kern' Horizontal Kerning in Arabic lookup 0 subtable" afii57410 dx=0 dy=0 dh=0 dv=0 dx=0 dy=0 dh=208 dv=0
PairPos2: "'kern' Horizontal Kerning in Arabic lookup 0 subtable" afii57415 dx=0 dy=0 dh=0 dv=0 dx=0 dy=0 dh=52 dv=0
EndChar

StartChar: eight
Encoding: 56 56 27
Width: 1024
GlyphClass: 2
Flags: W
LayerCount: 2
Fore
SplineSet
463 910 m 0,0,1
 508 987 508 987 486 1094 c 0,2,3
 476 1140 476 1140 453 1181.5 c 128,-1,4
 430 1223 430 1223 394 1254 c 128,-1,5
 358 1285 358 1285 309.5 1303 c 128,-1,6
 261 1321 261 1321 202 1321 c 0,7,8
 157 1321 157 1321 122.5 1305.5 c 128,-1,9
 88 1290 88 1290 65 1263 c 128,-1,10
 42 1236 42 1236 33.5 1200 c 128,-1,11
 25 1164 25 1164 34 1123 c 0,12,13
 44 1077 44 1077 72 1033.5 c 128,-1,14
 100 990 100 990 142.5 949.5 c 128,-1,15
 185 909 185 909 239.5 872 c 128,-1,16
 294 835 294 835 358 800 c 1,17,18
 436 864 436 864 463 910 c 0,0,1
692 259 m 0,19,20
 668 366 668 366 592 433 c 0,21,22
 555 466 555 466 478 518.5 c 128,-1,23
 401 571 401 571 293 637 c 1,24,25
 255 609 255 609 232 572 c 128,-1,26
 209 535 209 535 198 495 c 128,-1,27
 187 455 187 455 187 413.5 c 128,-1,28
 187 372 187 372 195 334 c 0,29,30
 208 267 208 267 238.5 212 c 128,-1,31
 269 157 269 157 310.5 118 c 128,-1,32
 352 79 352 79 402.5 57.5 c 128,-1,33
 453 36 453 36 507 36 c 0,34,35
 565 36 565 36 605 53.5 c 128,-1,36
 645 71 645 71 667.5 101 c 128,-1,37
 690 131 690 131 695.5 172 c 128,-1,38
 701 213 701 213 692 259 c 0,19,20
12 850 m 0,39,40
 -82 947 -82 947 -106 1063 c 0,41,42
 -120 1129 -120 1129 -104 1186.5 c 128,-1,43
 -88 1244 -88 1244 -45 1287 c 128,-1,44
 -2 1330 -2 1330 65.5 1354.5 c 128,-1,45
 133 1379 133 1379 221 1379 c 0,46,47
 301 1379 301 1379 371 1355.5 c 128,-1,48
 441 1332 441 1332 495 1292 c 128,-1,49
 549 1252 549 1252 584.5 1199.5 c 128,-1,50
 620 1147 620 1147 633 1089 c 0,51,52
 658 971 658 971 582 879 c 0,53,54
 560 853 560 853 521.5 823 c 128,-1,55
 483 793 483 793 428 758 c 1,56,57
 524 695 524 695 597 640.5 c 128,-1,58
 670 586 670 586 716 539 c 0,59,60
 809 445 809 445 835 319 c 0,61,62
 851 246 851 246 836 184 c 128,-1,63
 821 122 821 122 778 76 c 128,-1,64
 735 30 735 30 667 4 c 128,-1,65
 599 -22 599 -22 509 -22 c 0,66,67
 429 -22 429 -22 352.5 1 c 128,-1,68
 276 24 276 24 212.5 67 c 128,-1,69
 149 110 149 110 104 171 c 128,-1,70
 59 232 59 232 43 308 c 0,71,72
 16 434 16 434 76 532 c 0,73,74
 95 564 95 564 134 601 c 128,-1,75
 173 638 173 638 227 682 c 1,76,77
 73 789 73 789 12 850 c 0,39,40
EndSplineSet
Substitution2: "<17016,16016> Urdu Swash lookup 75 subtable" eight
PairPos2: "'kern' Horizontal Kerning in Arabic lookup 0 subtable" afii57509 dx=0 dy=0 dh=0 dv=0 dx=0 dy=0 dh=260 dv=0
PairPos2: "'kern' Horizontal Kerning in Arabic lookup 0 subtable" uni06AB dx=0 dy=0 dh=0 dv=0 dx=0 dy=0 dh=260 dv=0
PairPos2: "'kern' Horizontal Kerning in Arabic lookup 0 subtable" uni06A9 dx=0 dy=0 dh=0 dv=0 dx=0 dy=0 dh=260 dv=0
PairPos2: "'kern' Horizontal Kerning in Arabic lookup 0 subtable" uniFB94 dx=0 dy=0 dh=0 dv=0 dx=0 dy=0 dh=260 dv=0
PairPos2: "'kern' Horizontal Kerning in Arabic lookup 0 subtable" uniFBD5 dx=0 dy=0 dh=0 dv=0 dx=0 dy=0 dh=260 dv=0
PairPos2: "'kern' Horizontal Kerning in Arabic lookup 0 subtable" uni06AB.ini dx=0 dy=0 dh=0 dv=0 dx=0 dy=0 dh=260 dv=0
PairPos2: "'kern' Horizontal Kerning in Arabic lookup 0 subtable" uniFB90 dx=0 dy=0 dh=0 dv=0 dx=0 dy=0 dh=260 dv=0
PairPos2: "'kern' Horizontal Kerning in Arabic lookup 0 subtable" uniFEDB dx=0 dy=0 dh=0 dv=0 dx=0 dy=0 dh=260 dv=0
PairPos2: "'kern' Horizontal Kerning in Arabic lookup 0 subtable" uni0671 dx=0 dy=0 dh=0 dv=0 dx=0 dy=0 dh=208 dv=0
PairPos2: "'kern' Horizontal Kerning in Arabic lookup 0 subtable" afii57410 dx=0 dy=0 dh=0 dv=0 dx=0 dy=0 dh=208 dv=0
PairPos2: "'kern' Horizontal Kerning in Arabic lookup 0 subtable" afii57415 dx=0 dy=0 dh=0 dv=0 dx=0 dy=0 dh=52 dv=0
EndChar

StartChar: nine
Encoding: 57 57 28
Width: 1024
GlyphClass: 2
Flags: W
LayerCount: 2
Fore
SplineSet
590 675 m 0,0,1
 591 679 591 679 588 700.5 c 128,-1,2
 585 722 585 722 580.5 750 c 128,-1,3
 576 778 576 778 570.5 807 c 128,-1,4
 565 836 565 836 562 854 c 0,5,6
 539 956 539 956 504 1041.5 c 128,-1,7
 469 1127 469 1127 421 1189 c 128,-1,8
 373 1251 373 1251 315 1285.5 c 128,-1,9
 257 1320 257 1320 189 1320 c 0,10,11
 140 1320 140 1320 104 1298 c 128,-1,12
 68 1276 68 1276 49.5 1231.5 c 128,-1,13
 31 1187 31 1187 29 1121 c 128,-1,14
 27 1055 27 1055 46 967 c 0,15,16
 76 823 76 823 159 697 c 0,17,18
 241 574 241 574 389 574 c 0,19,20
 421 574 421 574 455.5 585 c 128,-1,21
 490 596 490 596 519 612 c 128,-1,22
 548 628 548 628 567.5 645.5 c 128,-1,23
 587 663 587 663 590 675 c 0,0,1
771 812 m 0,24,25
 803 661 803 661 779 503 c 0,26,27
 767 423 767 423 741 354 c 128,-1,28
 715 285 715 285 674 223 c 0,29,30
 626 152 626 152 555.5 99.5 c 128,-1,31
 485 47 485 47 396 12 c 0,32,33
 346 -8 346 -8 279 -22.5 c 128,-1,34
 212 -37 212 -37 133 -48 c 1,35,-1
 114 -6 l 1,36,37
 163 7 163 7 204.5 19.5 c 128,-1,38
 246 32 246 32 277 45 c 0,39,40
 332 69 332 69 376 99.5 c 128,-1,41
 420 130 420 130 449 165 c 0,42,43
 491 215 491 215 522 272 c 128,-1,44
 553 329 553 329 571 388 c 0,45,46
 590 449 590 449 598.5 501 c 128,-1,47
 607 553 607 553 606 595 c 1,48,49
 599 590 599 590 592 582.5 c 128,-1,50
 585 575 585 575 579 570 c 0,51,52
 556 550 556 550 526.5 533.5 c 128,-1,53
 497 517 497 517 463.5 505.5 c 128,-1,54
 430 494 430 494 395 487.5 c 128,-1,55
 360 481 360 481 328 481 c 0,56,57
 158 481 158 481 31 601 c 0,58,59
 -31 661 -31 661 -70 733.5 c 128,-1,60
 -109 806 -109 806 -129 890 c 0,61,62
 -151 997 -151 997 -139 1086.5 c 128,-1,63
 -127 1176 -127 1176 -84.5 1241 c 128,-1,64
 -42 1306 -42 1306 27.5 1342.5 c 128,-1,65
 97 1379 97 1379 190 1379 c 0,66,67
 411 1379 411 1379 568 1203 c 256,68,69
 725 1027 725 1027 771 812 c 0,24,25
EndSplineSet
Substitution2: "<17016,16016> Urdu Swash lookup 75 subtable" nine
PairPos2: "'kern' Horizontal Kerning in Arabic lookup 0 subtable" afii57509 dx=0 dy=0 dh=0 dv=0 dx=0 dy=0 dh=260 dv=0
PairPos2: "'kern' Horizontal Kerning in Arabic lookup 0 subtable" uni06AB dx=0 dy=0 dh=0 dv=0 dx=0 dy=0 dh=260 dv=0
PairPos2: "'kern' Horizontal Kerning in Arabic lookup 0 subtable" uni06A9 dx=0 dy=0 dh=0 dv=0 dx=0 dy=0 dh=260 dv=0
PairPos2: "'kern' Horizontal Kerning in Arabic lookup 0 subtable" uniFB94 dx=0 dy=0 dh=0 dv=0 dx=0 dy=0 dh=260 dv=0
PairPos2: "'kern' Horizontal Kerning in Arabic lookup 0 subtable" uniFBD5 dx=0 dy=0 dh=0 dv=0 dx=0 dy=0 dh=260 dv=0
PairPos2: "'kern' Horizontal Kerning in Arabic lookup 0 subtable" uni06AB.ini dx=0 dy=0 dh=0 dv=0 dx=0 dy=0 dh=260 dv=0
PairPos2: "'kern' Horizontal Kerning in Arabic lookup 0 subtable" uniFB90 dx=0 dy=0 dh=0 dv=0 dx=0 dy=0 dh=260 dv=0
PairPos2: "'kern' Horizontal Kerning in Arabic lookup 0 subtable" uniFEDB dx=0 dy=0 dh=0 dv=0 dx=0 dy=0 dh=260 dv=0
PairPos2: "'kern' Horizontal Kerning in Arabic lookup 0 subtable" uni0671 dx=0 dy=0 dh=0 dv=0 dx=0 dy=0 dh=208 dv=0
PairPos2: "'kern' Horizontal Kerning in Arabic lookup 0 subtable" afii57410 dx=0 dy=0 dh=0 dv=0 dx=0 dy=0 dh=208 dv=0
PairPos2: "'kern' Horizontal Kerning in Arabic lookup 0 subtable" afii57415 dx=0 dy=0 dh=0 dv=0 dx=0 dy=0 dh=52 dv=0
EndChar

StartChar: colon
Encoding: 58 58 29
Width: 534
GlyphClass: 2
Flags: W
LayerCount: 2
Fore
SplineSet
171 767 m 0,0,1
 176 743 176 743 171.5 722 c 128,-1,2
 167 701 167 701 154.5 685 c 128,-1,3
 142 669 142 669 123.5 659.5 c 128,-1,4
 105 650 105 650 82 650 c 0,5,6
 58 650 58 650 35.5 659 c 128,-1,7
 13 668 13 668 -6 683 c 128,-1,8
 -25 698 -25 698 -39.5 718.5 c 128,-1,9
 -54 739 -54 739 -59 763 c 256,10,11
 -64 787 -64 787 -58.5 808.5 c 128,-1,12
 -53 830 -53 830 -40.5 845.5 c 128,-1,13
 -28 861 -28 861 -9.5 870.5 c 128,-1,14
 9 880 9 880 33 880 c 0,15,16
 56 880 56 880 79 870 c 128,-1,17
 102 860 102 860 120.5 844.5 c 128,-1,18
 139 829 139 829 153 808.5 c 128,-1,19
 167 788 167 788 171 767 c 0,0,1
278 251 m 0,20,21
 282 230 282 230 278 209 c 128,-1,22
 274 188 274 188 262 172 c 128,-1,23
 250 156 250 156 232 146 c 128,-1,24
 214 136 214 136 189 136 c 0,25,26
 167 136 167 136 143.5 145 c 128,-1,27
 120 154 120 154 100 169 c 128,-1,28
 80 184 80 184 66 204.5 c 128,-1,29
 52 225 52 225 47 248 c 0,30,31
 42 272 42 272 48 293.5 c 128,-1,32
 54 315 54 315 67 331 c 128,-1,33
 80 347 80 347 99 356.5 c 128,-1,34
 118 366 118 366 140 366 c 0,35,36
 163 366 163 366 185 357.5 c 128,-1,37
 207 349 207 349 226 333.5 c 128,-1,38
 245 318 245 318 258.5 297 c 128,-1,39
 272 276 272 276 278 251 c 0,20,21
EndSplineSet
Substitution2: "<17016,16016> Urdu Swash lookup 75 subtable" colon
PairPos2: "'kern' Horizontal Kerning in Arabic lookup 0 subtable" afii57509 dx=0 dy=0 dh=0 dv=0 dx=0 dy=0 dh=260 dv=0
PairPos2: "'kern' Horizontal Kerning in Arabic lookup 0 subtable" uni06AB dx=0 dy=0 dh=0 dv=0 dx=0 dy=0 dh=260 dv=0
PairPos2: "'kern' Horizontal Kerning in Arabic lookup 0 subtable" uni06A9 dx=0 dy=0 dh=0 dv=0 dx=0 dy=0 dh=260 dv=0
PairPos2: "'kern' Horizontal Kerning in Arabic lookup 0 subtable" uniFB94 dx=0 dy=0 dh=0 dv=0 dx=0 dy=0 dh=260 dv=0
PairPos2: "'kern' Horizontal Kerning in Arabic lookup 0 subtable" uniFBD5 dx=0 dy=0 dh=0 dv=0 dx=0 dy=0 dh=260 dv=0
PairPos2: "'kern' Horizontal Kerning in Arabic lookup 0 subtable" uni06AB.ini dx=0 dy=0 dh=0 dv=0 dx=0 dy=0 dh=260 dv=0
PairPos2: "'kern' Horizontal Kerning in Arabic lookup 0 subtable" uniFB90 dx=0 dy=0 dh=0 dv=0 dx=0 dy=0 dh=260 dv=0
PairPos2: "'kern' Horizontal Kerning in Arabic lookup 0 subtable" uniFEDB dx=0 dy=0 dh=0 dv=0 dx=0 dy=0 dh=260 dv=0
PairPos2: "'kern' Horizontal Kerning in Arabic lookup 0 subtable" uni0671 dx=0 dy=0 dh=0 dv=0 dx=0 dy=0 dh=208 dv=0
PairPos2: "'kern' Horizontal Kerning in Arabic lookup 0 subtable" afii57410 dx=0 dy=0 dh=0 dv=0 dx=0 dy=0 dh=208 dv=0
PairPos2: "'kern' Horizontal Kerning in Arabic lookup 0 subtable" afii57415 dx=0 dy=0 dh=0 dv=0 dx=0 dy=0 dh=52 dv=0
EndChar

StartChar: semicolon
Encoding: 59 59 30
Width: 569
GlyphClass: 2
Flags: W
LayerCount: 2
Fore
SplineSet
-4 827 m 256,0,1
 -9 851 -9 851 -4.5 872 c 128,-1,2
 0 893 0 893 12.5 908.5 c 128,-1,3
 25 924 25 924 43.5 933 c 128,-1,4
 62 942 62 942 86 942 c 256,5,6
 110 942 110 942 132.5 933 c 128,-1,7
 155 924 155 924 174.5 908 c 128,-1,8
 194 892 194 892 207 871.5 c 128,-1,9
 220 851 220 851 225 827 c 0,10,11
 230 804 230 804 226 783 c 128,-1,12
 222 762 222 762 210 746.5 c 128,-1,13
 198 731 198 731 179 721.5 c 128,-1,14
 160 712 160 712 135 712 c 256,15,16
 110 712 110 712 87 721 c 128,-1,17
 64 730 64 730 45.5 745.5 c 128,-1,18
 27 761 27 761 14 782 c 128,-1,19
 1 803 1 803 -4 827 c 256,0,1
260 -251 m 1,20,21
 303 -224 303 -224 329 -193.5 c 128,-1,22
 355 -163 355 -163 368 -133 c 128,-1,23
 381 -103 381 -103 384 -76 c 128,-1,24
 387 -49 387 -49 382 -29 c 0,25,26
 379 -15 379 -15 370 -11.5 c 128,-1,27
 361 -8 361 -8 351 -8 c 0,28,29
 334 -8 334 -8 318 -11.5 c 128,-1,30
 302 -15 302 -15 285 -15 c 0,31,32
 264 -15 264 -15 242 -8 c 128,-1,33
 220 -1 220 -1 201.5 12.5 c 128,-1,34
 183 26 183 26 169 46 c 128,-1,35
 155 66 155 66 149 93 c 0,36,37
 145 113 145 113 147 133.5 c 128,-1,38
 149 154 149 154 160.5 171 c 128,-1,39
 172 188 172 188 193.5 199 c 128,-1,40
 215 210 215 210 249 210 c 0,41,42
 281 210 281 210 313.5 197.5 c 128,-1,43
 346 185 346 185 373.5 161 c 128,-1,44
 401 137 401 137 422.5 102 c 128,-1,45
 444 67 444 67 453 22 c 0,46,47
 464 -28 464 -28 454 -76 c 128,-1,48
 444 -124 444 -124 420.5 -166 c 128,-1,49
 397 -208 397 -208 362.5 -240.5 c 128,-1,50
 328 -273 328 -273 289 -292 c 1,51,-1
 260 -251 l 1,20,21
EndSplineSet
Substitution2: "<17016,16016> Urdu Swash lookup 75 subtable" semicolon
PairPos2: "'kern' Horizontal Kerning in Arabic lookup 0 subtable" afii57509 dx=0 dy=0 dh=0 dv=0 dx=0 dy=0 dh=260 dv=0
PairPos2: "'kern' Horizontal Kerning in Arabic lookup 0 subtable" uni06AB dx=0 dy=0 dh=0 dv=0 dx=0 dy=0 dh=260 dv=0
PairPos2: "'kern' Horizontal Kerning in Arabic lookup 0 subtable" uni06A9 dx=0 dy=0 dh=0 dv=0 dx=0 dy=0 dh=260 dv=0
PairPos2: "'kern' Horizontal Kerning in Arabic lookup 0 subtable" uniFB94 dx=0 dy=0 dh=0 dv=0 dx=0 dy=0 dh=260 dv=0
PairPos2: "'kern' Horizontal Kerning in Arabic lookup 0 subtable" uniFBD5 dx=0 dy=0 dh=0 dv=0 dx=0 dy=0 dh=260 dv=0
PairPos2: "'kern' Horizontal Kerning in Arabic lookup 0 subtable" uni06AB.ini dx=0 dy=0 dh=0 dv=0 dx=0 dy=0 dh=260 dv=0
PairPos2: "'kern' Horizontal Kerning in Arabic lookup 0 subtable" uniFB90 dx=0 dy=0 dh=0 dv=0 dx=0 dy=0 dh=260 dv=0
PairPos2: "'kern' Horizontal Kerning in Arabic lookup 0 subtable" uniFEDB dx=0 dy=0 dh=0 dv=0 dx=0 dy=0 dh=260 dv=0
PairPos2: "'kern' Horizontal Kerning in Arabic lookup 0 subtable" uni0671 dx=0 dy=0 dh=0 dv=0 dx=0 dy=0 dh=208 dv=0
PairPos2: "'kern' Horizontal Kerning in Arabic lookup 0 subtable" afii57410 dx=0 dy=0 dh=0 dv=0 dx=0 dy=0 dh=208 dv=0
PairPos2: "'kern' Horizontal Kerning in Arabic lookup 0 subtable" afii57415 dx=0 dy=0 dh=0 dv=0 dx=0 dy=0 dh=52 dv=0
EndChar

StartChar: less
Encoding: 60 60 31
Width: 1050
GlyphClass: 2
Flags: W
LayerCount: 2
Fore
SplineSet
1013 136 m 1,0,-1
 1045 -17 l 1,1,-1
 -96 489 l 1,2,-1
 -108 546 l 1,3,-1
 818 1053 l 1,4,-1
 851 899 l 1,5,-1
 167 519 l 1,6,-1
 1013 136 l 1,0,-1
EndSplineSet
Substitution2: "<17016,16016> Urdu Swash lookup 75 subtable" less
PairPos2: "'kern' Horizontal Kerning in Arabic lookup 0 subtable" afii57509 dx=0 dy=0 dh=0 dv=0 dx=0 dy=0 dh=260 dv=0
PairPos2: "'kern' Horizontal Kerning in Arabic lookup 0 subtable" uni06AB dx=0 dy=0 dh=0 dv=0 dx=0 dy=0 dh=260 dv=0
PairPos2: "'kern' Horizontal Kerning in Arabic lookup 0 subtable" uni06A9 dx=0 dy=0 dh=0 dv=0 dx=0 dy=0 dh=260 dv=0
PairPos2: "'kern' Horizontal Kerning in Arabic lookup 0 subtable" uniFB94 dx=0 dy=0 dh=0 dv=0 dx=0 dy=0 dh=260 dv=0
PairPos2: "'kern' Horizontal Kerning in Arabic lookup 0 subtable" uniFBD5 dx=0 dy=0 dh=0 dv=0 dx=0 dy=0 dh=260 dv=0
PairPos2: "'kern' Horizontal Kerning in Arabic lookup 0 subtable" uni06AB.ini dx=0 dy=0 dh=0 dv=0 dx=0 dy=0 dh=260 dv=0
PairPos2: "'kern' Horizontal Kerning in Arabic lookup 0 subtable" uniFB90 dx=0 dy=0 dh=0 dv=0 dx=0 dy=0 dh=260 dv=0
PairPos2: "'kern' Horizontal Kerning in Arabic lookup 0 subtable" uniFEDB dx=0 dy=0 dh=0 dv=0 dx=0 dy=0 dh=260 dv=0
PairPos2: "'kern' Horizontal Kerning in Arabic lookup 0 subtable" uni0671 dx=0 dy=0 dh=0 dv=0 dx=0 dy=0 dh=208 dv=0
PairPos2: "'kern' Horizontal Kerning in Arabic lookup 0 subtable" afii57410 dx=0 dy=0 dh=0 dv=0 dx=0 dy=0 dh=208 dv=0
PairPos2: "'kern' Horizontal Kerning in Arabic lookup 0 subtable" afii57415 dx=0 dy=0 dh=0 dv=0 dx=0 dy=0 dh=52 dv=0
EndChar

StartChar: equal
Encoding: 61 61 32
Width: 1050
GlyphClass: 2
Flags: W
LayerCount: 2
Fore
SplineSet
961 382 m 1,0,-1
 991 241 l 1,1,-1
 -43 241 l 1,2,-1
 -73 382 l 1,3,-1
 961 382 l 1,0,-1
873 795 m 1,4,-1
 903 653 l 1,5,-1
 -131 653 l 1,6,-1
 -161 795 l 1,7,-1
 873 795 l 1,4,-1
EndSplineSet
Substitution2: "<17016,16016> Urdu Swash lookup 75 subtable" equal
PairPos2: "'kern' Horizontal Kerning in Arabic lookup 0 subtable" afii57509 dx=0 dy=0 dh=0 dv=0 dx=0 dy=0 dh=260 dv=0
PairPos2: "'kern' Horizontal Kerning in Arabic lookup 0 subtable" uni06AB dx=0 dy=0 dh=0 dv=0 dx=0 dy=0 dh=260 dv=0
PairPos2: "'kern' Horizontal Kerning in Arabic lookup 0 subtable" uni06A9 dx=0 dy=0 dh=0 dv=0 dx=0 dy=0 dh=260 dv=0
PairPos2: "'kern' Horizontal Kerning in Arabic lookup 0 subtable" uniFB94 dx=0 dy=0 dh=0 dv=0 dx=0 dy=0 dh=260 dv=0
PairPos2: "'kern' Horizontal Kerning in Arabic lookup 0 subtable" uniFBD5 dx=0 dy=0 dh=0 dv=0 dx=0 dy=0 dh=260 dv=0
PairPos2: "'kern' Horizontal Kerning in Arabic lookup 0 subtable" uni06AB.ini dx=0 dy=0 dh=0 dv=0 dx=0 dy=0 dh=260 dv=0
PairPos2: "'kern' Horizontal Kerning in Arabic lookup 0 subtable" uniFB90 dx=0 dy=0 dh=0 dv=0 dx=0 dy=0 dh=260 dv=0
PairPos2: "'kern' Horizontal Kerning in Arabic lookup 0 subtable" uniFEDB dx=0 dy=0 dh=0 dv=0 dx=0 dy=0 dh=260 dv=0
PairPos2: "'kern' Horizontal Kerning in Arabic lookup 0 subtable" uni0671 dx=0 dy=0 dh=0 dv=0 dx=0 dy=0 dh=208 dv=0
PairPos2: "'kern' Horizontal Kerning in Arabic lookup 0 subtable" afii57410 dx=0 dy=0 dh=0 dv=0 dx=0 dy=0 dh=208 dv=0
PairPos2: "'kern' Horizontal Kerning in Arabic lookup 0 subtable" afii57415 dx=0 dy=0 dh=0 dv=0 dx=0 dy=0 dh=52 dv=0
EndChar

StartChar: greater
Encoding: 62 62 33
Width: 1050
GlyphClass: 2
Flags: W
LayerCount: 2
Fore
SplineSet
661 519 m 1,0,-1
 -184 899 l 1,1,-1
 -217 1053 l 1,2,-1
 926 546 l 1,3,-1
 938 489 l 1,4,-1
 11 -17 l 1,5,-1
 -21 136 l 1,6,-1
 661 519 l 1,0,-1
EndSplineSet
Substitution2: "<17016,16016> Urdu Swash lookup 75 subtable" greater
PairPos2: "'kern' Horizontal Kerning in Arabic lookup 0 subtable" afii57509 dx=0 dy=0 dh=0 dv=0 dx=0 dy=0 dh=260 dv=0
PairPos2: "'kern' Horizontal Kerning in Arabic lookup 0 subtable" uni06AB dx=0 dy=0 dh=0 dv=0 dx=0 dy=0 dh=260 dv=0
PairPos2: "'kern' Horizontal Kerning in Arabic lookup 0 subtable" uni06A9 dx=0 dy=0 dh=0 dv=0 dx=0 dy=0 dh=260 dv=0
PairPos2: "'kern' Horizontal Kerning in Arabic lookup 0 subtable" uniFB94 dx=0 dy=0 dh=0 dv=0 dx=0 dy=0 dh=260 dv=0
PairPos2: "'kern' Horizontal Kerning in Arabic lookup 0 subtable" uniFBD5 dx=0 dy=0 dh=0 dv=0 dx=0 dy=0 dh=260 dv=0
PairPos2: "'kern' Horizontal Kerning in Arabic lookup 0 subtable" uni06AB.ini dx=0 dy=0 dh=0 dv=0 dx=0 dy=0 dh=260 dv=0
PairPos2: "'kern' Horizontal Kerning in Arabic lookup 0 subtable" uniFB90 dx=0 dy=0 dh=0 dv=0 dx=0 dy=0 dh=260 dv=0
PairPos2: "'kern' Horizontal Kerning in Arabic lookup 0 subtable" uniFEDB dx=0 dy=0 dh=0 dv=0 dx=0 dy=0 dh=260 dv=0
PairPos2: "'kern' Horizontal Kerning in Arabic lookup 0 subtable" uni0671 dx=0 dy=0 dh=0 dv=0 dx=0 dy=0 dh=208 dv=0
PairPos2: "'kern' Horizontal Kerning in Arabic lookup 0 subtable" afii57410 dx=0 dy=0 dh=0 dv=0 dx=0 dy=0 dh=208 dv=0
PairPos2: "'kern' Horizontal Kerning in Arabic lookup 0 subtable" afii57415 dx=0 dy=0 dh=0 dv=0 dx=0 dy=0 dh=52 dv=0
EndChar

StartChar: question
Encoding: 63 63 34
Width: 909
GlyphClass: 2
Flags: W
LayerCount: 2
Fore
SplineSet
488 -19 m 0,0,1
 464 -19 464 -19 441 -10.5 c 128,-1,2
 418 -2 418 -2 400.5 13 c 128,-1,3
 383 28 383 28 370 48 c 128,-1,4
 357 68 357 68 352 91 c 256,5,6
 347 114 347 114 351.5 134 c 128,-1,7
 356 154 356 154 368 169 c 128,-1,8
 380 184 380 184 398 192.5 c 128,-1,9
 416 201 416 201 438 201 c 0,10,11
 462 201 462 201 484.5 192.5 c 128,-1,12
 507 184 507 184 525.5 169 c 128,-1,13
 544 154 544 154 557.5 134 c 128,-1,14
 571 114 571 114 576 91 c 256,15,16
 581 68 581 68 576.5 48 c 128,-1,17
 572 28 572 28 559.5 13 c 128,-1,18
 547 -2 547 -2 529 -10.5 c 128,-1,19
 511 -19 511 -19 488 -19 c 0,0,1
626 1058 m 0,20,21
 653 929 653 929 541 734 c 0,22,23
 418 523 418 523 430 336 c 1,24,-1
 392 336 l 1,25,26
 388 353 388 353 385 381.5 c 128,-1,27
 382 410 382 410 380.5 441.5 c 128,-1,28
 379 473 379 473 379.5 504 c 128,-1,29
 380 535 380 535 383 559 c 0,30,31
 388 608 388 608 421 758 c 0,32,33
 438 833 438 833 444.5 908.5 c 128,-1,34
 451 984 451 984 437 1047 c 0,35,36
 427 1097 427 1097 403.5 1146 c 128,-1,37
 380 1195 380 1195 344 1233.5 c 128,-1,38
 308 1272 308 1272 260 1296 c 128,-1,39
 212 1320 212 1320 152 1320 c 0,40,41
 113 1320 113 1320 81 1307.5 c 128,-1,42
 49 1295 49 1295 27 1276 c 128,-1,43
 5 1257 5 1257 -5 1235 c 128,-1,44
 -15 1213 -15 1213 -12 1195 c 0,45,46
 -8 1174 -8 1174 43 1127 c 0,47,48
 68 1104 68 1104 83 1083 c 128,-1,49
 98 1062 98 1062 103 1041 c 0,50,51
 110 1007 110 1007 91 982 c 128,-1,52
 72 957 72 957 36 957 c 0,53,54
 16 957 16 957 -5 965.5 c 128,-1,55
 -26 974 -26 974 -44.5 991.5 c 128,-1,56
 -63 1009 -63 1009 -77 1034.5 c 128,-1,57
 -91 1060 -91 1060 -98 1093 c 0,58,59
 -120 1196 -120 1196 -51 1290 c 0,60,61
 19 1383 19 1383 198 1383 c 0,62,63
 275 1383 275 1383 345 1361 c 128,-1,64
 415 1339 415 1339 472 1297 c 128,-1,65
 529 1255 529 1255 569 1195 c 128,-1,66
 609 1135 609 1135 626 1058 c 0,20,21
EndSplineSet
Substitution2: "<17016,16016> Urdu Swash lookup 75 subtable" question
PairPos2: "'kern' Horizontal Kerning in Arabic lookup 0 subtable" afii57509 dx=0 dy=0 dh=0 dv=0 dx=0 dy=0 dh=260 dv=0
PairPos2: "'kern' Horizontal Kerning in Arabic lookup 0 subtable" uni06AB dx=0 dy=0 dh=0 dv=0 dx=0 dy=0 dh=260 dv=0
PairPos2: "'kern' Horizontal Kerning in Arabic lookup 0 subtable" uni06A9 dx=0 dy=0 dh=0 dv=0 dx=0 dy=0 dh=260 dv=0
PairPos2: "'kern' Horizontal Kerning in Arabic lookup 0 subtable" uniFB94 dx=0 dy=0 dh=0 dv=0 dx=0 dy=0 dh=260 dv=0
PairPos2: "'kern' Horizontal Kerning in Arabic lookup 0 subtable" uniFBD5 dx=0 dy=0 dh=0 dv=0 dx=0 dy=0 dh=260 dv=0
PairPos2: "'kern' Horizontal Kerning in Arabic lookup 0 subtable" uni06AB.ini dx=0 dy=0 dh=0 dv=0 dx=0 dy=0 dh=260 dv=0
PairPos2: "'kern' Horizontal Kerning in Arabic lookup 0 subtable" uniFB90 dx=0 dy=0 dh=0 dv=0 dx=0 dy=0 dh=260 dv=0
PairPos2: "'kern' Horizontal Kerning in Arabic lookup 0 subtable" uniFEDB dx=0 dy=0 dh=0 dv=0 dx=0 dy=0 dh=260 dv=0
PairPos2: "'kern' Horizontal Kerning in Arabic lookup 0 subtable" uni0671 dx=0 dy=0 dh=0 dv=0 dx=0 dy=0 dh=208 dv=0
PairPos2: "'kern' Horizontal Kerning in Arabic lookup 0 subtable" afii57410 dx=0 dy=0 dh=0 dv=0 dx=0 dy=0 dh=208 dv=0
PairPos2: "'kern' Horizontal Kerning in Arabic lookup 0 subtable" afii57415 dx=0 dy=0 dh=0 dv=0 dx=0 dy=0 dh=52 dv=0
EndChar

StartChar: at
Encoding: 64 64 35
Width: 1886
GlyphClass: 2
Flags: W
LayerCount: 2
Fore
SplineSet
795 361 m 0,0,1
 913 361 913 361 945 552 c 0,2,3
 977 744 977 744 958 834 c 0,4,5
 948 885 948 885 912.5 915 c 128,-1,6
 877 945 877 945 826 945 c 0,7,8
 727 945 727 945 670 792 c 0,9,10
 615 638 615 638 644 501 c 0,11,12
 657 436 657 436 698 398.5 c 128,-1,13
 739 361 739 361 795 361 c 0,0,1
376 161 m 0,14,15
 109 354 109 354 51 630 c 0,16,17
 -16 945 -16 945 185 1164 c 0,18,19
 286 1274 286 1274 421 1329.5 c 128,-1,20
 556 1385 556 1385 733 1384 c 0,21,22
 1005 1384 1005 1384 1226 1233 c 0,23,24
 1458 1073 1458 1073 1510 824 c 0,25,26
 1553 622 1553 622 1461 455 c 256,27,28
 1369 288 1369 288 1208 288 c 0,29,30
 1166 288 1166 288 1129 300 c 128,-1,31
 1092 312 1092 312 1062 333 c 128,-1,32
 1032 354 1032 354 1011 382.5 c 128,-1,33
 990 411 990 411 981 444 c 1,34,35
 975 413 975 413 955.5 384.5 c 128,-1,36
 936 356 936 356 910 334.5 c 128,-1,37
 884 313 884 313 851.5 300 c 128,-1,38
 819 287 819 287 783 287 c 0,39,40
 726 287 726 287 672.5 306.5 c 128,-1,41
 619 326 619 326 575.5 363 c 128,-1,42
 532 400 532 400 500 452 c 128,-1,43
 468 504 468 504 454 570 c 0,44,45
 418 741 418 741 518 881 c 0,46,47
 620 1023 620 1023 777 1023 c 0,48,49
 812 1023 812 1023 844.5 1013.5 c 128,-1,50
 877 1004 877 1004 904.5 987.5 c 128,-1,51
 932 971 932 971 954 948 c 128,-1,52
 976 925 976 925 990 899 c 1,53,54
 992 923 992 923 995 948.5 c 128,-1,55
 998 974 998 974 1000 998 c 1,56,-1
 1165 998 l 1,57,-1
 1147 827 l 2,58,59
 1139 759 1139 759 1134 696 c 128,-1,60
 1129 633 1129 633 1126.5 582.5 c 128,-1,61
 1124 532 1124 532 1124 496.5 c 128,-1,62
 1124 461 1124 461 1126 449 c 0,63,64
 1130 433 1130 433 1139.5 417.5 c 128,-1,65
 1149 402 1149 402 1163 390 c 128,-1,66
 1177 378 1177 378 1194.5 370.5 c 128,-1,67
 1212 363 1212 363 1230 363 c 0,68,69
 1278 363 1278 363 1321 396.5 c 128,-1,70
 1364 430 1364 430 1401 496 c 256,71,72
 1438 562 1438 562 1445.5 645 c 128,-1,73
 1453 728 1453 728 1435 821 c 0,74,75
 1385 1055 1385 1055 1179 1179 c 0,76,77
 973 1304 973 1304 760 1304 c 0,78,79
 493 1304 493 1304 319 1119 c 0,80,81
 129 920 129 920 190 632 c 0,82,83
 218 503 218 503 290.5 395 c 128,-1,84
 363 287 363 287 466.5 209 c 128,-1,85
 570 131 570 131 699 87.5 c 128,-1,86
 828 44 828 44 969 44 c 0,87,88
 1066 44 1066 44 1171 72 c 0,89,90
 1334 115 1334 115 1438 209 c 1,91,-1
 1491 150 l 1,92,93
 1426 102 1426 102 1361.5 67 c 128,-1,94
 1297 32 1297 32 1236 12 c 0,95,96
 1174 -8 1174 -8 1103 -18.5 c 128,-1,97
 1032 -29 1032 -29 956 -29 c 0,98,99
 640 -29 640 -29 376 161 c 0,14,15
EndSplineSet
Substitution2: "<17016,16016> Urdu Swash lookup 75 subtable" at
PairPos2: "'kern' Horizontal Kerning in Arabic lookup 0 subtable" afii57509 dx=0 dy=0 dh=0 dv=0 dx=0 dy=0 dh=260 dv=0
PairPos2: "'kern' Horizontal Kerning in Arabic lookup 0 subtable" uni06AB dx=0 dy=0 dh=0 dv=0 dx=0 dy=0 dh=260 dv=0
PairPos2: "'kern' Horizontal Kerning in Arabic lookup 0 subtable" uni06A9 dx=0 dy=0 dh=0 dv=0 dx=0 dy=0 dh=260 dv=0
PairPos2: "'kern' Horizontal Kerning in Arabic lookup 0 subtable" uniFB94 dx=0 dy=0 dh=0 dv=0 dx=0 dy=0 dh=260 dv=0
PairPos2: "'kern' Horizontal Kerning in Arabic lookup 0 subtable" uniFBD5 dx=0 dy=0 dh=0 dv=0 dx=0 dy=0 dh=260 dv=0
PairPos2: "'kern' Horizontal Kerning in Arabic lookup 0 subtable" uni06AB.ini dx=0 dy=0 dh=0 dv=0 dx=0 dy=0 dh=260 dv=0
PairPos2: "'kern' Horizontal Kerning in Arabic lookup 0 subtable" uniFB90 dx=0 dy=0 dh=0 dv=0 dx=0 dy=0 dh=260 dv=0
PairPos2: "'kern' Horizontal Kerning in Arabic lookup 0 subtable" uniFEDB dx=0 dy=0 dh=0 dv=0 dx=0 dy=0 dh=260 dv=0
PairPos2: "'kern' Horizontal Kerning in Arabic lookup 0 subtable" uni0671 dx=0 dy=0 dh=0 dv=0 dx=0 dy=0 dh=208 dv=0
PairPos2: "'kern' Horizontal Kerning in Arabic lookup 0 subtable" afii57410 dx=0 dy=0 dh=0 dv=0 dx=0 dy=0 dh=208 dv=0
PairPos2: "'kern' Horizontal Kerning in Arabic lookup 0 subtable" afii57415 dx=0 dy=0 dh=0 dv=0 dx=0 dy=0 dh=52 dv=0
EndChar

StartChar: A
Encoding: 65 65 36
Width: 1479
GlyphClass: 2
Flags: W
LayerCount: 2
Fore
SplineSet
801 527 m 1,0,1
 758 593 758 593 713 664 c 128,-1,2
 668 735 668 735 623 807 c 128,-1,3
 578 879 578 879 533 950 c 128,-1,4
 488 1021 488 1021 445 1087 c 1,5,6
 416 947 416 947 388.5 807.5 c 128,-1,7
 361 668 361 668 332 527 c 1,8,-1
 801 527 l 1,0,1
30 0 m 1,9,-1
 21 39 l 1,10,11
 98 48 98 48 126 99 c 0,12,13
 157 151 157 151 204 374 c 2,14,-1
 416 1379 l 1,15,-1
 458 1379 l 1,16,-1
 1214 219 l 2,17,18
 1249 165 1249 165 1278 127.5 c 128,-1,19
 1307 90 1307 90 1325 76 c 256,20,21
 1343 62 1343 62 1371.5 53.5 c 128,-1,22
 1400 45 1400 45 1436 39 c 1,23,-1
 1445 0 l 1,24,-1
 923 0 l 1,25,-1
 914 39 l 1,26,27
 959 43 959 43 986.5 47 c 128,-1,28
 1014 51 1014 51 1027.5 58.5 c 128,-1,29
 1041 66 1041 66 1043 79 c 128,-1,30
 1045 92 1045 92 1040 114 c 0,31,32
 1036 134 1036 134 1016 171 c 128,-1,33
 996 208 996 208 968.5 253.5 c 128,-1,34
 941 299 941 299 909 348.5 c 128,-1,35
 877 398 877 398 848 442 c 1,36,-1
 314 442 l 1,37,38
 303 379 303 379 294.5 334.5 c 128,-1,39
 286 290 286 290 280.5 259 c 128,-1,40
 275 228 275 228 272 208 c 128,-1,41
 269 188 269 188 268 174 c 128,-1,42
 267 160 267 160 267.5 149.5 c 128,-1,43
 268 139 268 139 270 128 c 0,44,45
 276 106 276 106 284 91 c 128,-1,46
 292 76 292 76 310 65.5 c 128,-1,47
 328 55 328 55 356 49 c 128,-1,48
 384 43 384 43 428 39 c 1,49,-1
 437 0 l 1,50,-1
 30 0 l 1,9,-1
EndSplineSet
Substitution2: "<17016,16016> Urdu Swash lookup 75 subtable" A
PairPos2: "'kern' Horizontal Kerning in Arabic lookup 0 subtable" afii57509 dx=0 dy=0 dh=0 dv=0 dx=0 dy=0 dh=260 dv=0
PairPos2: "'kern' Horizontal Kerning in Arabic lookup 0 subtable" uni06AB dx=0 dy=0 dh=0 dv=0 dx=0 dy=0 dh=260 dv=0
PairPos2: "'kern' Horizontal Kerning in Arabic lookup 0 subtable" uni06A9 dx=0 dy=0 dh=0 dv=0 dx=0 dy=0 dh=260 dv=0
PairPos2: "'kern' Horizontal Kerning in Arabic lookup 0 subtable" uniFB94 dx=0 dy=0 dh=0 dv=0 dx=0 dy=0 dh=260 dv=0
PairPos2: "'kern' Horizontal Kerning in Arabic lookup 0 subtable" uniFBD5 dx=0 dy=0 dh=0 dv=0 dx=0 dy=0 dh=260 dv=0
PairPos2: "'kern' Horizontal Kerning in Arabic lookup 0 subtable" uni06AB.ini dx=0 dy=0 dh=0 dv=0 dx=0 dy=0 dh=260 dv=0
PairPos2: "'kern' Horizontal Kerning in Arabic lookup 0 subtable" uniFB90 dx=0 dy=0 dh=0 dv=0 dx=0 dy=0 dh=260 dv=0
PairPos2: "'kern' Horizontal Kerning in Arabic lookup 0 subtable" uniFEDB dx=0 dy=0 dh=0 dv=0 dx=0 dy=0 dh=260 dv=0
PairPos2: "'kern' Horizontal Kerning in Arabic lookup 0 subtable" uni0671 dx=0 dy=0 dh=0 dv=0 dx=0 dy=0 dh=208 dv=0
PairPos2: "'kern' Horizontal Kerning in Arabic lookup 0 subtable" afii57410 dx=0 dy=0 dh=0 dv=0 dx=0 dy=0 dh=208 dv=0
PairPos2: "'kern' Horizontal Kerning in Arabic lookup 0 subtable" afii57415 dx=0 dy=0 dh=0 dv=0 dx=0 dy=0 dh=52 dv=0
EndChar

StartChar: B
Encoding: 66 66 37
Width: 1366
GlyphClass: 2
Flags: W
LayerCount: 2
Fore
SplineSet
639 783 m 0,0,1
 756 842 756 842 723 997 c 0,2,3
 704 1086 704 1086 653 1148 c 128,-1,4
 602 1210 602 1210 522 1242 c 0,5,6
 477 1259 477 1259 412 1268 c 128,-1,7
 347 1277 347 1277 262 1277 c 0,8,9
 230 1277 230 1277 212.5 1275 c 128,-1,10
 195 1273 195 1273 187 1266 c 128,-1,11
 179 1259 179 1259 179.5 1245 c 128,-1,12
 180 1231 180 1231 185 1207 c 2,13,-1
 282 747 l 1,14,15
 332 748 332 748 383.5 748 c 128,-1,16
 435 748 435 748 482 751 c 128,-1,17
 529 754 529 754 570 761 c 128,-1,18
 611 768 611 768 639 783 c 0,0,1
898 369 m 0,19,20
 862 542 862 542 726 603 c 0,21,22
 589 666 589 666 397 666 c 2,23,-1
 337 666 l 2,24,25
 331 666 331 666 322 666 c 128,-1,26
 313 666 313 666 299 667 c 1,27,-1
 407 159 l 2,28,29
 412 133 412 133 420.5 117 c 128,-1,30
 429 101 429 101 449 92 c 128,-1,31
 469 83 469 83 503 79.5 c 128,-1,32
 537 76 537 76 593 76 c 0,33,34
 749 76 749 76 842 137 c 256,35,36
 935 198 935 198 898 369 c 0,19,20
26 39 m 1,37,38
 90 43 90 43 126.5 50.5 c 128,-1,39
 163 58 163 58 180.5 77.5 c 128,-1,40
 198 97 198 97 197 131.5 c 128,-1,41
 196 166 196 166 184 223 c 2,42,-1
 -8 1132 l 2,43,44
 -32 1243 -32 1243 -76 1276 c 0,45,46
 -121 1311 -121 1311 -244 1315 c 1,47,-1
 -253 1355 l 1,48,-1
 321 1355 l 2,49,50
 444 1355 444 1355 547 1336 c 128,-1,51
 650 1317 650 1317 728 1275.5 c 128,-1,52
 806 1234 806 1234 858 1167 c 128,-1,53
 910 1100 910 1100 930 1004 c 0,54,55
 945 933 945 933 930.5 877 c 128,-1,56
 916 821 916 821 876 783 c 0,57,58
 853 765 853 765 812.5 745.5 c 128,-1,59
 772 726 772 726 725 713 c 1,60,61
 871 677 871 677 986 600 c 0,62,63
 1103 521 1103 521 1133 377 c 0,64,65
 1171 198 1171 198 1063.5 99 c 128,-1,66
 956 0 956 0 703 0 c 2,67,-1
 35 0 l 1,68,-1
 26 39 l 1,37,38
EndSplineSet
Substitution2: "<17016,16016> Urdu Swash lookup 75 subtable" B
PairPos2: "'kern' Horizontal Kerning in Arabic lookup 0 subtable" afii57509 dx=0 dy=0 dh=0 dv=0 dx=0 dy=0 dh=260 dv=0
PairPos2: "'kern' Horizontal Kerning in Arabic lookup 0 subtable" uni06AB dx=0 dy=0 dh=0 dv=0 dx=0 dy=0 dh=260 dv=0
PairPos2: "'kern' Horizontal Kerning in Arabic lookup 0 subtable" uni06A9 dx=0 dy=0 dh=0 dv=0 dx=0 dy=0 dh=260 dv=0
PairPos2: "'kern' Horizontal Kerning in Arabic lookup 0 subtable" uniFB94 dx=0 dy=0 dh=0 dv=0 dx=0 dy=0 dh=260 dv=0
PairPos2: "'kern' Horizontal Kerning in Arabic lookup 0 subtable" uniFBD5 dx=0 dy=0 dh=0 dv=0 dx=0 dy=0 dh=260 dv=0
PairPos2: "'kern' Horizontal Kerning in Arabic lookup 0 subtable" uni06AB.ini dx=0 dy=0 dh=0 dv=0 dx=0 dy=0 dh=260 dv=0
PairPos2: "'kern' Horizontal Kerning in Arabic lookup 0 subtable" uniFB90 dx=0 dy=0 dh=0 dv=0 dx=0 dy=0 dh=260 dv=0
PairPos2: "'kern' Horizontal Kerning in Arabic lookup 0 subtable" uniFEDB dx=0 dy=0 dh=0 dv=0 dx=0 dy=0 dh=260 dv=0
PairPos2: "'kern' Horizontal Kerning in Arabic lookup 0 subtable" uni0671 dx=0 dy=0 dh=0 dv=0 dx=0 dy=0 dh=208 dv=0
PairPos2: "'kern' Horizontal Kerning in Arabic lookup 0 subtable" afii57410 dx=0 dy=0 dh=0 dv=0 dx=0 dy=0 dh=208 dv=0
PairPos2: "'kern' Horizontal Kerning in Arabic lookup 0 subtable" afii57415 dx=0 dy=0 dh=0 dv=0 dx=0 dy=0 dh=52 dv=0
EndChar

StartChar: C
Encoding: 67 67 38
AltUni2: 00216d.ffffffff.0
Width: 1366
GlyphClass: 2
Flags: W
LayerCount: 2
Fore
SplineSet
837 1313 m 0,0,1
 866 1313 866 1313 888 1329 c 128,-1,2
 910 1345 910 1345 913 1379 c 1,3,-1
 958 1379 l 1,4,-1
 1075 918 l 1,5,-1
 1026 918 l 1,6,7
 991 985 991 985 952 1040.5 c 128,-1,8
 913 1096 913 1096 872 1138 c 0,9,10
 793 1216 793 1216 699.5 1256 c 128,-1,11
 606 1296 606 1296 501 1296 c 0,12,13
 287 1296 287 1296 187 1126 c 0,14,15
 136 1041 136 1041 127.5 925 c 128,-1,16
 119 809 119 809 151 660 c 0,17,18
 209 387 209 387 386 224 c 0,19,20
 564 61 564 61 783 61 c 0,21,22
 944 61 944 61 1059 137 c 0,23,24
 1093 159 1093 159 1127 191 c 128,-1,25
 1161 223 1161 223 1200 268 c 1,26,-1
 1248 228 l 1,27,28
 1198 141 1198 141 1111 76 c 0,29,30
 963 -34 963 -34 762 -34 c 0,31,32
 605 -34 605 -34 464 18.5 c 128,-1,33
 323 71 323 71 211 164 c 128,-1,34
 99 257 99 257 20.5 385 c 128,-1,35
 -58 513 -58 513 -90 664 c 0,36,37
 -154 965 -154 965 -7 1166 c 0,38,39
 70 1273 70 1273 187 1326 c 128,-1,40
 304 1379 304 1379 465 1379 c 0,41,42
 576 1379 576 1379 700 1346 c 0,43,44
 823 1313 823 1313 837 1313 c 0,0,1
EndSplineSet
Substitution2: "<17016,16016> Urdu Swash lookup 75 subtable" C
PairPos2: "'kern' Horizontal Kerning in Arabic lookup 0 subtable" afii57509 dx=0 dy=0 dh=0 dv=0 dx=0 dy=0 dh=260 dv=0
PairPos2: "'kern' Horizontal Kerning in Arabic lookup 0 subtable" uni06AB dx=0 dy=0 dh=0 dv=0 dx=0 dy=0 dh=260 dv=0
PairPos2: "'kern' Horizontal Kerning in Arabic lookup 0 subtable" uni06A9 dx=0 dy=0 dh=0 dv=0 dx=0 dy=0 dh=260 dv=0
PairPos2: "'kern' Horizontal Kerning in Arabic lookup 0 subtable" uniFB94 dx=0 dy=0 dh=0 dv=0 dx=0 dy=0 dh=260 dv=0
PairPos2: "'kern' Horizontal Kerning in Arabic lookup 0 subtable" uniFBD5 dx=0 dy=0 dh=0 dv=0 dx=0 dy=0 dh=260 dv=0
PairPos2: "'kern' Horizontal Kerning in Arabic lookup 0 subtable" uni06AB.ini dx=0 dy=0 dh=0 dv=0 dx=0 dy=0 dh=260 dv=0
PairPos2: "'kern' Horizontal Kerning in Arabic lookup 0 subtable" uniFB90 dx=0 dy=0 dh=0 dv=0 dx=0 dy=0 dh=260 dv=0
PairPos2: "'kern' Horizontal Kerning in Arabic lookup 0 subtable" uniFEDB dx=0 dy=0 dh=0 dv=0 dx=0 dy=0 dh=260 dv=0
PairPos2: "'kern' Horizontal Kerning in Arabic lookup 0 subtable" uni0671 dx=0 dy=0 dh=0 dv=0 dx=0 dy=0 dh=208 dv=0
PairPos2: "'kern' Horizontal Kerning in Arabic lookup 0 subtable" afii57410 dx=0 dy=0 dh=0 dv=0 dx=0 dy=0 dh=208 dv=0
PairPos2: "'kern' Horizontal Kerning in Arabic lookup 0 subtable" afii57415 dx=0 dy=0 dh=0 dv=0 dx=0 dy=0 dh=52 dv=0
EndChar

StartChar: D
Encoding: 68 68 39
AltUni2: 00216e.ffffffff.0
Width: 1479
GlyphClass: 2
Flags: W
LayerCount: 2
Fore
SplineSet
531 78 m 0,0,1
 684 78 684 78 793 116.5 c 128,-1,2
 902 155 902 155 966.5 230 c 128,-1,3
 1031 305 1031 305 1048.5 415.5 c 128,-1,4
 1066 526 1066 526 1035 670 c 0,5,6
 1004 816 1004 816 936 929 c 128,-1,7
 868 1042 868 1042 769 1119.5 c 128,-1,8
 670 1197 670 1197 543.5 1237.5 c 128,-1,9
 417 1278 417 1278 268 1278 c 0,10,11
 235 1278 235 1278 213 1275 c 128,-1,12
 191 1272 191 1272 179.5 1263.5 c 128,-1,13
 168 1255 168 1255 165 1239.5 c 128,-1,14
 162 1224 162 1224 168 1198 c 2,15,-1
 388 159 l 2,16,17
 393 134 393 134 403 118 c 128,-1,18
 413 102 413 102 428.5 93 c 128,-1,19
 444 84 444 84 469 81 c 128,-1,20
 494 78 494 78 531 78 c 0,0,1
24 39 m 1,21,22
 78 45 78 45 112.5 55.5 c 128,-1,23
 147 66 147 66 162 79 c 0,24,25
 189 110 189 110 165 223 c 2,26,-1
 -27 1132 l 2,27,28
 -52 1244 -52 1244 -91 1275 c 0,29,30
 -132 1308 -132 1308 -246 1315 c 1,31,-1
 -255 1355 l 1,32,-1
 297 1355 l 2,33,34
 496 1355 496 1355 659 1309.5 c 128,-1,35
 822 1264 822 1264 944.5 1177 c 128,-1,36
 1067 1090 1067 1090 1147.5 963 c 128,-1,37
 1228 836 1228 836 1262 673 c 0,38,39
 1295 520 1295 520 1261 382 c 0,40,41
 1245 315 1245 315 1209 255.5 c 128,-1,42
 1173 196 1173 196 1123 149 c 0,43,44
 1092 120 1092 120 1053 97 c 128,-1,45
 1014 74 1014 74 975 58 c 0,46,47
 903 30 903 30 808.5 15 c 128,-1,48
 714 0 714 0 602 0 c 2,49,-1
 33 0 l 1,50,-1
 24 39 l 1,21,22
EndSplineSet
Substitution2: "<17016,16016> Urdu Swash lookup 75 subtable" D
PairPos2: "'kern' Horizontal Kerning in Arabic lookup 0 subtable" afii57509 dx=0 dy=0 dh=0 dv=0 dx=0 dy=0 dh=260 dv=0
PairPos2: "'kern' Horizontal Kerning in Arabic lookup 0 subtable" uni06AB dx=0 dy=0 dh=0 dv=0 dx=0 dy=0 dh=260 dv=0
PairPos2: "'kern' Horizontal Kerning in Arabic lookup 0 subtable" uni06A9 dx=0 dy=0 dh=0 dv=0 dx=0 dy=0 dh=260 dv=0
PairPos2: "'kern' Horizontal Kerning in Arabic lookup 0 subtable" uniFB94 dx=0 dy=0 dh=0 dv=0 dx=0 dy=0 dh=260 dv=0
PairPos2: "'kern' Horizontal Kerning in Arabic lookup 0 subtable" uniFBD5 dx=0 dy=0 dh=0 dv=0 dx=0 dy=0 dh=260 dv=0
PairPos2: "'kern' Horizontal Kerning in Arabic lookup 0 subtable" uni06AB.ini dx=0 dy=0 dh=0 dv=0 dx=0 dy=0 dh=260 dv=0
PairPos2: "'kern' Horizontal Kerning in Arabic lookup 0 subtable" uniFB90 dx=0 dy=0 dh=0 dv=0 dx=0 dy=0 dh=260 dv=0
PairPos2: "'kern' Horizontal Kerning in Arabic lookup 0 subtable" uniFEDB dx=0 dy=0 dh=0 dv=0 dx=0 dy=0 dh=260 dv=0
PairPos2: "'kern' Horizontal Kerning in Arabic lookup 0 subtable" uni0671 dx=0 dy=0 dh=0 dv=0 dx=0 dy=0 dh=208 dv=0
PairPos2: "'kern' Horizontal Kerning in Arabic lookup 0 subtable" afii57410 dx=0 dy=0 dh=0 dv=0 dx=0 dy=0 dh=208 dv=0
PairPos2: "'kern' Horizontal Kerning in Arabic lookup 0 subtable" afii57415 dx=0 dy=0 dh=0 dv=0 dx=0 dy=0 dh=52 dv=0
EndChar

StartChar: E
Encoding: 69 69 40
Width: 1251
GlyphClass: 2
Flags: W
LayerCount: 2
Fore
SplineSet
14 39 m 1,0,1
 126 51 126 51 152 79 c 0,2,3
 181 107 181 107 155 223 c 2,4,-1
 -37 1132 l 2,5,6
 -50 1187 -50 1187 -63.5 1221 c 128,-1,7
 -77 1255 -77 1255 -101 1274.5 c 128,-1,8
 -125 1294 -125 1294 -161.5 1302.5 c 128,-1,9
 -198 1311 -198 1311 -256 1315 c 1,10,-1
 -265 1355 l 1,11,-1
 823 1355 l 1,12,-1
 885 1060 l 1,13,-1
 838 1060 l 1,14,15
 785 1194 785 1194 724 1235 c 0,16,17
 665 1275 665 1275 485 1275 c 2,18,-1
 207 1275 l 2,19,20
 185 1275 185 1275 173 1271.5 c 128,-1,21
 161 1268 161 1268 155.5 1260.5 c 128,-1,22
 150 1253 150 1253 151 1240 c 128,-1,23
 152 1227 152 1227 157 1207 c 2,24,-1
 253 752 l 1,25,-1
 567 752 l 2,26,27
 697 752 697 752 725 791 c 0,28,29
 752 829 752 829 750 949 c 1,30,-1
 799 949 l 1,31,-1
 900 473 l 1,32,-1
 851 473 l 1,33,34
 802 592 802 592 758 630 c 0,35,36
 714 669 714 669 585 669 c 2,37,-1
 271 669 l 1,38,-1
 378 164 l 2,39,40
 391 104 391 104 430 93 c 0,41,42
 451 87 451 87 510 85 c 128,-1,43
 569 83 569 83 663 82 c 0,44,45
 763 82 763 82 839.5 94.5 c 128,-1,46
 916 107 916 107 960 127 c 0,47,48
 1003 151 1003 151 1036 205.5 c 128,-1,49
 1069 260 1069 260 1090 348 c 1,50,-1
 1149 348 l 1,51,-1
 1130 0 l 1,52,-1
 23 0 l 1,53,-1
 14 39 l 1,0,1
EndSplineSet
Substitution2: "<17016,16016> Urdu Swash lookup 75 subtable" E
PairPos2: "'kern' Horizontal Kerning in Arabic lookup 0 subtable" afii57509 dx=0 dy=0 dh=0 dv=0 dx=0 dy=0 dh=260 dv=0
PairPos2: "'kern' Horizontal Kerning in Arabic lookup 0 subtable" uni06AB dx=0 dy=0 dh=0 dv=0 dx=0 dy=0 dh=260 dv=0
PairPos2: "'kern' Horizontal Kerning in Arabic lookup 0 subtable" uni06A9 dx=0 dy=0 dh=0 dv=0 dx=0 dy=0 dh=260 dv=0
PairPos2: "'kern' Horizontal Kerning in Arabic lookup 0 subtable" uniFB94 dx=0 dy=0 dh=0 dv=0 dx=0 dy=0 dh=260 dv=0
PairPos2: "'kern' Horizontal Kerning in Arabic lookup 0 subtable" uniFBD5 dx=0 dy=0 dh=0 dv=0 dx=0 dy=0 dh=260 dv=0
PairPos2: "'kern' Horizontal Kerning in Arabic lookup 0 subtable" uni06AB.ini dx=0 dy=0 dh=0 dv=0 dx=0 dy=0 dh=260 dv=0
PairPos2: "'kern' Horizontal Kerning in Arabic lookup 0 subtable" uniFB90 dx=0 dy=0 dh=0 dv=0 dx=0 dy=0 dh=260 dv=0
PairPos2: "'kern' Horizontal Kerning in Arabic lookup 0 subtable" uniFEDB dx=0 dy=0 dh=0 dv=0 dx=0 dy=0 dh=260 dv=0
PairPos2: "'kern' Horizontal Kerning in Arabic lookup 0 subtable" uni0671 dx=0 dy=0 dh=0 dv=0 dx=0 dy=0 dh=208 dv=0
PairPos2: "'kern' Horizontal Kerning in Arabic lookup 0 subtable" afii57410 dx=0 dy=0 dh=0 dv=0 dx=0 dy=0 dh=208 dv=0
PairPos2: "'kern' Horizontal Kerning in Arabic lookup 0 subtable" afii57415 dx=0 dy=0 dh=0 dv=0 dx=0 dy=0 dh=52 dv=0
EndChar

StartChar: F
Encoding: 70 70 41
Width: 1139
GlyphClass: 2
Flags: W
LayerCount: 2
Fore
SplineSet
14 39 m 1,0,1
 134 53 134 53 156 83 c 0,2,3
 178 115 178 115 151 247 c 2,4,-1
 -37 1132 l 2,5,6
 -50 1187 -50 1187 -63.5 1221 c 128,-1,7
 -77 1255 -77 1255 -101 1274.5 c 128,-1,8
 -125 1294 -125 1294 -161.5 1302.5 c 128,-1,9
 -198 1311 -198 1311 -256 1315 c 1,10,-1
 -265 1355 l 1,11,-1
 826 1355 l 1,12,-1
 888 1060 l 1,13,-1
 836 1060 l 1,14,15
 786 1200 786 1200 720 1237 c 0,16,17
 653 1275 653 1275 485 1275 c 2,18,-1
 205 1275 l 2,19,20
 185 1275 185 1275 173.5 1272 c 128,-1,21
 162 1269 162 1269 157 1261.5 c 128,-1,22
 152 1254 152 1254 152 1240.5 c 128,-1,23
 152 1227 152 1227 157 1207 c 2,24,-1
 253 752 l 1,25,-1
 548 752 l 2,26,27
 678 752 678 752 706 791 c 0,28,29
 733 830 733 830 730 949 c 1,30,-1
 780 949 l 1,31,-1
 881 473 l 1,32,-1
 831 473 l 1,33,34
 785 591 785 591 739 630 c 0,35,36
 695 669 695 669 566 669 c 2,37,-1
 271 669 l 1,38,-1
 365 223 l 2,39,40
 377 166 377 166 391.5 132 c 128,-1,41
 406 98 406 98 430.5 78.5 c 128,-1,42
 455 59 455 59 492 51.5 c 128,-1,43
 529 44 529 44 589 39 c 1,44,-1
 598 0 l 1,45,-1
 23 0 l 1,46,-1
 14 39 l 1,0,1
EndSplineSet
Substitution2: "<17016,16016> Urdu Swash lookup 75 subtable" F
PairPos2: "'kern' Horizontal Kerning in Arabic lookup 0 subtable" afii57509 dx=0 dy=0 dh=0 dv=0 dx=0 dy=0 dh=260 dv=0
PairPos2: "'kern' Horizontal Kerning in Arabic lookup 0 subtable" uni06AB dx=0 dy=0 dh=0 dv=0 dx=0 dy=0 dh=260 dv=0
PairPos2: "'kern' Horizontal Kerning in Arabic lookup 0 subtable" uni06A9 dx=0 dy=0 dh=0 dv=0 dx=0 dy=0 dh=260 dv=0
PairPos2: "'kern' Horizontal Kerning in Arabic lookup 0 subtable" uniFB94 dx=0 dy=0 dh=0 dv=0 dx=0 dy=0 dh=260 dv=0
PairPos2: "'kern' Horizontal Kerning in Arabic lookup 0 subtable" uniFBD5 dx=0 dy=0 dh=0 dv=0 dx=0 dy=0 dh=260 dv=0
PairPos2: "'kern' Horizontal Kerning in Arabic lookup 0 subtable" uni06AB.ini dx=0 dy=0 dh=0 dv=0 dx=0 dy=0 dh=260 dv=0
PairPos2: "'kern' Horizontal Kerning in Arabic lookup 0 subtable" uniFB90 dx=0 dy=0 dh=0 dv=0 dx=0 dy=0 dh=260 dv=0
PairPos2: "'kern' Horizontal Kerning in Arabic lookup 0 subtable" uniFEDB dx=0 dy=0 dh=0 dv=0 dx=0 dy=0 dh=260 dv=0
PairPos2: "'kern' Horizontal Kerning in Arabic lookup 0 subtable" uni0671 dx=0 dy=0 dh=0 dv=0 dx=0 dy=0 dh=208 dv=0
PairPos2: "'kern' Horizontal Kerning in Arabic lookup 0 subtable" afii57410 dx=0 dy=0 dh=0 dv=0 dx=0 dy=0 dh=208 dv=0
PairPos2: "'kern' Horizontal Kerning in Arabic lookup 0 subtable" afii57415 dx=0 dy=0 dh=0 dv=0 dx=0 dy=0 dh=52 dv=0
EndChar

StartChar: G
Encoding: 71 71 42
Width: 1479
GlyphClass: 2
Flags: W
LayerCount: 2
Fore
SplineSet
844 1313 m 0,0,1
 866 1313 866 1313 879.5 1317.5 c 128,-1,2
 893 1322 893 1322 901.5 1330 c 128,-1,3
 910 1338 910 1338 915 1350.5 c 128,-1,4
 920 1363 920 1363 923 1379 c 1,5,-1
 970 1379 l 1,6,-1
 1061 947 l 1,7,-1
 1028 947 l 1,8,9
 983 1019 983 1019 937.5 1075.5 c 128,-1,10
 892 1132 892 1132 852 1168 c 0,11,12
 779 1229 779 1229 692 1262.5 c 128,-1,13
 605 1296 605 1296 511 1296 c 0,14,15
 415 1296 415 1296 335.5 1257 c 128,-1,16
 256 1218 256 1218 198 1146 c 1,17,18
 143 1071 143 1071 130 947.5 c 128,-1,19
 117 824 117 824 153 656 c 0,20,21
 213 376 213 376 395 216 c 0,22,23
 578 57 578 57 796 57 c 0,24,25
 833 57 833 57 881.5 64 c 128,-1,26
 930 71 930 71 971 86 c 0,27,28
 1007 98 1007 98 1026.5 108 c 128,-1,29
 1046 118 1046 118 1054 128 c 128,-1,30
 1062 138 1062 138 1062.5 150 c 128,-1,31
 1063 162 1063 162 1060 178 c 2,32,-1
 991 504 l 2,33,34
 965 622 965 622 925 650 c 0,35,36
 887 678 887 678 772 686 c 1,37,-1
 763 726 l 1,38,-1
 1286 726 l 1,39,-1
 1295 686 l 1,40,41
 1222 682 1222 682 1199 661 c 0,42,43
 1164 630 1164 630 1185 530 c 2,44,-1
 1270 128 l 2,45,46
 1273 116 1273 116 1253.5 99.5 c 128,-1,47
 1234 83 1234 83 1197 66 c 128,-1,48
 1160 49 1160 49 1111.5 31.5 c 128,-1,49
 1063 14 1063 14 1008 1 c 128,-1,50
 953 -12 953 -12 896.5 -20.5 c 128,-1,51
 840 -29 840 -29 788 -29 c 0,52,53
 485 -29 485 -29 245 146 c 0,54,55
 110 243 110 243 26.5 371 c 128,-1,56
 -57 499 -57 499 -92 664 c 0,57,58
 -114 764 -114 764 -109.5 856 c 128,-1,59
 -105 948 -105 948 -77.5 1027.5 c 128,-1,60
 -50 1107 -50 1107 0 1172 c 128,-1,61
 50 1237 50 1237 119 1283 c 128,-1,62
 188 1329 188 1329 275.5 1354 c 128,-1,63
 363 1379 363 1379 465 1379 c 0,64,65
 584 1379 584 1379 706 1346 c 0,66,67
 829 1313 829 1313 844 1313 c 0,0,1
EndSplineSet
Substitution2: "<17016,16016> Urdu Swash lookup 75 subtable" G
PairPos2: "'kern' Horizontal Kerning in Arabic lookup 0 subtable" afii57509 dx=0 dy=0 dh=0 dv=0 dx=0 dy=0 dh=260 dv=0
PairPos2: "'kern' Horizontal Kerning in Arabic lookup 0 subtable" uni06AB dx=0 dy=0 dh=0 dv=0 dx=0 dy=0 dh=260 dv=0
PairPos2: "'kern' Horizontal Kerning in Arabic lookup 0 subtable" uni06A9 dx=0 dy=0 dh=0 dv=0 dx=0 dy=0 dh=260 dv=0
PairPos2: "'kern' Horizontal Kerning in Arabic lookup 0 subtable" uniFB94 dx=0 dy=0 dh=0 dv=0 dx=0 dy=0 dh=260 dv=0
PairPos2: "'kern' Horizontal Kerning in Arabic lookup 0 subtable" uniFBD5 dx=0 dy=0 dh=0 dv=0 dx=0 dy=0 dh=260 dv=0
PairPos2: "'kern' Horizontal Kerning in Arabic lookup 0 subtable" uni06AB.ini dx=0 dy=0 dh=0 dv=0 dx=0 dy=0 dh=260 dv=0
PairPos2: "'kern' Horizontal Kerning in Arabic lookup 0 subtable" uniFB90 dx=0 dy=0 dh=0 dv=0 dx=0 dy=0 dh=260 dv=0
PairPos2: "'kern' Horizontal Kerning in Arabic lookup 0 subtable" uniFEDB dx=0 dy=0 dh=0 dv=0 dx=0 dy=0 dh=260 dv=0
PairPos2: "'kern' Horizontal Kerning in Arabic lookup 0 subtable" uni0671 dx=0 dy=0 dh=0 dv=0 dx=0 dy=0 dh=208 dv=0
PairPos2: "'kern' Horizontal Kerning in Arabic lookup 0 subtable" afii57410 dx=0 dy=0 dh=0 dv=0 dx=0 dy=0 dh=208 dv=0
PairPos2: "'kern' Horizontal Kerning in Arabic lookup 0 subtable" afii57415 dx=0 dy=0 dh=0 dv=0 dx=0 dy=0 dh=52 dv=0
EndChar

StartChar: H
Encoding: 72 72 43
Width: 1479
GlyphClass: 2
Flags: W
LayerCount: 2
Fore
SplineSet
24 39 m 1,0,1
 142 53 142 53 166 83 c 0,2,3
 188 115 188 115 161 247 c 2,4,-1
 -27 1132 l 2,5,6
 -39 1186 -39 1186 -52.5 1220 c 128,-1,7
 -66 1254 -66 1254 -90 1274 c 128,-1,8
 -114 1294 -114 1294 -151 1302.5 c 128,-1,9
 -188 1311 -188 1311 -246 1315 c 1,10,-1
 -255 1355 l 1,11,-1
 315 1355 l 1,12,-1
 324 1315 l 1,13,14
 268 1311 268 1311 234.5 1302.5 c 128,-1,15
 201 1294 201 1294 185.5 1274.5 c 128,-1,16
 170 1255 170 1255 169.5 1221 c 128,-1,17
 169 1187 169 1187 182 1132 c 2,18,-1
 266 735 l 1,19,-1
 885 735 l 1,20,-1
 801 1132 l 2,21,22
 777 1241 777 1241 737 1274 c 0,23,24
 696 1308 696 1308 582 1315 c 1,25,-1
 573 1355 l 1,26,-1
 1143 1355 l 1,27,-1
 1152 1315 l 1,28,29
 1097 1311 1097 1311 1063 1303 c 128,-1,30
 1029 1295 1029 1295 1013.5 1275.5 c 128,-1,31
 998 1256 998 1256 998.5 1222 c 128,-1,32
 999 1188 999 1188 1011 1132 c 2,33,-1
 1203 223 l 2,34,35
 1215 166 1215 166 1229.5 132 c 128,-1,36
 1244 98 1244 98 1268 79 c 128,-1,37
 1292 60 1292 60 1328.5 52 c 128,-1,38
 1365 44 1365 44 1422 39 c 1,39,-1
 1431 0 l 1,40,-1
 861 0 l 1,41,-1
 852 39 l 1,42,43
 971 51 971 51 994 83 c 0,44,45
 1016 115 1016 115 989 247 c 2,46,-1
 905 643 l 1,47,-1
 286 643 l 1,48,-1
 374 223 l 2,49,50
 399 111 399 111 439 80 c 0,51,52
 481 48 481 48 594 39 c 1,53,-1
 603 0 l 1,54,-1
 33 0 l 1,55,-1
 24 39 l 1,0,1
EndSplineSet
Substitution2: "<17016,16016> Urdu Swash lookup 75 subtable" H
PairPos2: "'kern' Horizontal Kerning in Arabic lookup 0 subtable" afii57509 dx=0 dy=0 dh=0 dv=0 dx=0 dy=0 dh=260 dv=0
PairPos2: "'kern' Horizontal Kerning in Arabic lookup 0 subtable" uni06AB dx=0 dy=0 dh=0 dv=0 dx=0 dy=0 dh=260 dv=0
PairPos2: "'kern' Horizontal Kerning in Arabic lookup 0 subtable" uni06A9 dx=0 dy=0 dh=0 dv=0 dx=0 dy=0 dh=260 dv=0
PairPos2: "'kern' Horizontal Kerning in Arabic lookup 0 subtable" uniFB94 dx=0 dy=0 dh=0 dv=0 dx=0 dy=0 dh=260 dv=0
PairPos2: "'kern' Horizontal Kerning in Arabic lookup 0 subtable" uniFBD5 dx=0 dy=0 dh=0 dv=0 dx=0 dy=0 dh=260 dv=0
PairPos2: "'kern' Horizontal Kerning in Arabic lookup 0 subtable" uni06AB.ini dx=0 dy=0 dh=0 dv=0 dx=0 dy=0 dh=260 dv=0
PairPos2: "'kern' Horizontal Kerning in Arabic lookup 0 subtable" uniFB90 dx=0 dy=0 dh=0 dv=0 dx=0 dy=0 dh=260 dv=0
PairPos2: "'kern' Horizontal Kerning in Arabic lookup 0 subtable" uniFEDB dx=0 dy=0 dh=0 dv=0 dx=0 dy=0 dh=260 dv=0
PairPos2: "'kern' Horizontal Kerning in Arabic lookup 0 subtable" uni0671 dx=0 dy=0 dh=0 dv=0 dx=0 dy=0 dh=208 dv=0
PairPos2: "'kern' Horizontal Kerning in Arabic lookup 0 subtable" afii57410 dx=0 dy=0 dh=0 dv=0 dx=0 dy=0 dh=208 dv=0
PairPos2: "'kern' Horizontal Kerning in Arabic lookup 0 subtable" afii57415 dx=0 dy=0 dh=0 dv=0 dx=0 dy=0 dh=52 dv=0
EndChar

StartChar: I
Encoding: 73 73 44
Width: 682
GlyphClass: 2
Flags: W
LayerCount: 2
Fore
SplineSet
23 39 m 1,0,1
 147 48 147 48 178 76 c 256,2,3
 209 104 209 104 183 223 c 2,4,-1
 -9 1132 l 2,5,6
 -33 1245 -33 1245 -77 1276 c 0,7,8
 -121 1309 -121 1309 -247 1315 c 1,9,-1
 -256 1355 l 1,10,-1
 352 1355 l 1,11,-1
 361 1315 l 1,12,13
 239 1309 239 1309 207 1276 c 0,14,15
 177 1245 177 1245 201 1132 c 2,16,-1
 393 223 l 2,17,18
 419 107 419 107 462 76 c 1,19,20
 508 48 508 48 631 39 c 1,21,-1
 640 0 l 1,22,-1
 32 0 l 1,23,-1
 23 39 l 1,0,1
EndSplineSet
Substitution2: "<17016,16016> Urdu Swash lookup 75 subtable" I
PairPos2: "'kern' Horizontal Kerning in Arabic lookup 0 subtable" afii57509 dx=0 dy=0 dh=0 dv=0 dx=0 dy=0 dh=260 dv=0
PairPos2: "'kern' Horizontal Kerning in Arabic lookup 0 subtable" uni06AB dx=0 dy=0 dh=0 dv=0 dx=0 dy=0 dh=260 dv=0
PairPos2: "'kern' Horizontal Kerning in Arabic lookup 0 subtable" uni06A9 dx=0 dy=0 dh=0 dv=0 dx=0 dy=0 dh=260 dv=0
PairPos2: "'kern' Horizontal Kerning in Arabic lookup 0 subtable" uniFB94 dx=0 dy=0 dh=0 dv=0 dx=0 dy=0 dh=260 dv=0
PairPos2: "'kern' Horizontal Kerning in Arabic lookup 0 subtable" uniFBD5 dx=0 dy=0 dh=0 dv=0 dx=0 dy=0 dh=260 dv=0
PairPos2: "'kern' Horizontal Kerning in Arabic lookup 0 subtable" uni06AB.ini dx=0 dy=0 dh=0 dv=0 dx=0 dy=0 dh=260 dv=0
PairPos2: "'kern' Horizontal Kerning in Arabic lookup 0 subtable" uniFB90 dx=0 dy=0 dh=0 dv=0 dx=0 dy=0 dh=260 dv=0
PairPos2: "'kern' Horizontal Kerning in Arabic lookup 0 subtable" uniFEDB dx=0 dy=0 dh=0 dv=0 dx=0 dy=0 dh=260 dv=0
PairPos2: "'kern' Horizontal Kerning in Arabic lookup 0 subtable" uni0671 dx=0 dy=0 dh=0 dv=0 dx=0 dy=0 dh=208 dv=0
PairPos2: "'kern' Horizontal Kerning in Arabic lookup 0 subtable" afii57410 dx=0 dy=0 dh=0 dv=0 dx=0 dy=0 dh=208 dv=0
PairPos2: "'kern' Horizontal Kerning in Arabic lookup 0 subtable" afii57415 dx=0 dy=0 dh=0 dv=0 dx=0 dy=0 dh=52 dv=0
EndChar

StartChar: J
Encoding: 74 74 45
Width: 797
GlyphClass: 2
Flags: W
LayerCount: 2
Fore
SplineSet
70 222 m 0,0,1
 103 222 103 222 134 199 c 128,-1,2
 165 176 165 176 191 135 c 0,3,4
 217 95 217 95 238 73 c 128,-1,5
 259 51 259 51 277 51 c 0,6,7
 316 51 316 51 324.5 86 c 128,-1,8
 333 121 333 121 315 207 c 2,9,-1
 118 1132 l 2,10,11
 94 1246 94 1246 50 1277 c 0,12,13
 6 1309 6 1309 -111 1315 c 1,14,-1
 -119 1355 l 1,15,-1
 470 1355 l 1,16,-1
 478 1315 l 1,17,18
 421 1311 421 1311 386 1302.5 c 128,-1,19
 351 1294 351 1294 334 1274 c 128,-1,20
 317 1254 317 1254 317 1220 c 128,-1,21
 317 1186 317 1186 328 1132 c 2,22,-1
 488 381 l 2,23,24
 510 277 510 277 499 201 c 128,-1,25
 488 125 488 125 452 75 c 128,-1,26
 416 25 416 25 358.5 0.5 c 128,-1,27
 301 -24 301 -24 229 -24 c 0,28,29
 181 -24 181 -24 141 -12 c 128,-1,30
 101 0 101 0 70 20 c 128,-1,31
 39 40 39 40 20 65.5 c 128,-1,32
 1 91 1 91 -5 119 c 0,33,34
 -11 148 -11 148 -6.5 168 c 128,-1,35
 -2 188 -2 188 9.5 200 c 128,-1,36
 21 212 21 212 37 217 c 128,-1,37
 53 222 53 222 70 222 c 0,0,1
EndSplineSet
Substitution2: "<17016,16016> Urdu Swash lookup 75 subtable" J
PairPos2: "'kern' Horizontal Kerning in Arabic lookup 0 subtable" afii57509 dx=0 dy=0 dh=0 dv=0 dx=0 dy=0 dh=260 dv=0
PairPos2: "'kern' Horizontal Kerning in Arabic lookup 0 subtable" uni06AB dx=0 dy=0 dh=0 dv=0 dx=0 dy=0 dh=260 dv=0
PairPos2: "'kern' Horizontal Kerning in Arabic lookup 0 subtable" uni06A9 dx=0 dy=0 dh=0 dv=0 dx=0 dy=0 dh=260 dv=0
PairPos2: "'kern' Horizontal Kerning in Arabic lookup 0 subtable" uniFB94 dx=0 dy=0 dh=0 dv=0 dx=0 dy=0 dh=260 dv=0
PairPos2: "'kern' Horizontal Kerning in Arabic lookup 0 subtable" uniFBD5 dx=0 dy=0 dh=0 dv=0 dx=0 dy=0 dh=260 dv=0
PairPos2: "'kern' Horizontal Kerning in Arabic lookup 0 subtable" uni06AB.ini dx=0 dy=0 dh=0 dv=0 dx=0 dy=0 dh=260 dv=0
PairPos2: "'kern' Horizontal Kerning in Arabic lookup 0 subtable" uniFB90 dx=0 dy=0 dh=0 dv=0 dx=0 dy=0 dh=260 dv=0
PairPos2: "'kern' Horizontal Kerning in Arabic lookup 0 subtable" uniFEDB dx=0 dy=0 dh=0 dv=0 dx=0 dy=0 dh=260 dv=0
PairPos2: "'kern' Horizontal Kerning in Arabic lookup 0 subtable" uni0671 dx=0 dy=0 dh=0 dv=0 dx=0 dy=0 dh=208 dv=0
PairPos2: "'kern' Horizontal Kerning in Arabic lookup 0 subtable" afii57410 dx=0 dy=0 dh=0 dv=0 dx=0 dy=0 dh=208 dv=0
PairPos2: "'kern' Horizontal Kerning in Arabic lookup 0 subtable" afii57415 dx=0 dy=0 dh=0 dv=0 dx=0 dy=0 dh=52 dv=0
EndChar

StartChar: K
Encoding: 75 75 46
AltUni2: 00212a.ffffffff.0
Width: 1479
GlyphClass: 2
Flags: W
LayerCount: 2
Fore
SplineSet
28 39 m 1,0,1
 153 50 153 50 175 83 c 0,2,3
 197 118 197 118 170 247 c 2,4,-1
 -18 1132 l 2,5,6
 -42 1241 -42 1241 -83 1274 c 0,7,8
 -104 1291 -104 1291 -143 1301.5 c 128,-1,9
 -182 1312 -182 1312 -242 1315 c 1,10,-1
 -251 1355 l 1,11,-1
 334 1355 l 1,12,-1
 343 1315 l 1,13,14
 282 1312 282 1312 247 1303.5 c 128,-1,15
 212 1295 212 1295 196 1275 c 128,-1,16
 180 1255 180 1255 180 1220.5 c 128,-1,17
 180 1186 180 1186 192 1132 c 2,18,-1
 280 716 l 1,19,20
 356 797 356 797 418.5 864 c 128,-1,21
 481 931 481 931 529 988 c 0,22,23
 614 1088 614 1088 654.5 1154.5 c 128,-1,24
 695 1221 695 1221 688 1249 c 0,25,26
 680 1290 680 1290 641 1302.5 c 128,-1,27
 602 1315 602 1315 535 1315 c 1,28,-1
 526 1355 l 1,29,-1
 1063 1355 l 1,30,-1
 1071 1320 l 1,31,32
 1025 1315 1025 1315 986.5 1305 c 128,-1,33
 948 1295 948 1295 922 1281 c 0,34,35
 899 1268 899 1268 867.5 1235.5 c 128,-1,36
 836 1203 836 1203 795 1154 c 0,37,38
 719 1059 719 1059 642 965 c 128,-1,39
 565 871 565 871 489 775 c 1,40,41
 493 771 493 771 519.5 748 c 128,-1,42
 546 725 546 725 586.5 689 c 128,-1,43
 627 653 627 653 677.5 609 c 128,-1,44
 728 565 728 565 780.5 518.5 c 128,-1,45
 833 472 833 472 884 428 c 128,-1,46
 935 384 935 384 974.5 348 c 128,-1,47
 1014 312 1014 312 1041 289 c 128,-1,48
 1068 266 1068 266 1073 262 c 0,49,50
 1149 195 1149 195 1205.5 149 c 128,-1,51
 1262 103 1262 103 1292 83 c 0,52,53
 1318 65 1318 65 1357 54 c 128,-1,54
 1396 43 1396 43 1442 37 c 1,55,-1
 1450 0 l 1,56,-1
 823 0 l 1,57,-1
 814 39 l 1,58,59
 859 41 859 41 886 43.5 c 128,-1,60
 913 46 913 46 927.5 52 c 128,-1,61
 942 58 942 58 946.5 67.5 c 128,-1,62
 951 77 951 77 948 93 c 0,63,64
 944 110 944 110 917.5 144.5 c 128,-1,65
 891 179 891 179 839 225 c 2,66,-1
 362 649 l 1,67,68
 348 635 348 635 334.5 620 c 128,-1,69
 321 605 321 605 307 591 c 1,70,-1
 384 223 l 2,71,72
 396 169 396 169 412.5 132.5 c 128,-1,73
 429 96 429 96 449 79 c 0,74,75
 493 50 493 50 608 39 c 1,76,-1
 617 0 l 1,77,-1
 37 0 l 1,78,-1
 28 39 l 1,0,1
EndSplineSet
Substitution2: "<17016,16016> Urdu Swash lookup 75 subtable" K
PairPos2: "'kern' Horizontal Kerning in Arabic lookup 0 subtable" afii57509 dx=0 dy=0 dh=0 dv=0 dx=0 dy=0 dh=260 dv=0
PairPos2: "'kern' Horizontal Kerning in Arabic lookup 0 subtable" uni06AB dx=0 dy=0 dh=0 dv=0 dx=0 dy=0 dh=260 dv=0
PairPos2: "'kern' Horizontal Kerning in Arabic lookup 0 subtable" uni06A9 dx=0 dy=0 dh=0 dv=0 dx=0 dy=0 dh=260 dv=0
PairPos2: "'kern' Horizontal Kerning in Arabic lookup 0 subtable" uniFB94 dx=0 dy=0 dh=0 dv=0 dx=0 dy=0 dh=260 dv=0
PairPos2: "'kern' Horizontal Kerning in Arabic lookup 0 subtable" uniFBD5 dx=0 dy=0 dh=0 dv=0 dx=0 dy=0 dh=260 dv=0
PairPos2: "'kern' Horizontal Kerning in Arabic lookup 0 subtable" uni06AB.ini dx=0 dy=0 dh=0 dv=0 dx=0 dy=0 dh=260 dv=0
PairPos2: "'kern' Horizontal Kerning in Arabic lookup 0 subtable" uniFB90 dx=0 dy=0 dh=0 dv=0 dx=0 dy=0 dh=260 dv=0
PairPos2: "'kern' Horizontal Kerning in Arabic lookup 0 subtable" uniFEDB dx=0 dy=0 dh=0 dv=0 dx=0 dy=0 dh=260 dv=0
PairPos2: "'kern' Horizontal Kerning in Arabic lookup 0 subtable" uni0671 dx=0 dy=0 dh=0 dv=0 dx=0 dy=0 dh=208 dv=0
PairPos2: "'kern' Horizontal Kerning in Arabic lookup 0 subtable" afii57410 dx=0 dy=0 dh=0 dv=0 dx=0 dy=0 dh=208 dv=0
PairPos2: "'kern' Horizontal Kerning in Arabic lookup 0 subtable" afii57415 dx=0 dy=0 dh=0 dv=0 dx=0 dy=0 dh=52 dv=0
EndChar

StartChar: L
Encoding: 76 76 47
AltUni2: 00216c.ffffffff.0
Width: 1251
GlyphClass: 2
Flags: W
LayerCount: 2
Fore
SplineSet
14 39 m 1,0,1
 126 51 126 51 152 79 c 0,2,3
 181 107 181 107 155 223 c 2,4,-1
 -37 1132 l 2,5,6
 -50 1187 -50 1187 -63.5 1221 c 128,-1,7
 -77 1255 -77 1255 -101 1274.5 c 128,-1,8
 -125 1294 -125 1294 -161.5 1302.5 c 128,-1,9
 -198 1311 -198 1311 -256 1315 c 1,10,-1
 -265 1355 l 1,11,-1
 315 1355 l 1,12,-1
 324 1315 l 1,13,14
 267 1312 267 1312 232 1304 c 128,-1,15
 197 1296 197 1296 179.5 1278 c 128,-1,16
 162 1260 162 1260 160 1228.5 c 128,-1,17
 158 1197 158 1197 170 1146 c 2,18,-1
 378 164 l 2,19,20
 384 136 384 136 395 119.5 c 128,-1,21
 406 103 406 103 430 94.5 c 128,-1,22
 454 86 454 86 494.5 84 c 128,-1,23
 535 82 535 82 600 82 c 0,24,25
 731 82 731 82 823 94.5 c 128,-1,26
 915 107 915 107 959 127 c 0,27,28
 1043 173 1043 173 1095 357 c 1,29,-1
 1149 357 l 1,30,-1
 1125 0 l 1,31,-1
 23 0 l 1,32,-1
 14 39 l 1,0,1
EndSplineSet
Substitution2: "<17016,16016> Urdu Swash lookup 75 subtable" L
PairPos2: "'kern' Horizontal Kerning in Arabic lookup 0 subtable" afii57509 dx=0 dy=0 dh=0 dv=0 dx=0 dy=0 dh=260 dv=0
PairPos2: "'kern' Horizontal Kerning in Arabic lookup 0 subtable" uni06AB dx=0 dy=0 dh=0 dv=0 dx=0 dy=0 dh=260 dv=0
PairPos2: "'kern' Horizontal Kerning in Arabic lookup 0 subtable" uni06A9 dx=0 dy=0 dh=0 dv=0 dx=0 dy=0 dh=260 dv=0
PairPos2: "'kern' Horizontal Kerning in Arabic lookup 0 subtable" uniFB94 dx=0 dy=0 dh=0 dv=0 dx=0 dy=0 dh=260 dv=0
PairPos2: "'kern' Horizontal Kerning in Arabic lookup 0 subtable" uniFBD5 dx=0 dy=0 dh=0 dv=0 dx=0 dy=0 dh=260 dv=0
PairPos2: "'kern' Horizontal Kerning in Arabic lookup 0 subtable" uni06AB.ini dx=0 dy=0 dh=0 dv=0 dx=0 dy=0 dh=260 dv=0
PairPos2: "'kern' Horizontal Kerning in Arabic lookup 0 subtable" uniFB90 dx=0 dy=0 dh=0 dv=0 dx=0 dy=0 dh=260 dv=0
PairPos2: "'kern' Horizontal Kerning in Arabic lookup 0 subtable" uniFEDB dx=0 dy=0 dh=0 dv=0 dx=0 dy=0 dh=260 dv=0
PairPos2: "'kern' Horizontal Kerning in Arabic lookup 0 subtable" uni0671 dx=0 dy=0 dh=0 dv=0 dx=0 dy=0 dh=208 dv=0
PairPos2: "'kern' Horizontal Kerning in Arabic lookup 0 subtable" afii57410 dx=0 dy=0 dh=0 dv=0 dx=0 dy=0 dh=208 dv=0
PairPos2: "'kern' Horizontal Kerning in Arabic lookup 0 subtable" afii57415 dx=0 dy=0 dh=0 dv=0 dx=0 dy=0 dh=52 dv=0
EndChar

StartChar: M
Encoding: 77 77 48
AltUni2: 00216f.ffffffff.0
Width: 1821
GlyphClass: 2
Flags: W
LayerCount: 2
Fore
SplineSet
14 39 m 1,0,1
 139 52 139 52 165 96 c 0,2,3
 192 141 192 141 158 302 c 2,4,-1
 -18 1132 l 2,5,6
 -42 1242 -42 1242 -84 1275 c 0,7,8
 -125 1309 -125 1309 -251 1315 c 1,9,-1
 -260 1355 l 1,10,-1
 147 1355 l 1,11,-1
 838 325 l 1,12,13
 897 583 897 583 954.5 840 c 128,-1,14
 1012 1097 1012 1097 1070 1355 c 1,15,-1
 1480 1355 l 1,16,-1
 1489 1315 l 1,17,18
 1433 1311 1433 1311 1399.5 1302.5 c 128,-1,19
 1366 1294 1366 1294 1351 1274.5 c 128,-1,20
 1336 1255 1336 1255 1335.5 1221 c 128,-1,21
 1335 1187 1335 1187 1348 1132 c 2,22,-1
 1540 223 l 2,23,24
 1552 167 1552 167 1566 133 c 128,-1,25
 1580 99 1580 99 1603.5 80 c 128,-1,26
 1627 61 1627 61 1663.5 52.5 c 128,-1,27
 1700 44 1700 44 1759 39 c 1,28,-1
 1768 0 l 1,29,-1
 1193 0 l 1,30,-1
 1184 39 l 1,31,32
 1307 50 1307 50 1329 83 c 0,33,34
 1352 117 1352 117 1325 247 c 2,35,-1
 1130 1161 l 1,36,37
 1061 870 1061 870 993 580.5 c 128,-1,38
 925 291 925 291 856 0 c 1,39,-1
 826 0 l 1,40,-1
 78 1113 l 1,41,-1
 250 302 l 2,42,43
 285 134 285 134 345 84 c 0,44,45
 383 51 383 51 497 39 c 1,46,-1
 506 0 l 1,47,-1
 23 0 l 1,48,-1
 14 39 l 1,0,1
EndSplineSet
Substitution2: "<17016,16016> Urdu Swash lookup 75 subtable" M
PairPos2: "'kern' Horizontal Kerning in Arabic lookup 0 subtable" afii57509 dx=0 dy=0 dh=0 dv=0 dx=0 dy=0 dh=260 dv=0
PairPos2: "'kern' Horizontal Kerning in Arabic lookup 0 subtable" uni06AB dx=0 dy=0 dh=0 dv=0 dx=0 dy=0 dh=260 dv=0
PairPos2: "'kern' Horizontal Kerning in Arabic lookup 0 subtable" uni06A9 dx=0 dy=0 dh=0 dv=0 dx=0 dy=0 dh=260 dv=0
PairPos2: "'kern' Horizontal Kerning in Arabic lookup 0 subtable" uniFB94 dx=0 dy=0 dh=0 dv=0 dx=0 dy=0 dh=260 dv=0
PairPos2: "'kern' Horizontal Kerning in Arabic lookup 0 subtable" uniFBD5 dx=0 dy=0 dh=0 dv=0 dx=0 dy=0 dh=260 dv=0
PairPos2: "'kern' Horizontal Kerning in Arabic lookup 0 subtable" uni06AB.ini dx=0 dy=0 dh=0 dv=0 dx=0 dy=0 dh=260 dv=0
PairPos2: "'kern' Horizontal Kerning in Arabic lookup 0 subtable" uniFB90 dx=0 dy=0 dh=0 dv=0 dx=0 dy=0 dh=260 dv=0
PairPos2: "'kern' Horizontal Kerning in Arabic lookup 0 subtable" uniFEDB dx=0 dy=0 dh=0 dv=0 dx=0 dy=0 dh=260 dv=0
PairPos2: "'kern' Horizontal Kerning in Arabic lookup 0 subtable" uni0671 dx=0 dy=0 dh=0 dv=0 dx=0 dy=0 dh=208 dv=0
PairPos2: "'kern' Horizontal Kerning in Arabic lookup 0 subtable" afii57410 dx=0 dy=0 dh=0 dv=0 dx=0 dy=0 dh=208 dv=0
PairPos2: "'kern' Horizontal Kerning in Arabic lookup 0 subtable" afii57415 dx=0 dy=0 dh=0 dv=0 dx=0 dy=0 dh=52 dv=0
EndChar

StartChar: N
Encoding: 78 78 49
Width: 1479
GlyphClass: 2
Flags: W
LayerCount: 2
Fore
SplineSet
14 39 m 1,0,1
 139 52 139 52 165 96 c 0,2,3
 192 141 192 141 158 302 c 2,4,-1
 -34 1202 l 1,5,6
 -72 1240 -72 1240 -98 1262.5 c 128,-1,7
 -124 1285 -124 1285 -147 1296 c 128,-1,8
 -170 1307 -170 1307 -195 1310.5 c 128,-1,9
 -220 1314 -220 1314 -256 1315 c 1,10,-1
 -265 1355 l 1,11,-1
 88 1355 l 1,12,-1
 1081 373 l 1,13,-1
 937 1054 l 2,14,15
 901 1220 901 1220 840 1272 c 0,16,17
 803 1304 803 1304 687 1315 c 1,18,-1
 678 1355 l 1,19,-1
 1160 1355 l 1,20,-1
 1169 1315 l 1,21,22
 1113 1309 1113 1309 1076.5 1294 c 128,-1,23
 1040 1279 1040 1279 1024 1258 c 0,24,25
 996 1210 996 1210 1029 1054 c 2,26,-1
 1258 -24 l 1,27,-1
 1221 -24 l 1,28,-1
 82 1095 l 1,29,-1
 250 302 l 2,30,31
 285 134 285 134 345 84 c 0,32,33
 385 51 385 51 496 39 c 1,34,-1
 505 0 l 1,35,-1
 23 0 l 1,36,-1
 14 39 l 1,0,1
EndSplineSet
Substitution2: "<17016,16016> Urdu Swash lookup 75 subtable" N
PairPos2: "'kern' Horizontal Kerning in Arabic lookup 0 subtable" afii57509 dx=0 dy=0 dh=0 dv=0 dx=0 dy=0 dh=260 dv=0
PairPos2: "'kern' Horizontal Kerning in Arabic lookup 0 subtable" uni06AB dx=0 dy=0 dh=0 dv=0 dx=0 dy=0 dh=260 dv=0
PairPos2: "'kern' Horizontal Kerning in Arabic lookup 0 subtable" uni06A9 dx=0 dy=0 dh=0 dv=0 dx=0 dy=0 dh=260 dv=0
PairPos2: "'kern' Horizontal Kerning in Arabic lookup 0 subtable" uniFB94 dx=0 dy=0 dh=0 dv=0 dx=0 dy=0 dh=260 dv=0
PairPos2: "'kern' Horizontal Kerning in Arabic lookup 0 subtable" uniFBD5 dx=0 dy=0 dh=0 dv=0 dx=0 dy=0 dh=260 dv=0
PairPos2: "'kern' Horizontal Kerning in Arabic lookup 0 subtable" uni06AB.ini dx=0 dy=0 dh=0 dv=0 dx=0 dy=0 dh=260 dv=0
PairPos2: "'kern' Horizontal Kerning in Arabic lookup 0 subtable" uniFB90 dx=0 dy=0 dh=0 dv=0 dx=0 dy=0 dh=260 dv=0
PairPos2: "'kern' Horizontal Kerning in Arabic lookup 0 subtable" uniFEDB dx=0 dy=0 dh=0 dv=0 dx=0 dy=0 dh=260 dv=0
PairPos2: "'kern' Horizontal Kerning in Arabic lookup 0 subtable" uni0671 dx=0 dy=0 dh=0 dv=0 dx=0 dy=0 dh=208 dv=0
PairPos2: "'kern' Horizontal Kerning in Arabic lookup 0 subtable" afii57410 dx=0 dy=0 dh=0 dv=0 dx=0 dy=0 dh=208 dv=0
PairPos2: "'kern' Horizontal Kerning in Arabic lookup 0 subtable" afii57415 dx=0 dy=0 dh=0 dv=0 dx=0 dy=0 dh=52 dv=0
EndChar

StartChar: O
Encoding: 79 79 50
Width: 1479
GlyphClass: 2
Flags: W
LayerCount: 2
Fore
SplineSet
722 47 m 0,0,1
 903 47 903 47 998 197 c 0,2,3
 1094 349 1094 349 1024 677 c 0,4,5
 953 1012 953 1012 793 1159 c 0,6,7
 630 1308 630 1308 454 1308 c 0,8,9
 271 1308 271 1308 176 1153 c 0,10,11
 83 1000 83 1000 151 677 c 0,12,13
 219 356 219 356 378 201 c 0,14,15
 538 47 538 47 722 47 c 0,0,1
11 1203 m 0,16,17
 160 1384 160 1384 438 1384 c 0,18,19
 581 1384 581 1384 714.5 1332 c 128,-1,20
 848 1280 848 1280 958 1186 c 128,-1,21
 1068 1092 1068 1092 1147 962.5 c 128,-1,22
 1226 833 1226 833 1259 677 c 0,23,24
 1330 344 1330 344 1160 147 c 0,25,26
 1007 -29 1007 -29 738 -29 c 0,27,28
 449 -29 449 -29 219 166 c 0,29,30
 -17 365 -17 365 -83 677 c 0,31,32
 -153 1006 -153 1006 11 1203 c 0,16,17
EndSplineSet
Substitution2: "<17016,16016> Urdu Swash lookup 75 subtable" O
PairPos2: "'kern' Horizontal Kerning in Arabic lookup 0 subtable" afii57509 dx=0 dy=0 dh=0 dv=0 dx=0 dy=0 dh=260 dv=0
PairPos2: "'kern' Horizontal Kerning in Arabic lookup 0 subtable" uni06AB dx=0 dy=0 dh=0 dv=0 dx=0 dy=0 dh=260 dv=0
PairPos2: "'kern' Horizontal Kerning in Arabic lookup 0 subtable" uni06A9 dx=0 dy=0 dh=0 dv=0 dx=0 dy=0 dh=260 dv=0
PairPos2: "'kern' Horizontal Kerning in Arabic lookup 0 subtable" uniFB94 dx=0 dy=0 dh=0 dv=0 dx=0 dy=0 dh=260 dv=0
PairPos2: "'kern' Horizontal Kerning in Arabic lookup 0 subtable" uniFBD5 dx=0 dy=0 dh=0 dv=0 dx=0 dy=0 dh=260 dv=0
PairPos2: "'kern' Horizontal Kerning in Arabic lookup 0 subtable" uni06AB.ini dx=0 dy=0 dh=0 dv=0 dx=0 dy=0 dh=260 dv=0
PairPos2: "'kern' Horizontal Kerning in Arabic lookup 0 subtable" uniFB90 dx=0 dy=0 dh=0 dv=0 dx=0 dy=0 dh=260 dv=0
PairPos2: "'kern' Horizontal Kerning in Arabic lookup 0 subtable" uniFEDB dx=0 dy=0 dh=0 dv=0 dx=0 dy=0 dh=260 dv=0
PairPos2: "'kern' Horizontal Kerning in Arabic lookup 0 subtable" uni0671 dx=0 dy=0 dh=0 dv=0 dx=0 dy=0 dh=208 dv=0
PairPos2: "'kern' Horizontal Kerning in Arabic lookup 0 subtable" afii57410 dx=0 dy=0 dh=0 dv=0 dx=0 dy=0 dh=208 dv=0
PairPos2: "'kern' Horizontal Kerning in Arabic lookup 0 subtable" afii57415 dx=0 dy=0 dh=0 dv=0 dx=0 dy=0 dh=52 dv=0
EndChar

StartChar: P
Encoding: 80 80 51
Width: 1139
GlyphClass: 2
Flags: W
LayerCount: 2
Fore
SplineSet
460 1239 m 0,0,1
 364 1277 364 1277 232 1277 c 0,2,3
 202 1277 202 1277 185 1275 c 128,-1,4
 168 1273 168 1273 160 1266 c 128,-1,5
 152 1259 152 1259 151.5 1245.5 c 128,-1,6
 151 1232 151 1232 156 1210 c 2,7,-1
 269 678 l 1,8,9
 298 676 298 676 314 674.5 c 128,-1,10
 330 673 330 673 340 672.5 c 128,-1,11
 350 672 350 672 357.5 671.5 c 128,-1,12
 365 671 365 671 375 671 c 0,13,14
 566 671 566 671 637.5 749 c 128,-1,15
 709 827 709 827 676 983 c 0,16,17
 636 1168 636 1168 460 1239 c 0,0,1
24 39 m 1,18,19
 137 49 137 49 161 85 c 0,20,21
 171 104 171 104 169.5 144.5 c 128,-1,22
 168 185 168 185 156 247 c 2,23,-1
 -32 1132 l 2,24,25
 -44 1185 -44 1185 -57.5 1218 c 128,-1,26
 -71 1251 -71 1251 -93.5 1271.5 c 128,-1,27
 -116 1292 -116 1292 -152.5 1301.5 c 128,-1,28
 -189 1311 -189 1311 -246 1315 c 1,29,-1
 -255 1355 l 1,30,-1
 285 1355 l 2,31,32
 416 1355 416 1355 522 1328.5 c 128,-1,33
 628 1302 628 1302 706 1253.5 c 128,-1,34
 784 1205 784 1205 832.5 1137.5 c 128,-1,35
 881 1070 881 1070 899 988 c 0,36,37
 944 779 944 779 810 684 c 0,38,39
 679 590 679 590 447 590 c 0,40,41
 435 590 435 590 416 590.5 c 128,-1,42
 397 591 397 591 374.5 591.5 c 128,-1,43
 352 592 352 592 329 592.5 c 128,-1,44
 306 593 306 593 287 593 c 1,45,-1
 365 223 l 2,46,47
 377 169 377 169 394.5 132 c 128,-1,48
 412 95 412 95 432 78 c 0,49,50
 454 64 454 64 495.5 54 c 128,-1,51
 537 44 537 44 598 39 c 1,52,-1
 607 0 l 1,53,-1
 33 0 l 1,54,-1
 24 39 l 1,18,19
EndSplineSet
Substitution2: "<17016,16016> Urdu Swash lookup 75 subtable" P
PairPos2: "'kern' Horizontal Kerning in Arabic lookup 0 subtable" afii57509 dx=0 dy=0 dh=0 dv=0 dx=0 dy=0 dh=260 dv=0
PairPos2: "'kern' Horizontal Kerning in Arabic lookup 0 subtable" uni06AB dx=0 dy=0 dh=0 dv=0 dx=0 dy=0 dh=260 dv=0
PairPos2: "'kern' Horizontal Kerning in Arabic lookup 0 subtable" uni06A9 dx=0 dy=0 dh=0 dv=0 dx=0 dy=0 dh=260 dv=0
PairPos2: "'kern' Horizontal Kerning in Arabic lookup 0 subtable" uniFB94 dx=0 dy=0 dh=0 dv=0 dx=0 dy=0 dh=260 dv=0
PairPos2: "'kern' Horizontal Kerning in Arabic lookup 0 subtable" uniFBD5 dx=0 dy=0 dh=0 dv=0 dx=0 dy=0 dh=260 dv=0
PairPos2: "'kern' Horizontal Kerning in Arabic lookup 0 subtable" uni06AB.ini dx=0 dy=0 dh=0 dv=0 dx=0 dy=0 dh=260 dv=0
PairPos2: "'kern' Horizontal Kerning in Arabic lookup 0 subtable" uniFB90 dx=0 dy=0 dh=0 dv=0 dx=0 dy=0 dh=260 dv=0
PairPos2: "'kern' Horizontal Kerning in Arabic lookup 0 subtable" uniFEDB dx=0 dy=0 dh=0 dv=0 dx=0 dy=0 dh=260 dv=0
PairPos2: "'kern' Horizontal Kerning in Arabic lookup 0 subtable" uni0671 dx=0 dy=0 dh=0 dv=0 dx=0 dy=0 dh=208 dv=0
PairPos2: "'kern' Horizontal Kerning in Arabic lookup 0 subtable" afii57410 dx=0 dy=0 dh=0 dv=0 dx=0 dy=0 dh=208 dv=0
PairPos2: "'kern' Horizontal Kerning in Arabic lookup 0 subtable" afii57415 dx=0 dy=0 dh=0 dv=0 dx=0 dy=0 dh=52 dv=0
EndChar

StartChar: Q
Encoding: 81 81 52
Width: 1479
GlyphClass: 2
Flags: W
LayerCount: 2
Fore
SplineSet
722 47 m 0,0,1
 903 47 903 47 998 197 c 0,2,3
 1094 349 1094 349 1024 677 c 0,4,5
 953 1012 953 1012 793 1159 c 0,6,7
 630 1308 630 1308 454 1308 c 0,8,9
 271 1308 271 1308 176 1153 c 0,10,11
 83 1000 83 1000 151 677 c 0,12,13
 219 356 219 356 378 201 c 0,14,15
 538 47 538 47 722 47 c 0,0,1
11 1203 m 0,16,17
 160 1384 160 1384 438 1384 c 0,18,19
 710 1384 710 1384 938 1205 c 0,20,21
 1188 1010 1188 1010 1259 677 c 0,22,23
 1315 415 1315 415 1220 234 c 0,24,25
 1118 39 1118 39 867 -12 c 1,26,27
 948 -101 948 -101 1036 -164 c 128,-1,28
 1124 -227 1124 -227 1217 -264 c 0,29,30
 1270 -285 1270 -285 1342.5 -300.5 c 128,-1,31
 1415 -316 1415 -316 1498 -326 c 1,32,-1
 1506 -364 l 1,33,-1
 1421 -364 l 2,34,35
 1255 -364 1255 -364 1121.5 -337.5 c 128,-1,36
 988 -311 988 -311 871 -256 c 0,37,38
 751 -199 751 -199 644 -106 c 0,39,40
 532 -7 532 -7 524 -5 c 2,41,-1
 496 7 l 2,42,43
 402 46 402 46 326.5 92.5 c 128,-1,44
 251 139 251 139 194 187 c 0,45,46
 86 281 86 281 18 403 c 128,-1,47
 -50 525 -50 525 -83 677 c 0,48,49
 -153 1006 -153 1006 11 1203 c 0,16,17
EndSplineSet
Substitution2: "<17016,16016> Urdu Swash lookup 75 subtable" Q
PairPos2: "'kern' Horizontal Kerning in Arabic lookup 0 subtable" afii57509 dx=0 dy=0 dh=0 dv=0 dx=0 dy=0 dh=260 dv=0
PairPos2: "'kern' Horizontal Kerning in Arabic lookup 0 subtable" uni06AB dx=0 dy=0 dh=0 dv=0 dx=0 dy=0 dh=260 dv=0
PairPos2: "'kern' Horizontal Kerning in Arabic lookup 0 subtable" uni06A9 dx=0 dy=0 dh=0 dv=0 dx=0 dy=0 dh=260 dv=0
PairPos2: "'kern' Horizontal Kerning in Arabic lookup 0 subtable" uniFB94 dx=0 dy=0 dh=0 dv=0 dx=0 dy=0 dh=260 dv=0
PairPos2: "'kern' Horizontal Kerning in Arabic lookup 0 subtable" uniFBD5 dx=0 dy=0 dh=0 dv=0 dx=0 dy=0 dh=260 dv=0
PairPos2: "'kern' Horizontal Kerning in Arabic lookup 0 subtable" uni06AB.ini dx=0 dy=0 dh=0 dv=0 dx=0 dy=0 dh=260 dv=0
PairPos2: "'kern' Horizontal Kerning in Arabic lookup 0 subtable" uniFB90 dx=0 dy=0 dh=0 dv=0 dx=0 dy=0 dh=260 dv=0
PairPos2: "'kern' Horizontal Kerning in Arabic lookup 0 subtable" uniFEDB dx=0 dy=0 dh=0 dv=0 dx=0 dy=0 dh=260 dv=0
PairPos2: "'kern' Horizontal Kerning in Arabic lookup 0 subtable" uni0671 dx=0 dy=0 dh=0 dv=0 dx=0 dy=0 dh=208 dv=0
PairPos2: "'kern' Horizontal Kerning in Arabic lookup 0 subtable" afii57410 dx=0 dy=0 dh=0 dv=0 dx=0 dy=0 dh=208 dv=0
PairPos2: "'kern' Horizontal Kerning in Arabic lookup 0 subtable" afii57415 dx=0 dy=0 dh=0 dv=0 dx=0 dy=0 dh=52 dv=0
EndChar

StartChar: R
Encoding: 82 82 53
Width: 1366
GlyphClass: 2
Flags: W
LayerCount: 2
Fore
SplineSet
564 748 m 0,0,1
 711 816 711 816 672 999 c 0,2,3
 614 1275 614 1275 262 1275 c 0,4,5
 219 1275 219 1275 194.5 1272.5 c 128,-1,6
 170 1270 170 1270 159 1262.5 c 128,-1,7
 148 1255 148 1255 147.5 1241.5 c 128,-1,8
 147 1228 147 1228 152 1205 c 2,9,-1
 259 702 l 1,10,11
 367 706 367 706 444 717.5 c 128,-1,12
 521 729 521 729 564 748 c 0,0,1
14 39 m 1,13,14
 72 44 72 44 106 56 c 128,-1,15
 140 68 140 68 152 85 c 0,16,17
 162 103 162 103 160.5 144 c 128,-1,18
 159 185 159 185 147 247 c 2,19,-1
 -41 1132 l 2,20,21
 -53 1186 -53 1186 -67 1219.5 c 128,-1,22
 -81 1253 -81 1253 -103.5 1272.5 c 128,-1,23
 -126 1292 -126 1292 -162.5 1301.5 c 128,-1,24
 -199 1311 -199 1311 -256 1315 c 1,25,-1
 -265 1355 l 1,26,-1
 302 1355 l 2,27,28
 560 1355 560 1355 710 1262 c 128,-1,29
 860 1169 860 1169 897 997 c 0,30,31
 913 919 913 919 899.5 860.5 c 128,-1,32
 886 802 886 802 847.5 760 c 128,-1,33
 809 718 809 718 746.5 692 c 128,-1,34
 684 666 684 666 602 653 c 1,35,36
 608 648 608 648 632.5 624.5 c 128,-1,37
 657 601 657 601 693.5 565.5 c 128,-1,38
 730 530 730 530 775.5 485.5 c 128,-1,39
 821 441 821 441 868 395 c 128,-1,40
 915 349 915 349 960 304.5 c 128,-1,41
 1005 260 1005 260 1042 224.5 c 128,-1,42
 1079 189 1079 189 1103 165.5 c 128,-1,43
 1127 142 1127 142 1132 137 c 0,44,45
 1179 91 1179 91 1225 68 c 128,-1,46
 1271 45 1271 45 1330 39 c 1,47,-1
 1339 0 l 1,48,-1
 1008 0 l 1,49,-1
 387 629 l 1,50,51
 359 628 359 628 330.5 626.5 c 128,-1,52
 302 625 302 625 276 624 c 1,53,-1
 360 223 l 2,54,55
 372 169 372 169 388.5 132.5 c 128,-1,56
 405 96 405 96 425 79 c 0,57,58
 469 50 469 50 584 39 c 1,59,-1
 593 0 l 1,60,-1
 23 0 l 1,61,-1
 14 39 l 1,13,14
EndSplineSet
Substitution2: "<17016,16016> Urdu Swash lookup 75 subtable" R
PairPos2: "'kern' Horizontal Kerning in Arabic lookup 0 subtable" afii57509 dx=0 dy=0 dh=0 dv=0 dx=0 dy=0 dh=260 dv=0
PairPos2: "'kern' Horizontal Kerning in Arabic lookup 0 subtable" uni06AB dx=0 dy=0 dh=0 dv=0 dx=0 dy=0 dh=260 dv=0
PairPos2: "'kern' Horizontal Kerning in Arabic lookup 0 subtable" uni06A9 dx=0 dy=0 dh=0 dv=0 dx=0 dy=0 dh=260 dv=0
PairPos2: "'kern' Horizontal Kerning in Arabic lookup 0 subtable" uniFB94 dx=0 dy=0 dh=0 dv=0 dx=0 dy=0 dh=260 dv=0
PairPos2: "'kern' Horizontal Kerning in Arabic lookup 0 subtable" uniFBD5 dx=0 dy=0 dh=0 dv=0 dx=0 dy=0 dh=260 dv=0
PairPos2: "'kern' Horizontal Kerning in Arabic lookup 0 subtable" uni06AB.ini dx=0 dy=0 dh=0 dv=0 dx=0 dy=0 dh=260 dv=0
PairPos2: "'kern' Horizontal Kerning in Arabic lookup 0 subtable" uniFB90 dx=0 dy=0 dh=0 dv=0 dx=0 dy=0 dh=260 dv=0
PairPos2: "'kern' Horizontal Kerning in Arabic lookup 0 subtable" uniFEDB dx=0 dy=0 dh=0 dv=0 dx=0 dy=0 dh=260 dv=0
PairPos2: "'kern' Horizontal Kerning in Arabic lookup 0 subtable" uni0671 dx=0 dy=0 dh=0 dv=0 dx=0 dy=0 dh=208 dv=0
PairPos2: "'kern' Horizontal Kerning in Arabic lookup 0 subtable" afii57410 dx=0 dy=0 dh=0 dv=0 dx=0 dy=0 dh=208 dv=0
PairPos2: "'kern' Horizontal Kerning in Arabic lookup 0 subtable" afii57415 dx=0 dy=0 dh=0 dv=0 dx=0 dy=0 dh=52 dv=0
EndChar

StartChar: S
Encoding: 83 83 54
Width: 1139
GlyphClass: 2
Flags: W
LayerCount: 2
Fore
SplineSet
46 413 m 1,0,1
 86 344 86 344 127.5 290 c 128,-1,2
 169 236 169 236 213 194 c 0,3,4
 366 51 366 51 546 51 c 0,5,6
 594 51 594 51 634 67 c 128,-1,7
 674 83 674 83 700.5 113 c 128,-1,8
 727 143 727 143 737.5 186.5 c 128,-1,9
 748 230 748 230 736 285 c 0,10,11
 715 385 715 385 627 457 c 0,12,13
 608 474 608 474 563.5 501 c 128,-1,14
 519 528 519 528 461 562 c 128,-1,15
 403 596 403 596 335.5 633.5 c 128,-1,16
 268 671 268 671 201 707 c 0,17,18
 76 776 76 776 9 853.5 c 128,-1,19
 -58 931 -58 931 -77 1023 c 0,20,21
 -94 1100 -94 1100 -81 1166 c 128,-1,22
 -68 1232 -68 1232 -29 1280.5 c 128,-1,23
 10 1329 10 1329 73 1356.5 c 128,-1,24
 136 1384 136 1384 221 1384 c 0,25,26
 290 1384 290 1384 397 1349 c 0,27,28
 503 1315 503 1315 518 1315 c 0,29,30
 537 1315 537 1315 548 1319.5 c 128,-1,31
 559 1324 559 1324 565 1333 c 128,-1,32
 571 1342 571 1342 573.5 1355 c 128,-1,33
 576 1368 576 1368 576 1384 c 1,34,-1
 619 1384 l 1,35,-1
 757 947 l 1,36,-1
 706 947 l 1,37,38
 617 1142 617 1142 489 1221 c 0,39,40
 362 1299 362 1299 254 1299 c 0,41,42
 214 1299 214 1299 179 1286 c 128,-1,43
 144 1273 144 1273 120.5 1249 c 128,-1,44
 97 1225 97 1225 87 1190.5 c 128,-1,45
 77 1156 77 1156 86 1113 c 0,46,47
 94 1074 94 1074 113.5 1041.5 c 128,-1,48
 133 1009 133 1009 163.5 979 c 128,-1,49
 194 949 194 949 237 920.5 c 128,-1,50
 280 892 280 892 337 861 c 2,51,-1
 541 750 l 2,52,53
 633 699 633 699 704.5 650.5 c 128,-1,54
 776 602 776 602 818 559 c 0,55,56
 905 470 905 470 930 351 c 0,57,58
 947 271 947 271 929 202 c 128,-1,59
 911 133 911 133 864.5 82 c 128,-1,60
 818 31 818 31 745 2 c 128,-1,61
 672 -27 672 -27 578 -27 c 0,62,63
 483 -27 483 -27 372 9 c 256,64,65
 261 45 261 45 246 45 c 0,66,67
 228 45 228 45 218 39 c 128,-1,68
 208 33 208 33 203 23 c 128,-1,69
 198 13 198 13 197.5 0.5 c 128,-1,70
 197 -12 197 -12 197 -24 c 1,71,-1
 151 -24 l 1,72,-1
 -3 413 l 1,73,-1
 46 413 l 1,0,1
EndSplineSet
Substitution2: "<17016,16016> Urdu Swash lookup 75 subtable" S
PairPos2: "'kern' Horizontal Kerning in Arabic lookup 0 subtable" afii57509 dx=0 dy=0 dh=0 dv=0 dx=0 dy=0 dh=260 dv=0
PairPos2: "'kern' Horizontal Kerning in Arabic lookup 0 subtable" uni06AB dx=0 dy=0 dh=0 dv=0 dx=0 dy=0 dh=260 dv=0
PairPos2: "'kern' Horizontal Kerning in Arabic lookup 0 subtable" uni06A9 dx=0 dy=0 dh=0 dv=0 dx=0 dy=0 dh=260 dv=0
PairPos2: "'kern' Horizontal Kerning in Arabic lookup 0 subtable" uniFB94 dx=0 dy=0 dh=0 dv=0 dx=0 dy=0 dh=260 dv=0
PairPos2: "'kern' Horizontal Kerning in Arabic lookup 0 subtable" uniFBD5 dx=0 dy=0 dh=0 dv=0 dx=0 dy=0 dh=260 dv=0
PairPos2: "'kern' Horizontal Kerning in Arabic lookup 0 subtable" uni06AB.ini dx=0 dy=0 dh=0 dv=0 dx=0 dy=0 dh=260 dv=0
PairPos2: "'kern' Horizontal Kerning in Arabic lookup 0 subtable" uniFB90 dx=0 dy=0 dh=0 dv=0 dx=0 dy=0 dh=260 dv=0
PairPos2: "'kern' Horizontal Kerning in Arabic lookup 0 subtable" uniFEDB dx=0 dy=0 dh=0 dv=0 dx=0 dy=0 dh=260 dv=0
PairPos2: "'kern' Horizontal Kerning in Arabic lookup 0 subtable" uni0671 dx=0 dy=0 dh=0 dv=0 dx=0 dy=0 dh=208 dv=0
PairPos2: "'kern' Horizontal Kerning in Arabic lookup 0 subtable" afii57410 dx=0 dy=0 dh=0 dv=0 dx=0 dy=0 dh=208 dv=0
PairPos2: "'kern' Horizontal Kerning in Arabic lookup 0 subtable" afii57415 dx=0 dy=0 dh=0 dv=0 dx=0 dy=0 dh=52 dv=0
EndChar

StartChar: T
Encoding: 84 84 55
Width: 1251
GlyphClass: 2
Flags: W
LayerCount: 2
Fore
SplineSet
-260 1355 m 1,0,-1
 909 1355 l 1,1,-1
 983 1006 l 1,2,-1
 943 1006 l 1,3,4
 872 1168 872 1168 806 1218 c 256,5,6
 740 1268 740 1268 565 1268 c 2,7,-1
 452 1268 l 1,8,-1
 674 223 l 2,9,10
 699 107 699 107 742 76 c 1,11,12
 788 48 788 48 911 39 c 1,13,-1
 920 0 l 1,14,-1
 321 0 l 1,15,-1
 312 39 l 1,16,17
 442 50 442 50 466 82 c 0,18,19
 491 116 491 116 463 247 c 2,20,-1
 246 1268 l 1,21,-1
 133 1268 l 2,22,23
 -36 1268 -36 1268 -87 1219 c 0,24,25
 -136 1170 -136 1170 -134 1006 c 1,26,-1
 -186 1006 l 1,27,-1
 -260 1355 l 1,0,-1
EndSplineSet
Substitution2: "<17016,16016> Urdu Swash lookup 75 subtable" T
PairPos2: "'kern' Horizontal Kerning in Arabic lookup 0 subtable" afii57509 dx=0 dy=0 dh=0 dv=0 dx=0 dy=0 dh=260 dv=0
PairPos2: "'kern' Horizontal Kerning in Arabic lookup 0 subtable" uni06AB dx=0 dy=0 dh=0 dv=0 dx=0 dy=0 dh=260 dv=0
PairPos2: "'kern' Horizontal Kerning in Arabic lookup 0 subtable" uni06A9 dx=0 dy=0 dh=0 dv=0 dx=0 dy=0 dh=260 dv=0
PairPos2: "'kern' Horizontal Kerning in Arabic lookup 0 subtable" uniFB94 dx=0 dy=0 dh=0 dv=0 dx=0 dy=0 dh=260 dv=0
PairPos2: "'kern' Horizontal Kerning in Arabic lookup 0 subtable" uniFBD5 dx=0 dy=0 dh=0 dv=0 dx=0 dy=0 dh=260 dv=0
PairPos2: "'kern' Horizontal Kerning in Arabic lookup 0 subtable" uni06AB.ini dx=0 dy=0 dh=0 dv=0 dx=0 dy=0 dh=260 dv=0
PairPos2: "'kern' Horizontal Kerning in Arabic lookup 0 subtable" uniFB90 dx=0 dy=0 dh=0 dv=0 dx=0 dy=0 dh=260 dv=0
PairPos2: "'kern' Horizontal Kerning in Arabic lookup 0 subtable" uniFEDB dx=0 dy=0 dh=0 dv=0 dx=0 dy=0 dh=260 dv=0
PairPos2: "'kern' Horizontal Kerning in Arabic lookup 0 subtable" uni0671 dx=0 dy=0 dh=0 dv=0 dx=0 dy=0 dh=208 dv=0
PairPos2: "'kern' Horizontal Kerning in Arabic lookup 0 subtable" afii57410 dx=0 dy=0 dh=0 dv=0 dx=0 dy=0 dh=208 dv=0
PairPos2: "'kern' Horizontal Kerning in Arabic lookup 0 subtable" afii57415 dx=0 dy=0 dh=0 dv=0 dx=0 dy=0 dh=52 dv=0
EndChar

StartChar: U
Encoding: 85 85 56
Width: 1479
GlyphClass: 2
Flags: W
LayerCount: 2
Fore
SplineSet
322 1355 m 1,0,-1
 330 1315 l 1,1,2
 215 1308 215 1308 186 1275 c 0,3,4
 158 1243 158 1243 181 1132 c 2,5,-1
 320 478 l 2,6,7
 337 400 337 400 362 336.5 c 128,-1,8
 387 273 387 273 417 228 c 0,9,10
 476 150 476 150 563 107.5 c 128,-1,11
 650 65 650 65 762 65 c 0,12,13
 1013 65 1013 65 1061 232 c 0,14,15
 1089 327 1089 327 1048 521 c 2,16,-1
 935 1054 l 2,17,18
 899 1220 899 1220 851 1261 c 0,19,20
 826 1283 826 1283 786.5 1297 c 128,-1,21
 747 1311 747 1311 688 1315 c 1,22,-1
 680 1355 l 1,23,-1
 1155 1355 l 1,24,-1
 1163 1315 l 1,25,26
 1108 1308 1108 1308 1071 1294 c 128,-1,27
 1034 1280 1034 1280 1020 1257 c 0,28,29
 993 1212 993 1212 1027 1054 c 2,30,-1
 1140 521 l 2,31,32
 1171 376 1171 376 1160.5 272 c 128,-1,33
 1150 168 1150 168 1099 101 c 128,-1,34
 1048 34 1048 34 957 2.5 c 128,-1,35
 866 -29 866 -29 736 -29 c 0,36,37
 480 -29 480 -29 321.5 101.5 c 128,-1,38
 163 232 163 232 107 493 c 2,39,-1
 -28 1132 l 2,40,41
 -51 1242 -51 1242 -94 1274 c 0,42,43
 -135 1306 -135 1306 -252 1315 c 1,44,-1
 -260 1355 l 1,45,-1
 322 1355 l 1,0,-1
EndSplineSet
Substitution2: "<17016,16016> Urdu Swash lookup 75 subtable" U
PairPos2: "'kern' Horizontal Kerning in Arabic lookup 0 subtable" afii57509 dx=0 dy=0 dh=0 dv=0 dx=0 dy=0 dh=260 dv=0
PairPos2: "'kern' Horizontal Kerning in Arabic lookup 0 subtable" uni06AB dx=0 dy=0 dh=0 dv=0 dx=0 dy=0 dh=260 dv=0
PairPos2: "'kern' Horizontal Kerning in Arabic lookup 0 subtable" uni06A9 dx=0 dy=0 dh=0 dv=0 dx=0 dy=0 dh=260 dv=0
PairPos2: "'kern' Horizontal Kerning in Arabic lookup 0 subtable" uniFB94 dx=0 dy=0 dh=0 dv=0 dx=0 dy=0 dh=260 dv=0
PairPos2: "'kern' Horizontal Kerning in Arabic lookup 0 subtable" uniFBD5 dx=0 dy=0 dh=0 dv=0 dx=0 dy=0 dh=260 dv=0
PairPos2: "'kern' Horizontal Kerning in Arabic lookup 0 subtable" uni06AB.ini dx=0 dy=0 dh=0 dv=0 dx=0 dy=0 dh=260 dv=0
PairPos2: "'kern' Horizontal Kerning in Arabic lookup 0 subtable" uniFB90 dx=0 dy=0 dh=0 dv=0 dx=0 dy=0 dh=260 dv=0
PairPos2: "'kern' Horizontal Kerning in Arabic lookup 0 subtable" uniFEDB dx=0 dy=0 dh=0 dv=0 dx=0 dy=0 dh=260 dv=0
PairPos2: "'kern' Horizontal Kerning in Arabic lookup 0 subtable" uni0671 dx=0 dy=0 dh=0 dv=0 dx=0 dy=0 dh=208 dv=0
PairPos2: "'kern' Horizontal Kerning in Arabic lookup 0 subtable" afii57410 dx=0 dy=0 dh=0 dv=0 dx=0 dy=0 dh=208 dv=0
PairPos2: "'kern' Horizontal Kerning in Arabic lookup 0 subtable" afii57415 dx=0 dy=0 dh=0 dv=0 dx=0 dy=0 dh=52 dv=0
EndChar

StartChar: V
Encoding: 86 86 57
Width: 1479
GlyphClass: 2
Flags: W
LayerCount: 2
Fore
SplineSet
291 1355 m 1,0,-1
 299 1315 l 1,1,2
 254 1314 254 1314 225.5 1310.5 c 128,-1,3
 197 1307 197 1307 181 1298 c 128,-1,4
 165 1289 165 1289 161 1275 c 128,-1,5
 157 1261 157 1261 161 1239 c 0,6,7
 165 1224 165 1224 173.5 1206.5 c 128,-1,8
 182 1189 182 1189 197 1164 c 128,-1,9
 212 1139 212 1139 235 1105 c 128,-1,10
 258 1071 258 1071 291 1021 c 2,11,-1
 761 311 l 1,12,13
 765 328 765 328 771 366.5 c 128,-1,14
 777 405 777 405 785.5 457 c 128,-1,15
 794 509 794 509 803.5 570.5 c 128,-1,16
 813 632 813 632 824 695 c 128,-1,17
 835 758 835 758 845 819.5 c 128,-1,18
 855 881 855 881 863 933 c 128,-1,19
 871 985 871 985 878 1023.5 c 128,-1,20
 885 1062 885 1062 886 1079 c 0,21,22
 895 1128 895 1128 897 1164.5 c 128,-1,23
 899 1201 899 1201 896 1222 c 0,24,25
 885 1270 885 1270 847.5 1292 c 128,-1,26
 810 1314 810 1314 726 1315 c 1,27,-1
 718 1355 l 1,28,-1
 1138 1355 l 1,29,-1
 1146 1318 l 1,30,31
 1108 1312 1108 1312 1083.5 1300.5 c 128,-1,32
 1059 1289 1059 1289 1043 1267 c 128,-1,33
 1027 1245 1027 1245 1017.5 1211 c 128,-1,34
 1008 1177 1008 1177 997 1127 c 2,35,-1
 790 -24 l 1,36,-1
 757 -24 l 1,37,-1
 14 1101 l 2,38,39
 -31 1169 -31 1169 -67 1215 c 128,-1,40
 -103 1261 -103 1261 -127 1278 c 0,41,42
 -174 1314 -174 1314 -247 1318 c 1,43,-1
 -255 1355 l 1,44,-1
 291 1355 l 1,0,-1
EndSplineSet
Substitution2: "<17016,16016> Urdu Swash lookup 75 subtable" V
PairPos2: "'kern' Horizontal Kerning in Arabic lookup 0 subtable" afii57509 dx=0 dy=0 dh=0 dv=0 dx=0 dy=0 dh=260 dv=0
PairPos2: "'kern' Horizontal Kerning in Arabic lookup 0 subtable" uni06AB dx=0 dy=0 dh=0 dv=0 dx=0 dy=0 dh=260 dv=0
PairPos2: "'kern' Horizontal Kerning in Arabic lookup 0 subtable" uni06A9 dx=0 dy=0 dh=0 dv=0 dx=0 dy=0 dh=260 dv=0
PairPos2: "'kern' Horizontal Kerning in Arabic lookup 0 subtable" uniFB94 dx=0 dy=0 dh=0 dv=0 dx=0 dy=0 dh=260 dv=0
PairPos2: "'kern' Horizontal Kerning in Arabic lookup 0 subtable" uniFBD5 dx=0 dy=0 dh=0 dv=0 dx=0 dy=0 dh=260 dv=0
PairPos2: "'kern' Horizontal Kerning in Arabic lookup 0 subtable" uni06AB.ini dx=0 dy=0 dh=0 dv=0 dx=0 dy=0 dh=260 dv=0
PairPos2: "'kern' Horizontal Kerning in Arabic lookup 0 subtable" uniFB90 dx=0 dy=0 dh=0 dv=0 dx=0 dy=0 dh=260 dv=0
PairPos2: "'kern' Horizontal Kerning in Arabic lookup 0 subtable" uniFEDB dx=0 dy=0 dh=0 dv=0 dx=0 dy=0 dh=260 dv=0
PairPos2: "'kern' Horizontal Kerning in Arabic lookup 0 subtable" uni0671 dx=0 dy=0 dh=0 dv=0 dx=0 dy=0 dh=208 dv=0
PairPos2: "'kern' Horizontal Kerning in Arabic lookup 0 subtable" afii57410 dx=0 dy=0 dh=0 dv=0 dx=0 dy=0 dh=208 dv=0
PairPos2: "'kern' Horizontal Kerning in Arabic lookup 0 subtable" afii57415 dx=0 dy=0 dh=0 dv=0 dx=0 dy=0 dh=52 dv=0
EndChar

StartChar: W
Encoding: 87 87 58
Width: 1933
GlyphClass: 2
Flags: W
LayerCount: 2
Fore
SplineSet
226 1355 m 1,0,-1
 234 1315 l 1,1,2
 160 1314 160 1314 134.5 1297 c 128,-1,3
 109 1280 109 1280 117 1243 c 0,4,5
 120 1223 120 1223 131 1202.5 c 128,-1,6
 142 1182 142 1182 157 1155 c 0,7,8
 270 965 270 965 386 772.5 c 128,-1,9
 502 580 502 580 614 389 c 1,10,11
 637 533 637 533 661 676.5 c 128,-1,12
 685 820 685 820 708 964 c 1,13,14
 704 972 704 972 692.5 991 c 128,-1,15
 681 1010 681 1010 665.5 1035 c 128,-1,16
 650 1060 650 1060 633.5 1087.5 c 128,-1,17
 617 1115 617 1115 602 1140 c 128,-1,18
 587 1165 587 1165 575.5 1184 c 128,-1,19
 564 1203 564 1203 560 1210 c 0,20,21
 542 1239 542 1239 524 1258.5 c 128,-1,22
 506 1278 506 1278 483 1290 c 128,-1,23
 460 1302 460 1302 430 1308 c 128,-1,24
 400 1314 400 1314 359 1315 c 1,25,-1
 351 1355 l 1,26,-1
 901 1355 l 1,27,-1
 909 1315 l 1,28,29
 862 1314 862 1314 833.5 1310 c 128,-1,30
 805 1306 805 1306 789.5 1297 c 128,-1,31
 774 1288 774 1288 771.5 1273 c 128,-1,32
 769 1258 769 1258 774 1235 c 0,33,34
 776 1225 776 1225 778 1218.5 c 128,-1,35
 780 1212 780 1212 784 1203.5 c 128,-1,36
 788 1195 788 1195 795.5 1182.5 c 128,-1,37
 803 1170 803 1170 817 1148 c 2,38,-1
 1273 384 l 2,39,40
 1274 389 1274 389 1279 420.5 c 128,-1,41
 1284 452 1284 452 1291 500 c 128,-1,42
 1298 548 1298 548 1307.5 608 c 128,-1,43
 1317 668 1317 668 1326.5 730 c 128,-1,44
 1336 792 1336 792 1345.5 852 c 128,-1,45
 1355 912 1355 912 1363 959.5 c 128,-1,46
 1371 1007 1371 1007 1375.5 1038.5 c 128,-1,47
 1380 1070 1380 1070 1381 1075 c 0,48,49
 1389 1120 1389 1120 1389 1159.5 c 128,-1,50
 1389 1199 1389 1199 1385 1222 c 0,51,52
 1375 1267 1375 1267 1337.5 1290 c 128,-1,53
 1300 1313 1300 1313 1221 1315 c 1,54,-1
 1213 1355 l 1,55,-1
 1621 1355 l 1,56,-1
 1629 1315 l 1,57,58
 1595 1311 1595 1311 1571.5 1301.5 c 128,-1,59
 1548 1292 1548 1292 1532.5 1277 c 128,-1,60
 1517 1262 1517 1262 1508 1240.5 c 128,-1,61
 1499 1219 1499 1219 1494 1191 c 0,62,63
 1470 1039 1470 1039 1449 887.5 c 128,-1,64
 1428 736 1428 736 1404 583 c 2,65,-1
 1370 349 l 2,66,67
 1365 307 1365 307 1359 259 c 128,-1,68
 1353 211 1353 211 1347.5 162.5 c 128,-1,69
 1342 114 1342 114 1336 66 c 128,-1,70
 1330 18 1330 18 1325 -24 c 1,71,-1
 1293 -24 l 1,72,-1
 1160 214 l 1,73,74
 1067 369 1067 369 972 526.5 c 128,-1,75
 877 684 877 684 784 840 c 1,76,77
 751 623 751 623 719 408 c 128,-1,78
 687 193 687 193 653 -24 c 1,79,-1
 620 -24 l 1,80,-1
 384 402 l 2,81,82
 376 416 376 416 355 453 c 128,-1,83
 334 490 334 490 305.5 538.5 c 128,-1,84
 277 587 277 587 245.5 641.5 c 128,-1,85
 214 696 214 696 186 744.5 c 128,-1,86
 158 793 158 793 136 830 c 128,-1,87
 114 867 114 867 107 881 c 0,88,89
 21 1028 21 1028 -35.5 1117.5 c 128,-1,90
 -92 1207 -92 1207 -123 1242 c 0,91,92
 -180 1311 -180 1311 -270 1315 c 1,93,-1
 -278 1355 l 1,94,-1
 226 1355 l 1,0,-1
EndSplineSet
Substitution2: "<17016,16016> Urdu Swash lookup 75 subtable" W
PairPos2: "'kern' Horizontal Kerning in Arabic lookup 0 subtable" afii57509 dx=0 dy=0 dh=0 dv=0 dx=0 dy=0 dh=260 dv=0
PairPos2: "'kern' Horizontal Kerning in Arabic lookup 0 subtable" uni06AB dx=0 dy=0 dh=0 dv=0 dx=0 dy=0 dh=260 dv=0
PairPos2: "'kern' Horizontal Kerning in Arabic lookup 0 subtable" uni06A9 dx=0 dy=0 dh=0 dv=0 dx=0 dy=0 dh=260 dv=0
PairPos2: "'kern' Horizontal Kerning in Arabic lookup 0 subtable" uniFB94 dx=0 dy=0 dh=0 dv=0 dx=0 dy=0 dh=260 dv=0
PairPos2: "'kern' Horizontal Kerning in Arabic lookup 0 subtable" uniFBD5 dx=0 dy=0 dh=0 dv=0 dx=0 dy=0 dh=260 dv=0
PairPos2: "'kern' Horizontal Kerning in Arabic lookup 0 subtable" uni06AB.ini dx=0 dy=0 dh=0 dv=0 dx=0 dy=0 dh=260 dv=0
PairPos2: "'kern' Horizontal Kerning in Arabic lookup 0 subtable" uniFB90 dx=0 dy=0 dh=0 dv=0 dx=0 dy=0 dh=260 dv=0
PairPos2: "'kern' Horizontal Kerning in Arabic lookup 0 subtable" uniFEDB dx=0 dy=0 dh=0 dv=0 dx=0 dy=0 dh=260 dv=0
PairPos2: "'kern' Horizontal Kerning in Arabic lookup 0 subtable" uni0671 dx=0 dy=0 dh=0 dv=0 dx=0 dy=0 dh=208 dv=0
PairPos2: "'kern' Horizontal Kerning in Arabic lookup 0 subtable" afii57410 dx=0 dy=0 dh=0 dv=0 dx=0 dy=0 dh=208 dv=0
PairPos2: "'kern' Horizontal Kerning in Arabic lookup 0 subtable" afii57415 dx=0 dy=0 dh=0 dv=0 dx=0 dy=0 dh=52 dv=0
EndChar

StartChar: X
Encoding: 88 88 59
Width: 1479
GlyphClass: 2
Flags: W
LayerCount: 2
Fore
SplineSet
12 39 m 1,0,1
 52 44 52 44 82 55 c 128,-1,2
 112 66 112 66 130 83 c 0,3,4
 149 102 149 102 181 150.5 c 128,-1,5
 213 199 213 199 259 274 c 0,6,7
 317 370 317 370 376.5 470 c 128,-1,8
 436 570 436 570 494 666 c 1,9,10
 422 746 422 746 345.5 830 c 128,-1,11
 269 914 269 914 197 994 c 0,12,13
 103 1098 103 1098 37 1165 c 128,-1,14
 -29 1232 -29 1232 -65 1258 c 0,15,16
 -134 1310 -134 1310 -234 1315 c 1,17,-1
 -243 1355 l 1,18,-1
 376 1355 l 1,19,-1
 385 1315 l 1,20,21
 295 1312 295 1312 270 1303 c 0,22,23
 233 1289 233 1289 242 1247 c 0,24,25
 247 1224 247 1224 263 1198.5 c 128,-1,26
 279 1173 279 1173 314 1135 c 2,27,-1
 591 829 l 1,28,29
 596 837 596 837 609 858.5 c 128,-1,30
 622 880 622 880 640 908.5 c 128,-1,31
 658 937 658 937 677 969 c 128,-1,32
 696 1001 696 1001 714 1029.5 c 128,-1,33
 732 1058 732 1058 745 1079.5 c 128,-1,34
 758 1101 758 1101 764 1109 c 0,35,36
 796 1161 796 1161 807.5 1192 c 128,-1,37
 819 1223 819 1223 814 1246 c 0,38,39
 810 1265 810 1265 800.5 1278 c 128,-1,40
 791 1291 791 1291 773 1299 c 128,-1,41
 755 1307 755 1307 727 1310.5 c 128,-1,42
 699 1314 699 1314 658 1315 c 1,43,-1
 649 1355 l 1,44,-1
 1136 1355 l 1,45,-1
 1145 1315 l 1,46,47
 1103 1314 1103 1314 1073 1308 c 128,-1,48
 1043 1302 1043 1302 1022 1289 c 0,49,50
 992 1270 992 1270 956.5 1227 c 128,-1,51
 921 1184 921 1184 882 1121 c 2,52,-1
 662 753 l 1,53,54
 666 748 666 748 689.5 722.5 c 128,-1,55
 713 697 713 697 748.5 658 c 128,-1,56
 784 619 784 619 828 570.5 c 128,-1,57
 872 522 872 522 917.5 472 c 128,-1,58
 963 422 963 422 1007 373.5 c 128,-1,59
 1051 325 1051 325 1086.5 286 c 128,-1,60
 1122 247 1122 247 1145.5 221.5 c 128,-1,61
 1169 196 1169 196 1173 191 c 0,62,63
 1253 101 1253 101 1302 75 c 1,64,-1
 1301 75 l 1,65,66
 1348 51 1348 51 1432 39 c 1,67,-1
 1441 0 l 1,68,-1
 833 0 l 1,69,-1
 824 42 l 1,70,71
 910 44 910 44 942 57 c 128,-1,72
 974 70 974 70 967 106 c 0,73,74
 959 138 959 138 898 211 c 0,75,76
 868 248 868 248 784.5 341.5 c 128,-1,77
 701 435 701 435 563 590 c 1,78,79
 560 582 560 582 541 550.5 c 128,-1,80
 522 519 522 519 497.5 475.5 c 128,-1,81
 473 432 473 432 445 383.5 c 128,-1,82
 417 335 417 335 392.5 293 c 128,-1,83
 368 251 368 251 352 221.5 c 128,-1,84
 336 192 336 192 334 188 c 0,85,86
 312 138 312 138 318 116 c 0,87,88
 325 79 325 79 363 61.5 c 128,-1,89
 401 44 401 44 489 39 c 1,90,-1
 498 0 l 1,91,-1
 21 0 l 1,92,-1
 12 39 l 1,0,1
EndSplineSet
Substitution2: "<17016,16016> Urdu Swash lookup 75 subtable" X
PairPos2: "'kern' Horizontal Kerning in Arabic lookup 0 subtable" afii57509 dx=0 dy=0 dh=0 dv=0 dx=0 dy=0 dh=260 dv=0
PairPos2: "'kern' Horizontal Kerning in Arabic lookup 0 subtable" uni06AB dx=0 dy=0 dh=0 dv=0 dx=0 dy=0 dh=260 dv=0
PairPos2: "'kern' Horizontal Kerning in Arabic lookup 0 subtable" uni06A9 dx=0 dy=0 dh=0 dv=0 dx=0 dy=0 dh=260 dv=0
PairPos2: "'kern' Horizontal Kerning in Arabic lookup 0 subtable" uniFB94 dx=0 dy=0 dh=0 dv=0 dx=0 dy=0 dh=260 dv=0
PairPos2: "'kern' Horizontal Kerning in Arabic lookup 0 subtable" uniFBD5 dx=0 dy=0 dh=0 dv=0 dx=0 dy=0 dh=260 dv=0
PairPos2: "'kern' Horizontal Kerning in Arabic lookup 0 subtable" uni06AB.ini dx=0 dy=0 dh=0 dv=0 dx=0 dy=0 dh=260 dv=0
PairPos2: "'kern' Horizontal Kerning in Arabic lookup 0 subtable" uniFB90 dx=0 dy=0 dh=0 dv=0 dx=0 dy=0 dh=260 dv=0
PairPos2: "'kern' Horizontal Kerning in Arabic lookup 0 subtable" uniFEDB dx=0 dy=0 dh=0 dv=0 dx=0 dy=0 dh=260 dv=0
PairPos2: "'kern' Horizontal Kerning in Arabic lookup 0 subtable" uni0671 dx=0 dy=0 dh=0 dv=0 dx=0 dy=0 dh=208 dv=0
PairPos2: "'kern' Horizontal Kerning in Arabic lookup 0 subtable" afii57410 dx=0 dy=0 dh=0 dv=0 dx=0 dy=0 dh=208 dv=0
PairPos2: "'kern' Horizontal Kerning in Arabic lookup 0 subtable" afii57415 dx=0 dy=0 dh=0 dv=0 dx=0 dy=0 dh=52 dv=0
EndChar

StartChar: Y
Encoding: 89 89 60
Width: 1479
GlyphClass: 2
Flags: W
LayerCount: 2
Fore
SplineSet
332 1355 m 1,0,-1
 340 1315 l 1,1,2
 334 1315 334 1315 328 1315.5 c 128,-1,3
 322 1316 322 1316 316 1316 c 0,4,5
 256 1316 256 1316 229 1301.5 c 128,-1,6
 202 1287 202 1287 210 1249 c 0,7,8
 213 1238 213 1238 224.5 1216.5 c 128,-1,9
 236 1195 236 1195 260 1166 c 0,10,11
 360 1054 360 1054 460 940 c 128,-1,12
 560 826 560 826 658 714 c 1,13,14
 665 728 665 728 679.5 763.5 c 128,-1,15
 694 799 694 799 714 845.5 c 128,-1,16
 734 892 734 892 756 944 c 128,-1,17
 778 996 778 996 798 1042 c 128,-1,18
 818 1088 818 1088 832.5 1123.5 c 128,-1,19
 847 1159 847 1159 853 1173 c 0,20,21
 865 1202 865 1202 866.5 1220.5 c 128,-1,22
 868 1239 868 1239 866 1248 c 0,23,24
 862 1267 862 1267 852.5 1279.5 c 128,-1,25
 843 1292 843 1292 824.5 1299.5 c 128,-1,26
 806 1307 806 1307 778.5 1310.5 c 128,-1,27
 751 1314 751 1314 710 1315 c 1,28,-1
 702 1355 l 1,29,-1
 1151 1355 l 1,30,-1
 1159 1315 l 1,31,32
 1122 1313 1122 1313 1091 1299 c 128,-1,33
 1060 1285 1060 1285 1032.5 1257 c 128,-1,34
 1005 1229 1005 1229 979.5 1185.5 c 128,-1,35
 954 1142 954 1142 926 1081 c 2,36,-1
 722 620 l 1,37,-1
 807 223 l 2,38,39
 820 165 820 165 837 127 c 128,-1,40
 854 89 854 89 876 75 c 0,41,42
 920 48 920 48 1057 39 c 1,43,-1
 1065 0 l 1,44,-1
 437 0 l 1,45,-1
 429 39 l 1,46,47
 565 46 565 46 592 80 c 0,48,49
 620 114 620 114 591 247 c 2,50,-1
 516 601 l 2,51,52
 512 605 512 605 485.5 635 c 128,-1,53
 459 665 459 665 422 707 c 128,-1,54
 385 749 385 749 341 798 c 128,-1,55
 297 847 297 847 259 889 c 128,-1,56
 221 931 221 931 195 960.5 c 128,-1,57
 169 990 169 990 165 994 c 0,58,59
 81 1089 81 1089 14 1157 c 128,-1,60
 -53 1225 -53 1225 -85 1253 c 0,61,62
 -151 1310 -151 1310 -234 1315 c 1,63,-1
 -242 1355 l 1,64,-1
 332 1355 l 1,0,-1
EndSplineSet
Substitution2: "<17016,16016> Urdu Swash lookup 75 subtable" Y
PairPos2: "'kern' Horizontal Kerning in Arabic lookup 0 subtable" afii57509 dx=0 dy=0 dh=0 dv=0 dx=0 dy=0 dh=260 dv=0
PairPos2: "'kern' Horizontal Kerning in Arabic lookup 0 subtable" uni06AB dx=0 dy=0 dh=0 dv=0 dx=0 dy=0 dh=260 dv=0
PairPos2: "'kern' Horizontal Kerning in Arabic lookup 0 subtable" uni06A9 dx=0 dy=0 dh=0 dv=0 dx=0 dy=0 dh=260 dv=0
PairPos2: "'kern' Horizontal Kerning in Arabic lookup 0 subtable" uniFB94 dx=0 dy=0 dh=0 dv=0 dx=0 dy=0 dh=260 dv=0
PairPos2: "'kern' Horizontal Kerning in Arabic lookup 0 subtable" uniFBD5 dx=0 dy=0 dh=0 dv=0 dx=0 dy=0 dh=260 dv=0
PairPos2: "'kern' Horizontal Kerning in Arabic lookup 0 subtable" uni06AB.ini dx=0 dy=0 dh=0 dv=0 dx=0 dy=0 dh=260 dv=0
PairPos2: "'kern' Horizontal Kerning in Arabic lookup 0 subtable" uniFB90 dx=0 dy=0 dh=0 dv=0 dx=0 dy=0 dh=260 dv=0
PairPos2: "'kern' Horizontal Kerning in Arabic lookup 0 subtable" uniFEDB dx=0 dy=0 dh=0 dv=0 dx=0 dy=0 dh=260 dv=0
PairPos2: "'kern' Horizontal Kerning in Arabic lookup 0 subtable" uni0671 dx=0 dy=0 dh=0 dv=0 dx=0 dy=0 dh=208 dv=0
PairPos2: "'kern' Horizontal Kerning in Arabic lookup 0 subtable" afii57410 dx=0 dy=0 dh=0 dv=0 dx=0 dy=0 dh=208 dv=0
PairPos2: "'kern' Horizontal Kerning in Arabic lookup 0 subtable" afii57415 dx=0 dy=0 dh=0 dv=0 dx=0 dy=0 dh=52 dv=0
EndChar

StartChar: Z
Encoding: 90 90 61
Width: 1251
GlyphClass: 2
Flags: W
LayerCount: 2
Fore
SplineSet
8 25 m 1,0,-1
 639 1275 l 1,1,-1
 169 1275 l 2,2,3
 -7 1275 -7 1275 -63 1186 c 0,4,5
 -98 1133 -98 1133 -96 1004 c 1,6,-1
 -151 1004 l 1,7,-1
 -184 1355 l 1,8,-1
 897 1355 l 1,9,-1
 903 1330 l 1,10,-1
 281 80 l 1,11,-1
 805 80 l 2,12,13
 982 80 982 80 1046 165 c 0,14,15
 1086 219 1086 219 1097 361 c 1,16,-1
 1147 361 l 1,17,-1
 1173 0 l 1,18,-1
 14 0 l 1,19,-1
 8 25 l 1,0,-1
EndSplineSet
Substitution2: "<17016,16016> Urdu Swash lookup 75 subtable" Z
PairPos2: "'kern' Horizontal Kerning in Arabic lookup 0 subtable" afii57509 dx=0 dy=0 dh=0 dv=0 dx=0 dy=0 dh=260 dv=0
PairPos2: "'kern' Horizontal Kerning in Arabic lookup 0 subtable" uni06AB dx=0 dy=0 dh=0 dv=0 dx=0 dy=0 dh=260 dv=0
PairPos2: "'kern' Horizontal Kerning in Arabic lookup 0 subtable" uni06A9 dx=0 dy=0 dh=0 dv=0 dx=0 dy=0 dh=260 dv=0
PairPos2: "'kern' Horizontal Kerning in Arabic lookup 0 subtable" uniFB94 dx=0 dy=0 dh=0 dv=0 dx=0 dy=0 dh=260 dv=0
PairPos2: "'kern' Horizontal Kerning in Arabic lookup 0 subtable" uniFBD5 dx=0 dy=0 dh=0 dv=0 dx=0 dy=0 dh=260 dv=0
PairPos2: "'kern' Horizontal Kerning in Arabic lookup 0 subtable" uni06AB.ini dx=0 dy=0 dh=0 dv=0 dx=0 dy=0 dh=260 dv=0
PairPos2: "'kern' Horizontal Kerning in Arabic lookup 0 subtable" uniFB90 dx=0 dy=0 dh=0 dv=0 dx=0 dy=0 dh=260 dv=0
PairPos2: "'kern' Horizontal Kerning in Arabic lookup 0 subtable" uniFEDB dx=0 dy=0 dh=0 dv=0 dx=0 dy=0 dh=260 dv=0
PairPos2: "'kern' Horizontal Kerning in Arabic lookup 0 subtable" uni0671 dx=0 dy=0 dh=0 dv=0 dx=0 dy=0 dh=208 dv=0
PairPos2: "'kern' Horizontal Kerning in Arabic lookup 0 subtable" afii57410 dx=0 dy=0 dh=0 dv=0 dx=0 dy=0 dh=208 dv=0
PairPos2: "'kern' Horizontal Kerning in Arabic lookup 0 subtable" afii57415 dx=0 dy=0 dh=0 dv=0 dx=0 dy=0 dh=52 dv=0
EndChar

StartChar: bracketleft
Encoding: 91 91 62
Width: 625
GlyphClass: 2
Flags: W
LayerCount: 2
Fore
SplineSet
216 -543 m 1,0,-1
 -220 1509 l 1,1,-1
 205 1509 l 1,2,-1
 233 1380 l 1,3,-1
 -54 1380 l 1,4,-1
 326 -411 l 1,5,-1
 613 -411 l 1,6,-1
 641 -543 l 1,7,-1
 216 -543 l 1,0,-1
EndSplineSet
Substitution2: "<17016,16016> Urdu Swash lookup 75 subtable" bracketleft
PairPos2: "'kern' Horizontal Kerning in Arabic lookup 0 subtable" afii57509 dx=0 dy=0 dh=0 dv=0 dx=0 dy=0 dh=260 dv=0
PairPos2: "'kern' Horizontal Kerning in Arabic lookup 0 subtable" uni06AB dx=0 dy=0 dh=0 dv=0 dx=0 dy=0 dh=260 dv=0
PairPos2: "'kern' Horizontal Kerning in Arabic lookup 0 subtable" uni06A9 dx=0 dy=0 dh=0 dv=0 dx=0 dy=0 dh=260 dv=0
PairPos2: "'kern' Horizontal Kerning in Arabic lookup 0 subtable" uniFB94 dx=0 dy=0 dh=0 dv=0 dx=0 dy=0 dh=260 dv=0
PairPos2: "'kern' Horizontal Kerning in Arabic lookup 0 subtable" uniFBD5 dx=0 dy=0 dh=0 dv=0 dx=0 dy=0 dh=260 dv=0
PairPos2: "'kern' Horizontal Kerning in Arabic lookup 0 subtable" uni06AB.ini dx=0 dy=0 dh=0 dv=0 dx=0 dy=0 dh=260 dv=0
PairPos2: "'kern' Horizontal Kerning in Arabic lookup 0 subtable" uniFB90 dx=0 dy=0 dh=0 dv=0 dx=0 dy=0 dh=260 dv=0
PairPos2: "'kern' Horizontal Kerning in Arabic lookup 0 subtable" uniFEDB dx=0 dy=0 dh=0 dv=0 dx=0 dy=0 dh=260 dv=0
PairPos2: "'kern' Horizontal Kerning in Arabic lookup 0 subtable" uni0671 dx=0 dy=0 dh=0 dv=0 dx=0 dy=0 dh=208 dv=0
PairPos2: "'kern' Horizontal Kerning in Arabic lookup 0 subtable" afii57410 dx=0 dy=0 dh=0 dv=0 dx=0 dy=0 dh=208 dv=0
PairPos2: "'kern' Horizontal Kerning in Arabic lookup 0 subtable" afii57415 dx=0 dy=0 dh=0 dv=0 dx=0 dy=0 dh=52 dv=0
EndChar

StartChar: backslash
Encoding: 92 92 63
Width: 569
GlyphClass: 2
Flags: W
LayerCount: 2
Fore
SplineSet
-220 1384 m 1,0,-1
 633 0 l 1,1,-1
 496 0 l 1,2,-1
 -359 1384 l 1,3,-1
 -220 1384 l 1,0,-1
EndSplineSet
Substitution2: "<17016,16016> Urdu Swash lookup 75 subtable" backslash
PairPos2: "'kern' Horizontal Kerning in Arabic lookup 0 subtable" afii57509 dx=0 dy=0 dh=0 dv=0 dx=0 dy=0 dh=260 dv=0
PairPos2: "'kern' Horizontal Kerning in Arabic lookup 0 subtable" uni06AB dx=0 dy=0 dh=0 dv=0 dx=0 dy=0 dh=260 dv=0
PairPos2: "'kern' Horizontal Kerning in Arabic lookup 0 subtable" uni06A9 dx=0 dy=0 dh=0 dv=0 dx=0 dy=0 dh=260 dv=0
PairPos2: "'kern' Horizontal Kerning in Arabic lookup 0 subtable" uniFB94 dx=0 dy=0 dh=0 dv=0 dx=0 dy=0 dh=260 dv=0
PairPos2: "'kern' Horizontal Kerning in Arabic lookup 0 subtable" uniFBD5 dx=0 dy=0 dh=0 dv=0 dx=0 dy=0 dh=260 dv=0
PairPos2: "'kern' Horizontal Kerning in Arabic lookup 0 subtable" uni06AB.ini dx=0 dy=0 dh=0 dv=0 dx=0 dy=0 dh=260 dv=0
PairPos2: "'kern' Horizontal Kerning in Arabic lookup 0 subtable" uniFB90 dx=0 dy=0 dh=0 dv=0 dx=0 dy=0 dh=260 dv=0
PairPos2: "'kern' Horizontal Kerning in Arabic lookup 0 subtable" uniFEDB dx=0 dy=0 dh=0 dv=0 dx=0 dy=0 dh=260 dv=0
PairPos2: "'kern' Horizontal Kerning in Arabic lookup 0 subtable" uni0671 dx=0 dy=0 dh=0 dv=0 dx=0 dy=0 dh=208 dv=0
PairPos2: "'kern' Horizontal Kerning in Arabic lookup 0 subtable" afii57410 dx=0 dy=0 dh=0 dv=0 dx=0 dy=0 dh=208 dv=0
PairPos2: "'kern' Horizontal Kerning in Arabic lookup 0 subtable" afii57415 dx=0 dy=0 dh=0 dv=0 dx=0 dy=0 dh=52 dv=0
EndChar

StartChar: bracketright
Encoding: 93 93 64
Width: 725
GlyphClass: 2
Flags: W
LayerCount: 2
Fore
SplineSet
216 -543 m 1,0,-1
 188 -411 l 1,1,-1
 473 -411 l 1,2,-1
 93 1380 l 1,3,-1
 -192 1380 l 1,4,-1
 -220 1509 l 1,5,-1
 205 1509 l 1,6,-1
 641 -543 l 1,7,-1
 216 -543 l 1,0,-1
EndSplineSet
Substitution2: "<17016,16016> Urdu Swash lookup 75 subtable" bracketright
PairPos2: "'kern' Horizontal Kerning in Arabic lookup 0 subtable" afii57509 dx=0 dy=0 dh=0 dv=0 dx=0 dy=0 dh=260 dv=0
PairPos2: "'kern' Horizontal Kerning in Arabic lookup 0 subtable" uni06AB dx=0 dy=0 dh=0 dv=0 dx=0 dy=0 dh=260 dv=0
PairPos2: "'kern' Horizontal Kerning in Arabic lookup 0 subtable" uni06A9 dx=0 dy=0 dh=0 dv=0 dx=0 dy=0 dh=260 dv=0
PairPos2: "'kern' Horizontal Kerning in Arabic lookup 0 subtable" uniFB94 dx=0 dy=0 dh=0 dv=0 dx=0 dy=0 dh=260 dv=0
PairPos2: "'kern' Horizontal Kerning in Arabic lookup 0 subtable" uniFBD5 dx=0 dy=0 dh=0 dv=0 dx=0 dy=0 dh=260 dv=0
PairPos2: "'kern' Horizontal Kerning in Arabic lookup 0 subtable" uni06AB.ini dx=0 dy=0 dh=0 dv=0 dx=0 dy=0 dh=260 dv=0
PairPos2: "'kern' Horizontal Kerning in Arabic lookup 0 subtable" uniFB90 dx=0 dy=0 dh=0 dv=0 dx=0 dy=0 dh=260 dv=0
PairPos2: "'kern' Horizontal Kerning in Arabic lookup 0 subtable" uniFEDB dx=0 dy=0 dh=0 dv=0 dx=0 dy=0 dh=260 dv=0
PairPos2: "'kern' Horizontal Kerning in Arabic lookup 0 subtable" uni0671 dx=0 dy=0 dh=0 dv=0 dx=0 dy=0 dh=208 dv=0
PairPos2: "'kern' Horizontal Kerning in Arabic lookup 0 subtable" afii57410 dx=0 dy=0 dh=0 dv=0 dx=0 dy=0 dh=208 dv=0
PairPos2: "'kern' Horizontal Kerning in Arabic lookup 0 subtable" afii57415 dx=0 dy=0 dh=0 dv=0 dx=0 dy=0 dh=52 dv=0
EndChar

StartChar: asciicircum
Encoding: 94 94 65
Width: 961
GlyphClass: 2
Flags: W
LayerCount: 2
Fore
SplineSet
214 1384 m 1,0,-1
 783 518 l 1,1,-1
 645 518 l 1,2,-1
 234 1163 l 1,3,4
 199 1002 199 1002 163.5 841 c 128,-1,5
 128 680 128 680 94 518 c 1,6,-1
 -44 518 l 1,7,-1
 157 1384 l 1,8,-1
 214 1384 l 1,0,-1
EndSplineSet
Substitution2: "<17016,16016> Urdu Swash lookup 75 subtable" asciicircum
PairPos2: "'kern' Horizontal Kerning in Arabic lookup 0 subtable" afii57509 dx=0 dy=0 dh=0 dv=0 dx=0 dy=0 dh=260 dv=0
PairPos2: "'kern' Horizontal Kerning in Arabic lookup 0 subtable" uni06AB dx=0 dy=0 dh=0 dv=0 dx=0 dy=0 dh=260 dv=0
PairPos2: "'kern' Horizontal Kerning in Arabic lookup 0 subtable" uni06A9 dx=0 dy=0 dh=0 dv=0 dx=0 dy=0 dh=260 dv=0
PairPos2: "'kern' Horizontal Kerning in Arabic lookup 0 subtable" uniFB94 dx=0 dy=0 dh=0 dv=0 dx=0 dy=0 dh=260 dv=0
PairPos2: "'kern' Horizontal Kerning in Arabic lookup 0 subtable" uniFBD5 dx=0 dy=0 dh=0 dv=0 dx=0 dy=0 dh=260 dv=0
PairPos2: "'kern' Horizontal Kerning in Arabic lookup 0 subtable" uni06AB.ini dx=0 dy=0 dh=0 dv=0 dx=0 dy=0 dh=260 dv=0
PairPos2: "'kern' Horizontal Kerning in Arabic lookup 0 subtable" uniFB90 dx=0 dy=0 dh=0 dv=0 dx=0 dy=0 dh=260 dv=0
PairPos2: "'kern' Horizontal Kerning in Arabic lookup 0 subtable" uniFEDB dx=0 dy=0 dh=0 dv=0 dx=0 dy=0 dh=260 dv=0
PairPos2: "'kern' Horizontal Kerning in Arabic lookup 0 subtable" uni0671 dx=0 dy=0 dh=0 dv=0 dx=0 dy=0 dh=208 dv=0
PairPos2: "'kern' Horizontal Kerning in Arabic lookup 0 subtable" afii57410 dx=0 dy=0 dh=0 dv=0 dx=0 dy=0 dh=208 dv=0
PairPos2: "'kern' Horizontal Kerning in Arabic lookup 0 subtable" afii57415 dx=0 dy=0 dh=0 dv=0 dx=0 dy=0 dh=52 dv=0
EndChar

StartChar: underscore
Encoding: 95 95 66
Width: 1024
GlyphClass: 2
Flags: W
LayerCount: 2
Fore
SplineSet
55 -256 m 1,0,-1
 33 -153 l 1,1,-1
 1056 -153 l 1,2,-1
 1078 -256 l 1,3,-1
 55 -256 l 1,0,-1
EndSplineSet
Substitution2: "<17016,16016> Urdu Swash lookup 75 subtable" underscore
PairPos2: "'kern' Horizontal Kerning in Arabic lookup 0 subtable" afii57509 dx=0 dy=0 dh=0 dv=0 dx=0 dy=0 dh=260 dv=0
PairPos2: "'kern' Horizontal Kerning in Arabic lookup 0 subtable" uni06AB dx=0 dy=0 dh=0 dv=0 dx=0 dy=0 dh=260 dv=0
PairPos2: "'kern' Horizontal Kerning in Arabic lookup 0 subtable" uni06A9 dx=0 dy=0 dh=0 dv=0 dx=0 dy=0 dh=260 dv=0
PairPos2: "'kern' Horizontal Kerning in Arabic lookup 0 subtable" uniFB94 dx=0 dy=0 dh=0 dv=0 dx=0 dy=0 dh=260 dv=0
PairPos2: "'kern' Horizontal Kerning in Arabic lookup 0 subtable" uniFBD5 dx=0 dy=0 dh=0 dv=0 dx=0 dy=0 dh=260 dv=0
PairPos2: "'kern' Horizontal Kerning in Arabic lookup 0 subtable" uni06AB.ini dx=0 dy=0 dh=0 dv=0 dx=0 dy=0 dh=260 dv=0
PairPos2: "'kern' Horizontal Kerning in Arabic lookup 0 subtable" uniFB90 dx=0 dy=0 dh=0 dv=0 dx=0 dy=0 dh=260 dv=0
PairPos2: "'kern' Horizontal Kerning in Arabic lookup 0 subtable" uniFEDB dx=0 dy=0 dh=0 dv=0 dx=0 dy=0 dh=260 dv=0
PairPos2: "'kern' Horizontal Kerning in Arabic lookup 0 subtable" uni0671 dx=0 dy=0 dh=0 dv=0 dx=0 dy=0 dh=208 dv=0
PairPos2: "'kern' Horizontal Kerning in Arabic lookup 0 subtable" afii57410 dx=0 dy=0 dh=0 dv=0 dx=0 dy=0 dh=208 dv=0
PairPos2: "'kern' Horizontal Kerning in Arabic lookup 0 subtable" afii57415 dx=0 dy=0 dh=0 dv=0 dx=0 dy=0 dh=52 dv=0
EndChar

StartChar: grave
Encoding: 96 96 67
Width: 682
GlyphClass: 2
Flags: W
LayerCount: 2
Fore
SplineSet
278 1037 m 1,0,-1
 191 1037 l 1,1,-1
 -166 1235 l 2,2,3
 -204 1256 -204 1256 -222.5 1276 c 128,-1,4
 -241 1296 -241 1296 -246 1323 c 0,5,6
 -253 1353 -253 1353 -236 1371.5 c 128,-1,7
 -219 1390 -219 1390 -191 1390 c 0,8,9
 -164 1390 -164 1390 -138.5 1375.5 c 128,-1,10
 -113 1361 -113 1361 -89 1341 c 2,11,-1
 278 1037 l 1,0,-1
EndSplineSet
Substitution2: "<17016,16016> Urdu Swash lookup 75 subtable" grave
PairPos2: "'kern' Horizontal Kerning in Arabic lookup 0 subtable" afii57509 dx=0 dy=0 dh=0 dv=0 dx=0 dy=0 dh=260 dv=0
PairPos2: "'kern' Horizontal Kerning in Arabic lookup 0 subtable" uni06AB dx=0 dy=0 dh=0 dv=0 dx=0 dy=0 dh=260 dv=0
PairPos2: "'kern' Horizontal Kerning in Arabic lookup 0 subtable" uni06A9 dx=0 dy=0 dh=0 dv=0 dx=0 dy=0 dh=260 dv=0
PairPos2: "'kern' Horizontal Kerning in Arabic lookup 0 subtable" uniFB94 dx=0 dy=0 dh=0 dv=0 dx=0 dy=0 dh=260 dv=0
PairPos2: "'kern' Horizontal Kerning in Arabic lookup 0 subtable" uniFBD5 dx=0 dy=0 dh=0 dv=0 dx=0 dy=0 dh=260 dv=0
PairPos2: "'kern' Horizontal Kerning in Arabic lookup 0 subtable" uni06AB.ini dx=0 dy=0 dh=0 dv=0 dx=0 dy=0 dh=260 dv=0
PairPos2: "'kern' Horizontal Kerning in Arabic lookup 0 subtable" uniFB90 dx=0 dy=0 dh=0 dv=0 dx=0 dy=0 dh=260 dv=0
PairPos2: "'kern' Horizontal Kerning in Arabic lookup 0 subtable" uniFEDB dx=0 dy=0 dh=0 dv=0 dx=0 dy=0 dh=260 dv=0
PairPos2: "'kern' Horizontal Kerning in Arabic lookup 0 subtable" uni0671 dx=0 dy=0 dh=0 dv=0 dx=0 dy=0 dh=208 dv=0
PairPos2: "'kern' Horizontal Kerning in Arabic lookup 0 subtable" afii57410 dx=0 dy=0 dh=0 dv=0 dx=0 dy=0 dh=208 dv=0
PairPos2: "'kern' Horizontal Kerning in Arabic lookup 0 subtable" afii57415 dx=0 dy=0 dh=0 dv=0 dx=0 dy=0 dh=52 dv=0
EndChar

StartChar: a
Encoding: 97 97 68
Width: 909
GlyphClass: 2
Flags: W
LayerCount: 2
Fore
SplineSet
469 553 m 1,0,1
 316 501 316 501 248 427 c 128,-1,2
 180 353 180 353 198 269 c 0,3,4
 205 233 205 233 222 203.5 c 128,-1,5
 239 174 239 174 263.5 153 c 128,-1,6
 288 132 288 132 317 120 c 128,-1,7
 346 108 346 108 377 108 c 0,8,9
 409 108 409 108 440.5 118 c 128,-1,10
 472 128 472 128 495.5 145 c 128,-1,11
 519 162 519 162 530.5 186 c 128,-1,12
 542 210 542 210 536 238 c 2,13,-1
 469 553 l 1,0,1
125 442 m 0,14,15
 165 471 165 471 249 512 c 128,-1,16
 333 553 333 553 458 605 c 1,17,-1
 440 689 l 2,18,19
 430 738 430 738 417 774.5 c 128,-1,20
 404 811 404 811 390 831 c 0,21,22
 366 862 366 862 326.5 879.5 c 128,-1,23
 287 897 287 897 236 897 c 0,24,25
 186 897 186 897 145 871 c 1,26,-1
 146 871 l 1,27,28
 106 844 106 844 115 798 c 0,29,30
 115 795 115 795 119.5 784 c 128,-1,31
 124 773 124 773 128.5 760 c 128,-1,32
 133 747 133 747 137 735.5 c 128,-1,33
 141 724 141 724 142 721 c 0,34,35
 151 679 151 679 133.5 654 c 128,-1,36
 116 629 116 629 73 629 c 0,37,38
 50 629 50 629 31 637 c 128,-1,39
 12 645 12 645 -2.5 658.5 c 128,-1,40
 -17 672 -17 672 -26.5 689.5 c 128,-1,41
 -36 707 -36 707 -40 725 c 0,42,43
 -55 796 -55 796 14 872 c 0,44,45
 85 949 85 949 252 949 c 0,46,47
 328 949 328 949 388.5 931 c 128,-1,48
 449 913 449 913 494.5 874 c 128,-1,49
 540 835 540 835 572 772.5 c 128,-1,50
 604 710 604 710 622 621 c 2,51,-1
 707 221 l 2,52,53
 722 154 722 154 741.5 128.5 c 128,-1,54
 761 103 761 103 794 103 c 0,55,56
 806 103 806 103 813.5 104 c 128,-1,57
 821 105 821 105 828 109 c 128,-1,58
 835 113 835 113 845.5 121.5 c 128,-1,59
 856 130 856 130 875 145 c 1,60,-1
 887 90 l 1,61,62
 858 41 858 41 816.5 14.5 c 128,-1,63
 775 -12 775 -12 725 -12 c 0,64,65
 691 -12 691 -12 664.5 -0.5 c 128,-1,66
 638 11 638 11 618 30.5 c 128,-1,67
 598 50 598 50 584 77 c 128,-1,68
 570 104 570 104 561 135 c 1,69,70
 522 93 522 93 487.5 64.5 c 128,-1,71
 453 36 453 36 421.5 18.5 c 128,-1,72
 390 1 390 1 358 -7 c 128,-1,73
 326 -15 326 -15 291 -15 c 0,74,75
 248 -15 248 -15 206 1 c 128,-1,76
 164 17 164 17 129 45.5 c 128,-1,77
 94 74 94 74 68.5 113.5 c 128,-1,78
 43 153 43 153 33 200 c 0,79,80
 3 345 3 345 125 442 c 0,14,15
EndSplineSet
Substitution2: "<17016,16016> Urdu Swash lookup 75 subtable" a
PairPos2: "'kern' Horizontal Kerning in Arabic lookup 0 subtable" afii57509 dx=0 dy=0 dh=0 dv=0 dx=0 dy=0 dh=260 dv=0
PairPos2: "'kern' Horizontal Kerning in Arabic lookup 0 subtable" uni06AB dx=0 dy=0 dh=0 dv=0 dx=0 dy=0 dh=260 dv=0
PairPos2: "'kern' Horizontal Kerning in Arabic lookup 0 subtable" uni06A9 dx=0 dy=0 dh=0 dv=0 dx=0 dy=0 dh=260 dv=0
PairPos2: "'kern' Horizontal Kerning in Arabic lookup 0 subtable" uniFB94 dx=0 dy=0 dh=0 dv=0 dx=0 dy=0 dh=260 dv=0
PairPos2: "'kern' Horizontal Kerning in Arabic lookup 0 subtable" uniFBD5 dx=0 dy=0 dh=0 dv=0 dx=0 dy=0 dh=260 dv=0
PairPos2: "'kern' Horizontal Kerning in Arabic lookup 0 subtable" uni06AB.ini dx=0 dy=0 dh=0 dv=0 dx=0 dy=0 dh=260 dv=0
PairPos2: "'kern' Horizontal Kerning in Arabic lookup 0 subtable" uniFB90 dx=0 dy=0 dh=0 dv=0 dx=0 dy=0 dh=260 dv=0
PairPos2: "'kern' Horizontal Kerning in Arabic lookup 0 subtable" uniFEDB dx=0 dy=0 dh=0 dv=0 dx=0 dy=0 dh=260 dv=0
PairPos2: "'kern' Horizontal Kerning in Arabic lookup 0 subtable" uni0671 dx=0 dy=0 dh=0 dv=0 dx=0 dy=0 dh=208 dv=0
PairPos2: "'kern' Horizontal Kerning in Arabic lookup 0 subtable" afii57410 dx=0 dy=0 dh=0 dv=0 dx=0 dy=0 dh=208 dv=0
PairPos2: "'kern' Horizontal Kerning in Arabic lookup 0 subtable" afii57415 dx=0 dy=0 dh=0 dv=0 dx=0 dy=0 dh=52 dv=0
EndChar

StartChar: b
Encoding: 98 98 69
Width: 1024
GlyphClass: 2
Flags: W
LayerCount: 2
Fore
SplineSet
496 51 m 0,0,1
 635 51 635 51 680 156 c 0,2,3
 725 262 725 262 694 408 c 0,4,5
 662 557 662 557 573 683 c 0,6,7
 485 809 485 809 343 809 c 0,8,9
 310 809 310 809 276 797.5 c 128,-1,10
 242 786 242 786 216 766 c 128,-1,11
 190 746 190 746 176 717.5 c 128,-1,12
 162 689 162 689 169 656 c 2,13,-1
 278 147 l 1,14,15
 288 120 288 120 314.5 102 c 128,-1,16
 341 84 341 84 373.5 72.5 c 128,-1,17
 406 61 406 61 439 56 c 128,-1,18
 472 51 472 51 496 51 c 0,0,1
-263 1270 m 1,19,-1
 -271 1306 l 1,20,21
 -218 1319 -218 1319 -167.5 1334.5 c 128,-1,22
 -117 1350 -117 1350 -77 1363.5 c 128,-1,23
 -37 1377 -37 1377 -12.5 1386.5 c 128,-1,24
 12 1396 12 1396 14 1396 c 0,25,26
 18 1388 18 1388 19 1383 c 2,27,-1
 147 779 l 1,28,29
 160 817 160 817 184.5 847 c 128,-1,30
 209 877 209 877 243 898 c 128,-1,31
 277 919 277 919 317.5 930.5 c 128,-1,32
 358 942 358 942 402 942 c 0,33,34
 476 942 476 942 547.5 909 c 128,-1,35
 619 876 619 876 679.5 817 c 128,-1,36
 740 758 740 758 785.5 675.5 c 128,-1,37
 831 593 831 593 852 495 c 0,38,39
 874 391 874 391 858.5 298 c 128,-1,40
 843 205 843 205 793.5 134.5 c 128,-1,41
 744 64 744 64 663 22.5 c 128,-1,42
 582 -19 582 -19 471 -19 c 0,43,44
 418 -19 418 -19 358 -7 c 128,-1,45
 298 5 298 5 245.5 24.5 c 128,-1,46
 193 44 193 44 157.5 67.5 c 128,-1,47
 122 91 122 91 117 114 c 2,48,-1
 -108 1169 l 2,49,50
 -114 1197 -114 1197 -121 1217 c 128,-1,51
 -128 1237 -128 1237 -140 1250 c 128,-1,52
 -152 1263 -152 1263 -170.5 1269 c 128,-1,53
 -189 1275 -189 1275 -218 1275 c 2,54,-1
 -263 1270 l 1,19,-1
EndSplineSet
Substitution2: "<17016,16016> Urdu Swash lookup 75 subtable" b
PairPos2: "'kern' Horizontal Kerning in Arabic lookup 0 subtable" afii57509 dx=0 dy=0 dh=0 dv=0 dx=0 dy=0 dh=260 dv=0
PairPos2: "'kern' Horizontal Kerning in Arabic lookup 0 subtable" uni06AB dx=0 dy=0 dh=0 dv=0 dx=0 dy=0 dh=260 dv=0
PairPos2: "'kern' Horizontal Kerning in Arabic lookup 0 subtable" uni06A9 dx=0 dy=0 dh=0 dv=0 dx=0 dy=0 dh=260 dv=0
PairPos2: "'kern' Horizontal Kerning in Arabic lookup 0 subtable" uniFB94 dx=0 dy=0 dh=0 dv=0 dx=0 dy=0 dh=260 dv=0
PairPos2: "'kern' Horizontal Kerning in Arabic lookup 0 subtable" uniFBD5 dx=0 dy=0 dh=0 dv=0 dx=0 dy=0 dh=260 dv=0
PairPos2: "'kern' Horizontal Kerning in Arabic lookup 0 subtable" uni06AB.ini dx=0 dy=0 dh=0 dv=0 dx=0 dy=0 dh=260 dv=0
PairPos2: "'kern' Horizontal Kerning in Arabic lookup 0 subtable" uniFB90 dx=0 dy=0 dh=0 dv=0 dx=0 dy=0 dh=260 dv=0
PairPos2: "'kern' Horizontal Kerning in Arabic lookup 0 subtable" uniFEDB dx=0 dy=0 dh=0 dv=0 dx=0 dy=0 dh=260 dv=0
PairPos2: "'kern' Horizontal Kerning in Arabic lookup 0 subtable" uni0671 dx=0 dy=0 dh=0 dv=0 dx=0 dy=0 dh=208 dv=0
PairPos2: "'kern' Horizontal Kerning in Arabic lookup 0 subtable" afii57410 dx=0 dy=0 dh=0 dv=0 dx=0 dy=0 dh=208 dv=0
PairPos2: "'kern' Horizontal Kerning in Arabic lookup 0 subtable" afii57415 dx=0 dy=0 dh=0 dv=0 dx=0 dy=0 dh=52 dv=0
EndChar

StartChar: c
Encoding: 99 99 70
AltUni2: 00217d.ffffffff.0
Width: 909
GlyphClass: 2
Flags: W
LayerCount: 2
Fore
SplineSet
657 737 m 0,0,1
 661 721 661 721 659 704.5 c 128,-1,2
 657 688 657 688 648 675 c 128,-1,3
 639 662 639 662 623 654 c 128,-1,4
 607 646 607 646 583 646 c 0,5,6
 549 646 549 646 516.5 670 c 128,-1,7
 484 694 484 694 462 741 c 2,8,-1
 439 789 l 2,9,10
 416 842 416 842 379 863 c 128,-1,11
 342 884 342 884 288 884 c 0,12,13
 233 884 233 884 189 858 c 128,-1,14
 145 832 145 832 118.5 785 c 128,-1,15
 92 738 92 738 85 671 c 128,-1,16
 78 604 78 604 95 521 c 0,17,18
 127 373 127 373 238 252 c 0,19,20
 351 132 351 132 497 132 c 0,21,22
 540 132 540 132 575 142.5 c 128,-1,23
 610 153 610 153 639 175.5 c 128,-1,24
 668 198 668 198 693.5 235 c 128,-1,25
 719 272 719 272 743 324 c 1,26,-1
 777 306 l 1,27,28
 761 245 761 245 741.5 197.5 c 128,-1,29
 722 150 722 150 699 115 c 0,30,31
 605 -19 605 -19 446 -19 c 0,32,33
 289 -19 289 -19 143 104 c 0,34,35
 -2 228 -2 228 -47 438 c 0,36,37
 -69 540 -69 540 -54 632 c 128,-1,38
 -39 724 -39 724 8 793 c 128,-1,39
 55 862 55 862 131 903 c 128,-1,40
 207 944 207 944 307 944 c 0,41,42
 369 944 369 944 429 926 c 128,-1,43
 489 908 489 908 537 878.5 c 128,-1,44
 585 849 585 849 617 812 c 128,-1,45
 649 775 649 775 657 737 c 0,0,1
EndSplineSet
Substitution2: "<17016,16016> Urdu Swash lookup 75 subtable" c
PairPos2: "'kern' Horizontal Kerning in Arabic lookup 0 subtable" afii57509 dx=0 dy=0 dh=0 dv=0 dx=0 dy=0 dh=260 dv=0
PairPos2: "'kern' Horizontal Kerning in Arabic lookup 0 subtable" uni06AB dx=0 dy=0 dh=0 dv=0 dx=0 dy=0 dh=260 dv=0
PairPos2: "'kern' Horizontal Kerning in Arabic lookup 0 subtable" uni06A9 dx=0 dy=0 dh=0 dv=0 dx=0 dy=0 dh=260 dv=0
PairPos2: "'kern' Horizontal Kerning in Arabic lookup 0 subtable" uniFB94 dx=0 dy=0 dh=0 dv=0 dx=0 dy=0 dh=260 dv=0
PairPos2: "'kern' Horizontal Kerning in Arabic lookup 0 subtable" uniFBD5 dx=0 dy=0 dh=0 dv=0 dx=0 dy=0 dh=260 dv=0
PairPos2: "'kern' Horizontal Kerning in Arabic lookup 0 subtable" uni06AB.ini dx=0 dy=0 dh=0 dv=0 dx=0 dy=0 dh=260 dv=0
PairPos2: "'kern' Horizontal Kerning in Arabic lookup 0 subtable" uniFB90 dx=0 dy=0 dh=0 dv=0 dx=0 dy=0 dh=260 dv=0
PairPos2: "'kern' Horizontal Kerning in Arabic lookup 0 subtable" uniFEDB dx=0 dy=0 dh=0 dv=0 dx=0 dy=0 dh=260 dv=0
PairPos2: "'kern' Horizontal Kerning in Arabic lookup 0 subtable" uni0671 dx=0 dy=0 dh=0 dv=0 dx=0 dy=0 dh=208 dv=0
PairPos2: "'kern' Horizontal Kerning in Arabic lookup 0 subtable" afii57410 dx=0 dy=0 dh=0 dv=0 dx=0 dy=0 dh=208 dv=0
PairPos2: "'kern' Horizontal Kerning in Arabic lookup 0 subtable" afii57415 dx=0 dy=0 dh=0 dv=0 dx=0 dy=0 dh=52 dv=0
EndChar

StartChar: d
Encoding: 100 100 71
AltUni2: 00217e.ffffffff.0
Width: 1024
GlyphClass: 2
Flags: W
LayerCount: 2
Fore
SplineSet
557 651 m 2,0,1
 529 781 529 781 448 833 c 0,2,3
 406 860 406 860 371.5 873.5 c 128,-1,4
 337 887 337 887 303 887 c 0,5,6
 240 887 240 887 197.5 857 c 128,-1,7
 155 827 155 827 132 774.5 c 128,-1,8
 109 722 109 722 106 652 c 128,-1,9
 103 582 103 582 120 502 c 0,10,11
 153 344 153 344 254 217 c 0,12,13
 355 91 355 91 502 91 c 0,14,15
 541 91 541 91 570 104.5 c 128,-1,16
 599 118 599 118 618 138 c 128,-1,17
 637 158 637 158 644 181 c 128,-1,18
 651 204 651 204 648 223 c 2,19,-1
 557 651 l 2,0,1
425 914 m 0,20,21
 449 903 449 903 470 889 c 128,-1,22
 491 875 491 875 513 858 c 1,23,-1
 446 1172 l 2,24,25
 440 1201 440 1201 433 1221.5 c 128,-1,26
 426 1242 426 1242 414.5 1254.5 c 128,-1,27
 403 1267 403 1267 387.5 1272.5 c 128,-1,28
 372 1278 372 1278 347 1278 c 0,29,30
 341 1278 341 1278 336.5 1278 c 128,-1,31
 332 1278 332 1278 325.5 1277 c 128,-1,32
 319 1276 319 1276 309.5 1275.5 c 128,-1,33
 300 1275 300 1275 286 1273 c 1,34,-1
 278 1308 l 1,35,-1
 357 1329 l 2,36,37
 390 1338 390 1338 421.5 1348 c 128,-1,38
 453 1358 453 1358 480 1367.5 c 128,-1,39
 507 1377 507 1377 528.5 1385 c 128,-1,40
 550 1393 550 1393 564 1398 c 1,41,-1
 572 1396 l 1,42,-1
 592 1290 l 2,43,44
 604 1233 604 1233 615.5 1173 c 128,-1,45
 627 1113 627 1113 639 1054 c 2,46,-1
 811 238 l 2,47,48
 817 207 817 207 824.5 185 c 128,-1,49
 832 163 832 163 845 149 c 128,-1,50
 858 135 858 135 879 128.5 c 128,-1,51
 900 122 900 122 934 122 c 0,52,53
 946 122 946 122 957 122.5 c 128,-1,54
 968 123 968 123 979 125 c 1,55,-1
 986 90 l 2,56,57
 987 90 987 90 961 80.5 c 128,-1,58
 935 71 935 71 894.5 55.5 c 128,-1,59
 854 40 854 40 804 20.5 c 128,-1,60
 754 1 754 1 706 -19 c 1,61,-1
 697 -10 l 1,62,-1
 672 111 l 1,63,64
 644 73 644 73 618.5 48 c 128,-1,65
 593 23 593 23 566 8 c 128,-1,66
 539 -7 539 -7 507 -13 c 128,-1,67
 475 -19 475 -19 434 -19 c 0,68,69
 263 -19 263 -19 130 112 c 0,70,71
 -3 244 -3 244 -39 417 c 0,72,73
 -85 633 -85 633 6 790 c 0,74,75
 99 946 99 946 284 946 c 0,76,77
 356 946 356 946 425 914 c 0,20,21
EndSplineSet
Substitution2: "<17016,16016> Urdu Swash lookup 75 subtable" d
PairPos2: "'kern' Horizontal Kerning in Arabic lookup 0 subtable" afii57509 dx=0 dy=0 dh=0 dv=0 dx=0 dy=0 dh=260 dv=0
PairPos2: "'kern' Horizontal Kerning in Arabic lookup 0 subtable" uni06AB dx=0 dy=0 dh=0 dv=0 dx=0 dy=0 dh=260 dv=0
PairPos2: "'kern' Horizontal Kerning in Arabic lookup 0 subtable" uni06A9 dx=0 dy=0 dh=0 dv=0 dx=0 dy=0 dh=260 dv=0
PairPos2: "'kern' Horizontal Kerning in Arabic lookup 0 subtable" uniFB94 dx=0 dy=0 dh=0 dv=0 dx=0 dy=0 dh=260 dv=0
PairPos2: "'kern' Horizontal Kerning in Arabic lookup 0 subtable" uniFBD5 dx=0 dy=0 dh=0 dv=0 dx=0 dy=0 dh=260 dv=0
PairPos2: "'kern' Horizontal Kerning in Arabic lookup 0 subtable" uni06AB.ini dx=0 dy=0 dh=0 dv=0 dx=0 dy=0 dh=260 dv=0
PairPos2: "'kern' Horizontal Kerning in Arabic lookup 0 subtable" uniFB90 dx=0 dy=0 dh=0 dv=0 dx=0 dy=0 dh=260 dv=0
PairPos2: "'kern' Horizontal Kerning in Arabic lookup 0 subtable" uniFEDB dx=0 dy=0 dh=0 dv=0 dx=0 dy=0 dh=260 dv=0
PairPos2: "'kern' Horizontal Kerning in Arabic lookup 0 subtable" uni0671 dx=0 dy=0 dh=0 dv=0 dx=0 dy=0 dh=208 dv=0
PairPos2: "'kern' Horizontal Kerning in Arabic lookup 0 subtable" afii57410 dx=0 dy=0 dh=0 dv=0 dx=0 dy=0 dh=208 dv=0
PairPos2: "'kern' Horizontal Kerning in Arabic lookup 0 subtable" afii57415 dx=0 dy=0 dh=0 dv=0 dx=0 dy=0 dh=52 dv=0
EndChar

StartChar: e
Encoding: 101 101 72
Width: 909
GlyphClass: 2
Flags: W
LayerCount: 2
Fore
SplineSet
75 763 m 0,0,1
 66 737 66 737 61.5 702.5 c 128,-1,2
 57 668 57 668 58 629 c 1,3,-1
 478 629 l 1,4,5
 438 754 438 754 378.5 809 c 128,-1,6
 319 864 319 864 227 864 c 0,7,8
 114 864 114 864 75 763 c 0,0,1
68 563 m 1,9,10
 97 453 97 453 142.5 366.5 c 128,-1,11
 188 280 188 280 244 228 c 0,12,13
 302 178 302 178 365 150 c 128,-1,14
 428 122 428 122 491 122 c 0,15,16
 543 122 543 122 583.5 136 c 128,-1,17
 624 150 624 150 655 177 c 128,-1,18
 686 204 686 204 710.5 243 c 128,-1,19
 735 282 735 282 754 333 c 1,20,-1
 793 321 l 1,21,22
 780 193 780 193 691 84 c 0,23,24
 602 -24 602 -24 438 -24 c 0,25,26
 249 -24 249 -24 115 118 c 0,27,28
 49 190 49 190 7.5 271.5 c 128,-1,29
 -34 353 -34 353 -55 445 c 0,30,31
 -98 646 -98 646 -10 793 c 0,32,33
 77 939 77 939 269 939 c 0,34,35
 410 939 410 939 538 841 c 0,36,37
 663 745 663 745 702 563 c 1,38,-1
 68 563 l 1,9,10
EndSplineSet
Substitution2: "<17016,16016> Urdu Swash lookup 75 subtable" e
PairPos2: "'kern' Horizontal Kerning in Arabic lookup 0 subtable" afii57509 dx=0 dy=0 dh=0 dv=0 dx=0 dy=0 dh=260 dv=0
PairPos2: "'kern' Horizontal Kerning in Arabic lookup 0 subtable" uni06AB dx=0 dy=0 dh=0 dv=0 dx=0 dy=0 dh=260 dv=0
PairPos2: "'kern' Horizontal Kerning in Arabic lookup 0 subtable" uni06A9 dx=0 dy=0 dh=0 dv=0 dx=0 dy=0 dh=260 dv=0
PairPos2: "'kern' Horizontal Kerning in Arabic lookup 0 subtable" uniFB94 dx=0 dy=0 dh=0 dv=0 dx=0 dy=0 dh=260 dv=0
PairPos2: "'kern' Horizontal Kerning in Arabic lookup 0 subtable" uniFBD5 dx=0 dy=0 dh=0 dv=0 dx=0 dy=0 dh=260 dv=0
PairPos2: "'kern' Horizontal Kerning in Arabic lookup 0 subtable" uni06AB.ini dx=0 dy=0 dh=0 dv=0 dx=0 dy=0 dh=260 dv=0
PairPos2: "'kern' Horizontal Kerning in Arabic lookup 0 subtable" uniFB90 dx=0 dy=0 dh=0 dv=0 dx=0 dy=0 dh=260 dv=0
PairPos2: "'kern' Horizontal Kerning in Arabic lookup 0 subtable" uniFEDB dx=0 dy=0 dh=0 dv=0 dx=0 dy=0 dh=260 dv=0
PairPos2: "'kern' Horizontal Kerning in Arabic lookup 0 subtable" uni0671 dx=0 dy=0 dh=0 dv=0 dx=0 dy=0 dh=208 dv=0
PairPos2: "'kern' Horizontal Kerning in Arabic lookup 0 subtable" afii57410 dx=0 dy=0 dh=0 dv=0 dx=0 dy=0 dh=208 dv=0
PairPos2: "'kern' Horizontal Kerning in Arabic lookup 0 subtable" afii57415 dx=0 dy=0 dh=0 dv=0 dx=0 dy=0 dh=52 dv=0
EndChar

StartChar: f
Encoding: 102 102 73
Width: 682
GlyphClass: 2
Flags: W
LayerCount: 2
Fore
SplineSet
34 30 m 1,0,1
 88 32 88 32 119.5 40.5 c 128,-1,2
 151 49 151 49 165 69.5 c 128,-1,3
 179 90 179 90 179 124.5 c 128,-1,4
 179 159 179 159 166 214 c 2,5,-1
 31 854 l 1,6,-1
 -139 854 l 1,7,-1
 -154 923 l 1,8,-1
 16 923 l 1,9,10
 -31 1153 -31 1153 31.5 1275.5 c 128,-1,11
 94 1398 94 1398 260 1398 c 0,12,13
 302 1398 302 1398 344.5 1389 c 128,-1,14
 387 1380 387 1380 423 1363 c 128,-1,15
 459 1346 459 1346 484 1322 c 128,-1,16
 509 1298 509 1298 515 1268 c 0,17,18
 522 1234 522 1234 504 1208 c 128,-1,19
 486 1182 486 1182 451 1182 c 0,20,21
 421 1182 421 1182 396.5 1199.5 c 128,-1,22
 372 1217 372 1217 333 1261 c 2,23,-1
 311 1287 l 2,24,25
 292 1308 292 1308 270 1322.5 c 128,-1,26
 248 1337 248 1337 215 1337 c 0,27,28
 98 1337 98 1337 136 1158 c 2,29,-1
 186 923 l 1,30,-1
 437 923 l 1,31,-1
 452 854 l 1,32,-1
 203 854 l 1,33,-1
 338 214 l 2,34,35
 363 102 363 102 400 70 c 0,36,37
 437 39 437 39 568 30 c 1,38,-1
 574 0 l 1,39,-1
 40 0 l 1,40,-1
 34 30 l 1,0,1
EndSplineSet
Substitution2: "<17016,16016> Urdu Swash lookup 75 subtable" f
PairPos2: "'kern' Horizontal Kerning in Arabic lookup 0 subtable" afii57509 dx=0 dy=0 dh=0 dv=0 dx=0 dy=0 dh=260 dv=0
PairPos2: "'kern' Horizontal Kerning in Arabic lookup 0 subtable" uni06AB dx=0 dy=0 dh=0 dv=0 dx=0 dy=0 dh=260 dv=0
PairPos2: "'kern' Horizontal Kerning in Arabic lookup 0 subtable" uni06A9 dx=0 dy=0 dh=0 dv=0 dx=0 dy=0 dh=260 dv=0
PairPos2: "'kern' Horizontal Kerning in Arabic lookup 0 subtable" uniFB94 dx=0 dy=0 dh=0 dv=0 dx=0 dy=0 dh=260 dv=0
PairPos2: "'kern' Horizontal Kerning in Arabic lookup 0 subtable" uniFBD5 dx=0 dy=0 dh=0 dv=0 dx=0 dy=0 dh=260 dv=0
PairPos2: "'kern' Horizontal Kerning in Arabic lookup 0 subtable" uni06AB.ini dx=0 dy=0 dh=0 dv=0 dx=0 dy=0 dh=260 dv=0
PairPos2: "'kern' Horizontal Kerning in Arabic lookup 0 subtable" uniFB90 dx=0 dy=0 dh=0 dv=0 dx=0 dy=0 dh=260 dv=0
PairPos2: "'kern' Horizontal Kerning in Arabic lookup 0 subtable" uniFEDB dx=0 dy=0 dh=0 dv=0 dx=0 dy=0 dh=260 dv=0
PairPos2: "'kern' Horizontal Kerning in Arabic lookup 0 subtable" uni0671 dx=0 dy=0 dh=0 dv=0 dx=0 dy=0 dh=208 dv=0
PairPos2: "'kern' Horizontal Kerning in Arabic lookup 0 subtable" afii57410 dx=0 dy=0 dh=0 dv=0 dx=0 dy=0 dh=208 dv=0
PairPos2: "'kern' Horizontal Kerning in Arabic lookup 0 subtable" afii57415 dx=0 dy=0 dh=0 dv=0 dx=0 dy=0 dh=52 dv=0
EndChar

StartChar: g
Encoding: 103 103 74
Width: 1024
GlyphClass: 2
Flags: W
LayerCount: 2
Fore
SplineSet
529 387 m 0,0,1
 579 435 579 435 554 553 c 0,2,3
 534 650 534 650 460 767 c 0,4,5
 387 885 387 885 275 885 c 0,6,7
 200 885 200 885 172.5 829.5 c 128,-1,8
 145 774 145 774 167 672 c 0,9,10
 192 552 192 552 272 454 c 0,11,12
 351 358 351 358 445 358 c 0,13,14
 500 358 500 358 529 387 c 0,0,1
582 -331 m 0,15,16
 663 -331 663 -331 728.5 -316 c 128,-1,17
 794 -301 794 -301 837.5 -274 c 128,-1,18
 881 -247 881 -247 900.5 -211 c 128,-1,19
 920 -175 920 -175 911 -133 c 0,20,21
 905 -101 905 -101 879 -78.5 c 128,-1,22
 853 -56 853 -56 811 -45 c 0,23,24
 784 -38 784 -38 734 -35 c 128,-1,25
 684 -32 684 -32 611 -30 c 0,26,27
 575 -29 575 -29 541.5 -28 c 128,-1,28
 508 -27 508 -27 472.5 -24.5 c 128,-1,29
 437 -22 437 -22 397 -17.5 c 128,-1,30
 357 -13 357 -13 309 -4 c 1,31,32
 296 -7 296 -7 263 -67 c 0,33,34
 230 -132 230 -132 241 -184 c 0,35,36
 259 -268 259 -268 358 -299 c 0,37,38
 461 -331 461 -331 582 -331 c 0,15,16
8 616 m 0,39,40
 -5 675 -5 675 6.5 731 c 128,-1,41
 18 787 18 787 52 839 c 0,42,43
 89 890 89 890 149.5 917 c 128,-1,44
 210 944 210 944 294 944 c 0,45,46
 365 944 365 944 463 909 c 0,47,48
 557 875 557 875 639 875 c 0,49,50
 647 875 647 875 661.5 875.5 c 128,-1,51
 676 876 676 876 692.5 876.5 c 128,-1,52
 709 877 709 877 727.5 877.5 c 128,-1,53
 746 878 746 878 762 878 c 2,54,-1
 775 878 l 1,55,-1
 793 795 l 1,56,-1
 622 795 l 1,57,58
 657 741 657 741 676.5 698 c 128,-1,59
 696 655 696 655 704 613 c 0,60,61
 716 558 716 558 704 503.5 c 128,-1,62
 692 449 692 449 656.5 405.5 c 128,-1,63
 621 362 621 362 561.5 335 c 128,-1,64
 502 308 502 308 419 308 c 0,65,66
 391 308 391 308 327 317 c 0,67,68
 313 316 313 316 294.5 301 c 128,-1,69
 276 286 276 286 261 266 c 128,-1,70
 246 246 246 246 237 225 c 128,-1,71
 228 204 228 204 232 189 c 0,72,73
 234 177 234 177 249.5 166.5 c 128,-1,74
 265 156 265 156 289.5 148.5 c 128,-1,75
 314 141 314 141 346 137 c 128,-1,76
 378 133 378 133 414 133 c 0,77,78
 540 133 540 133 630 125.5 c 128,-1,79
 720 118 720 118 770 104 c 0,80,81
 849 80 849 80 898 29 c 128,-1,82
 947 -22 947 -22 964 -99 c 0,83,84
 998 -258 998 -258 841 -352 c 0,85,86
 685 -445 685 -445 504 -445 c 0,87,88
 424 -445 424 -445 354.5 -426.5 c 128,-1,89
 285 -408 285 -408 232 -379 c 128,-1,90
 179 -350 179 -350 145.5 -313 c 128,-1,91
 112 -276 112 -276 105 -239 c 0,92,93
 100 -220 100 -220 102 -203 c 128,-1,94
 104 -186 104 -186 114 -167 c 128,-1,95
 124 -148 124 -148 142.5 -124 c 128,-1,96
 161 -100 161 -100 193 -65 c 2,97,-1
 255 5 l 1,98,99
 188 29 188 29 160 53.5 c 128,-1,100
 132 78 132 78 125 111 c 0,101,102
 121 132 121 132 124.5 152 c 128,-1,103
 128 172 128 172 143.5 197 c 128,-1,104
 159 222 159 222 186.5 255.5 c 128,-1,105
 214 289 214 289 257 337 c 1,106,107
 207 352 207 352 166 379 c 128,-1,108
 125 406 125 406 93 442.5 c 128,-1,109
 61 479 61 479 39.5 523 c 128,-1,110
 18 567 18 567 8 616 c 0,39,40
EndSplineSet
Substitution2: "<17016,16016> Urdu Swash lookup 75 subtable" g
PairPos2: "'kern' Horizontal Kerning in Arabic lookup 0 subtable" afii57509 dx=0 dy=0 dh=0 dv=0 dx=0 dy=0 dh=260 dv=0
PairPos2: "'kern' Horizontal Kerning in Arabic lookup 0 subtable" uni06AB dx=0 dy=0 dh=0 dv=0 dx=0 dy=0 dh=260 dv=0
PairPos2: "'kern' Horizontal Kerning in Arabic lookup 0 subtable" uni06A9 dx=0 dy=0 dh=0 dv=0 dx=0 dy=0 dh=260 dv=0
PairPos2: "'kern' Horizontal Kerning in Arabic lookup 0 subtable" uniFB94 dx=0 dy=0 dh=0 dv=0 dx=0 dy=0 dh=260 dv=0
PairPos2: "'kern' Horizontal Kerning in Arabic lookup 0 subtable" uniFBD5 dx=0 dy=0 dh=0 dv=0 dx=0 dy=0 dh=260 dv=0
PairPos2: "'kern' Horizontal Kerning in Arabic lookup 0 subtable" uni06AB.ini dx=0 dy=0 dh=0 dv=0 dx=0 dy=0 dh=260 dv=0
PairPos2: "'kern' Horizontal Kerning in Arabic lookup 0 subtable" uniFB90 dx=0 dy=0 dh=0 dv=0 dx=0 dy=0 dh=260 dv=0
PairPos2: "'kern' Horizontal Kerning in Arabic lookup 0 subtable" uniFEDB dx=0 dy=0 dh=0 dv=0 dx=0 dy=0 dh=260 dv=0
PairPos2: "'kern' Horizontal Kerning in Arabic lookup 0 subtable" uni0671 dx=0 dy=0 dh=0 dv=0 dx=0 dy=0 dh=208 dv=0
PairPos2: "'kern' Horizontal Kerning in Arabic lookup 0 subtable" afii57410 dx=0 dy=0 dh=0 dv=0 dx=0 dy=0 dh=208 dv=0
PairPos2: "'kern' Horizontal Kerning in Arabic lookup 0 subtable" afii57415 dx=0 dy=0 dh=0 dv=0 dx=0 dy=0 dh=52 dv=0
EndChar

StartChar: h
Encoding: 104 104 75
Width: 1024
GlyphClass: 2
Flags: W
LayerCount: 2
Fore
SplineSet
11 30 m 1,0,1
 53 36 53 36 76.5 45 c 128,-1,2
 100 54 100 54 111 73 c 128,-1,3
 122 92 122 92 119 124.5 c 128,-1,4
 116 157 116 157 105 209 c 2,5,-1
 -98 1167 l 2,6,7
 -104 1194 -104 1194 -110.5 1214.5 c 128,-1,8
 -117 1235 -117 1235 -128 1248.5 c 128,-1,9
 -139 1262 -139 1262 -157 1268.5 c 128,-1,10
 -175 1275 -175 1275 -204 1275 c 0,11,12
 -216 1275 -216 1275 -226.5 1273.5 c 128,-1,13
 -237 1272 -237 1272 -249 1270 c 1,14,-1
 -257 1308 l 1,15,16
 -159 1340 -159 1340 -92.5 1360.5 c 128,-1,17
 -26 1381 -26 1381 20 1396 c 1,18,-1
 23 1388 l 1,19,-1
 153 779 l 1,20,21
 182 824 182 824 212 855.5 c 128,-1,22
 242 887 242 887 274 906 c 128,-1,23
 306 925 306 925 341.5 933.5 c 128,-1,24
 377 942 377 942 419 942 c 0,25,26
 544 942 544 942 625 861.5 c 128,-1,27
 706 781 706 781 741 616 c 2,28,-1
 827 209 l 2,29,30
 838 157 838 157 850 124 c 128,-1,31
 862 91 862 91 880.5 72 c 128,-1,32
 899 53 899 53 925 44 c 128,-1,33
 951 35 951 35 990 30 c 1,34,-1
 997 0 l 1,35,-1
 563 0 l 1,36,-1
 556 30 l 1,37,38
 640 42 640 42 660 71 c 0,39,40
 679 99 679 99 655 209 c 2,41,-1
 569 613 l 2,42,43
 559 660 559 660 544 699.5 c 128,-1,44
 529 739 529 739 506 767.5 c 128,-1,45
 483 796 483 796 449.5 812.5 c 128,-1,46
 416 829 416 829 370 829 c 0,47,48
 332 829 332 829 297 814.5 c 128,-1,49
 262 800 262 800 231 773 c 0,50,51
 202 747 202 747 187.5 728 c 128,-1,52
 173 709 173 709 174 701 c 2,53,-1
 278 209 l 2,54,55
 302 99 302 99 334 70 c 0,56,57
 365 42 365 42 453 30 c 1,58,-1
 460 0 l 1,59,-1
 18 0 l 1,60,-1
 11 30 l 1,0,1
EndSplineSet
Substitution2: "<17016,16016> Urdu Swash lookup 75 subtable" h
PairPos2: "'kern' Horizontal Kerning in Arabic lookup 0 subtable" afii57509 dx=0 dy=0 dh=0 dv=0 dx=0 dy=0 dh=260 dv=0
PairPos2: "'kern' Horizontal Kerning in Arabic lookup 0 subtable" uni06AB dx=0 dy=0 dh=0 dv=0 dx=0 dy=0 dh=260 dv=0
PairPos2: "'kern' Horizontal Kerning in Arabic lookup 0 subtable" uni06A9 dx=0 dy=0 dh=0 dv=0 dx=0 dy=0 dh=260 dv=0
PairPos2: "'kern' Horizontal Kerning in Arabic lookup 0 subtable" uniFB94 dx=0 dy=0 dh=0 dv=0 dx=0 dy=0 dh=260 dv=0
PairPos2: "'kern' Horizontal Kerning in Arabic lookup 0 subtable" uniFBD5 dx=0 dy=0 dh=0 dv=0 dx=0 dy=0 dh=260 dv=0
PairPos2: "'kern' Horizontal Kerning in Arabic lookup 0 subtable" uni06AB.ini dx=0 dy=0 dh=0 dv=0 dx=0 dy=0 dh=260 dv=0
PairPos2: "'kern' Horizontal Kerning in Arabic lookup 0 subtable" uniFB90 dx=0 dy=0 dh=0 dv=0 dx=0 dy=0 dh=260 dv=0
PairPos2: "'kern' Horizontal Kerning in Arabic lookup 0 subtable" uniFEDB dx=0 dy=0 dh=0 dv=0 dx=0 dy=0 dh=260 dv=0
PairPos2: "'kern' Horizontal Kerning in Arabic lookup 0 subtable" uni0671 dx=0 dy=0 dh=0 dv=0 dx=0 dy=0 dh=208 dv=0
PairPos2: "'kern' Horizontal Kerning in Arabic lookup 0 subtable" afii57410 dx=0 dy=0 dh=0 dv=0 dx=0 dy=0 dh=208 dv=0
PairPos2: "'kern' Horizontal Kerning in Arabic lookup 0 subtable" afii57415 dx=0 dy=0 dh=0 dv=0 dx=0 dy=0 dh=52 dv=0
EndChar

StartChar: i
Encoding: 105 105 76
Width: 569
GlyphClass: 2
Flags: W
LayerCount: 2
Fore
SplineSet
-25 1396 m 256,0,1
 -3 1396 -3 1396 17.5 1388 c 128,-1,2
 38 1380 38 1380 56 1365.5 c 128,-1,3
 74 1351 74 1351 86 1332 c 128,-1,4
 98 1313 98 1313 102 1290 c 0,5,6
 108 1268 108 1268 103.5 1249 c 128,-1,7
 99 1230 99 1230 87.5 1216 c 128,-1,8
 76 1202 76 1202 59 1193.5 c 128,-1,9
 42 1185 42 1185 20 1185 c 256,10,11
 -2 1185 -2 1185 -23.5 1193.5 c 128,-1,12
 -45 1202 -45 1202 -62 1216 c 128,-1,13
 -79 1230 -79 1230 -90.5 1249 c 128,-1,14
 -102 1268 -102 1268 -108 1290 c 0,15,16
 -112 1312 -112 1312 -108 1331 c 128,-1,17
 -104 1350 -104 1350 -93 1364.5 c 128,-1,18
 -82 1379 -82 1379 -64.5 1387.5 c 128,-1,19
 -47 1396 -47 1396 -25 1396 c 256,0,1
32 30 m 1,20,21
 138 41 138 41 160 66 c 0,22,23
 182 93 182 93 157 209 c 2,24,-1
 57 685 l 2,25,26
 48 723 48 723 39 748 c 128,-1,27
 30 773 30 773 18 788 c 128,-1,28
 6 803 6 803 -10 809 c 128,-1,29
 -26 815 -26 815 -48 815 c 0,30,31
 -53 815 -53 815 -57.5 814.5 c 128,-1,32
 -62 814 -62 814 -69.5 812.5 c 128,-1,33
 -77 811 -77 811 -89 807 c 128,-1,34
 -101 803 -101 803 -122 797 c 1,35,-1
 -129 830 l 1,36,-1
 -88 844 l 2,37,38
 -30 864 -30 864 16 881.5 c 128,-1,39
 62 899 62 899 95 912.5 c 128,-1,40
 128 926 128 926 147.5 934 c 128,-1,41
 167 942 167 942 172 942 c 1,42,43
 174 938 174 938 175.5 934.5 c 128,-1,44
 177 931 177 931 178 926 c 2,45,-1
 330 209 l 2,46,47
 354 96 354 96 387 67 c 0,48,49
 424 37 424 37 520 30 c 1,50,-1
 527 0 l 1,51,-1
 39 0 l 1,52,-1
 32 30 l 1,20,21
EndSplineSet
Substitution2: "<17016,16016> Urdu Swash lookup 75 subtable" i
PairPos2: "'kern' Horizontal Kerning in Arabic lookup 0 subtable" afii57509 dx=0 dy=0 dh=0 dv=0 dx=0 dy=0 dh=260 dv=0
PairPos2: "'kern' Horizontal Kerning in Arabic lookup 0 subtable" uni06AB dx=0 dy=0 dh=0 dv=0 dx=0 dy=0 dh=260 dv=0
PairPos2: "'kern' Horizontal Kerning in Arabic lookup 0 subtable" uni06A9 dx=0 dy=0 dh=0 dv=0 dx=0 dy=0 dh=260 dv=0
PairPos2: "'kern' Horizontal Kerning in Arabic lookup 0 subtable" uniFB94 dx=0 dy=0 dh=0 dv=0 dx=0 dy=0 dh=260 dv=0
PairPos2: "'kern' Horizontal Kerning in Arabic lookup 0 subtable" uniFBD5 dx=0 dy=0 dh=0 dv=0 dx=0 dy=0 dh=260 dv=0
PairPos2: "'kern' Horizontal Kerning in Arabic lookup 0 subtable" uni06AB.ini dx=0 dy=0 dh=0 dv=0 dx=0 dy=0 dh=260 dv=0
PairPos2: "'kern' Horizontal Kerning in Arabic lookup 0 subtable" uniFB90 dx=0 dy=0 dh=0 dv=0 dx=0 dy=0 dh=260 dv=0
PairPos2: "'kern' Horizontal Kerning in Arabic lookup 0 subtable" uniFEDB dx=0 dy=0 dh=0 dv=0 dx=0 dy=0 dh=260 dv=0
PairPos2: "'kern' Horizontal Kerning in Arabic lookup 0 subtable" uni0671 dx=0 dy=0 dh=0 dv=0 dx=0 dy=0 dh=208 dv=0
PairPos2: "'kern' Horizontal Kerning in Arabic lookup 0 subtable" afii57410 dx=0 dy=0 dh=0 dv=0 dx=0 dy=0 dh=208 dv=0
PairPos2: "'kern' Horizontal Kerning in Arabic lookup 0 subtable" afii57415 dx=0 dy=0 dh=0 dv=0 dx=0 dy=0 dh=52 dv=0
EndChar

